<svg xmlns="http://www.w3.org/2000/svg" viewBox="0 0 241.63 124.65">
  <defs>
    <style>.a{fill:#fff;}</style>
  </defs>
  <title>logo-white</title>
  <path class="a"
        d="M79.93,23.13a11.23,11.23,0,0,0-11.2,11.21V59.28H3.16a3.16,3.16,0,1,0,0,6.32H71.89a3.15,3.15,0,0,0,3.16-3.16h0V34.34a4.89,4.89,0,1,1,9.77-.44,3.23,3.23,0,0,1,0,.44v70.49a3.16,3.16,0,1,0,6.32,0h0V34.34A11.22,11.22,0,0,0,79.93,23.13Z"/>
  <path class="a"
        d="M104.42,36.69a3.17,3.17,0,0,0-3.16,3.17V91.07a3.16,3.16,0,0,0,6.32,0V39.9a3.15,3.15,0,0,0-3.15-3.17h0Z"/>
  <path class="a"
        d="M108.08,24.77a3.91,3.91,0,0,0-.37-.7,3.62,3.62,0,0,0-.5-.6,3.25,3.25,0,0,0-.61-.5,4.58,4.58,0,0,0-.69-.37,4,4,0,0,0-.74-.23,4.15,4.15,0,0,0-1.57,0,4,4,0,0,0-1.44.6,3.19,3.19,0,0,0-.6.5,3.78,3.78,0,0,0-.87,1.3,4,4,0,0,0-.23.74,3.78,3.78,0,0,0,0,1.57,4.07,4.07,0,0,0,1.1,2,3.19,3.19,0,0,0,.6.5,4,4,0,0,0,1.44.6,3.89,3.89,0,0,0,1.57,0A4.07,4.07,0,0,0,106,30a3.52,3.52,0,0,0,.69-.37,4,4,0,0,0,1.11-1.11,3.83,3.83,0,0,0,.37-.69,3.92,3.92,0,0,0,.22-.74,3.78,3.78,0,0,0,0-1.57,3.36,3.36,0,0,0-.27-.75Z"/>
  <path class="a"
        d="M129.08,0a11.22,11.22,0,0,0-11.21,11.21V121.49a3.16,3.16,0,0,0,6.32,0V11.21a4.89,4.89,0,1,1,9.77-.44,3.23,3.23,0,0,1,0,.44V84.09a3.16,3.16,0,1,0,6.32,0V11.21A11.22,11.22,0,0,0,129.08,0Z"/>
  <path class="a"
        d="M238.47,59.28h-65.6V34.34a11.21,11.21,0,0,0-22.41-.67c0,.22,0,.45,0,.67V97.22a3.16,3.16,0,1,0,6.32,0V52.36h9.77V62.44a3.16,3.16,0,0,0,3.16,3.16h68.76a3.16,3.16,0,1,0,0-6.32ZM166.55,46h-9.77V34.34a4.89,4.89,0,1,1,9.77-.44,3.23,3.23,0,0,1,0,.44Z"/>
  <path class="a"
        d="M171.35,96.69a1.29,1.29,0,0,0-.33-.17,1.42,1.42,0,0,0-.35-.11,1.84,1.84,0,0,0-.74,0,1.65,1.65,0,0,0-.36.11,1.41,1.41,0,0,0-.32.17,2.17,2.17,0,0,0-.29.24,1.88,1.88,0,0,0-.55,1.33,2.29,2.29,0,0,0,0,.37,2,2,0,0,0,.11.35c0,.11.11.22.17.33a2.17,2.17,0,0,0,.24.29,1.93,1.93,0,0,0,1.34.55,1.88,1.88,0,0,0,1.33-.55,2.17,2.17,0,0,0,.24-.29A1.3,1.3,0,0,0,172,99a1.42,1.42,0,0,0,.11-.35,1.15,1.15,0,0,0,0-.37,1.89,1.89,0,0,0-.56-1.33A1.64,1.64,0,0,0,171.35,96.69Z"/>
  <path class="a"
        d="M200.35,78.87a3.92,3.92,0,0,0-2.47.89,3.9,3.9,0,0,0-6.38,3V98.48a1.42,1.42,0,0,0,2.84,0V82.76a1.06,1.06,0,0,1,2.12,0V98.48a1.42,1.42,0,0,0,2.83,0V82.76a1.06,1.06,0,0,1,2.12,0V98.48a1.42,1.42,0,1,0,2.84,0V82.76a3.89,3.89,0,0,0-3.86-3.89Z"/>
  <path class="a"
        d="M185.66,78.87a3.89,3.89,0,0,0-3.89,3.89V98.48a1.42,1.42,0,0,0,2.83,0v-5h2.05a1.42,1.42,0,0,0,0-2.83H184.6V82.76a1.06,1.06,0,0,1,2.12,0v4.79a1.42,1.42,0,0,0,2.83,0V82.76a3.89,3.89,0,0,0-3.85-3.89Z"/>
</svg>
