<svg xmlns="http://www.w3.org/2000/svg" viewBox="0 0 241.63 124.65">
  <defs>
    <style>
      .a,.b,.c,.d,.e{fill:none;stroke:#FFF;}.a,.b,.c,.d{stroke-linecap:round;}.a,.c,.e{stroke-linejoin:round;}.a,.e{stroke-width:6.32px;}.b,.d{stroke-miterlimit:10;}.b{stroke-width:8px;}.c{stroke-width:2.83px;}.d{stroke-width:3.78px;}
      .letter-n { animation: dash 3s linear forwards; }
      .letter-i { animation: dash 2.8s 0.6s linear forwards; }
      .letter-i-dot { animation: dash 2.6s 0.8s linear forwards; }
      .letter-n2 { animation: dash 2.4s 1.2s linear forwards; }
      .letter-a { animation: dash 2.2s 1.8s linear forwards; }
      .letter-a-bar { animation: dash 2s 2.4s linear forwards; }
      .dot-fm { animation: dash 1.8s 2.6s linear forwards; }
      .letter-f { animation: dash 1.6s 2.8s linear forwards; }
      .letter-f-bar { animation: dash 1.4s 2.9s linear forwards; }
      .letter-m { animation: dash 1.4s 3s linear forwards; }
      .animate {
        stroke-dasharray: 1000 1000;
        stroke-dashoffset: 1000;
      }
      @keyframes dash {
        from { stroke-dashoffset: 1000; }
        to { stroke-dashoffset: 0; }
      }
    </style>
  </defs>
  <title>logo-stroke</title>
  <g class="animate">
    <path class="letter-n a" d="M3.16,62.44H71.89V34.34a8,8,0,1,1,16.09,0v70.49"></path>
    <line class="letter-i a" x1="104.42" x2="104.42" y1="91.07" y2="39.89"></line>
    <line class="letter-i-dot b" x1="104.42" x2="104.42" y1="26.32" y2="26.29"></line>
    <path class="letter-n2 a" d="M121,121.49V11.21a8,8,0,1,1,16.09,0V84.09"></path>
    <path class="letter-a a" d="M153.62,97.22V34.34a8,8,0,1,1,16.09,0v28.1h68.76"></path>
    <line class="letter-a-bar e" x1="153.62" x2="169.71" y1="49.2" y2="49.2"></line>
    <line class="letter-f-bar c" x1="183.22" x2="186.69" y1="92.03" y2="92.03"></line>
    <line class="dot-fm d" x1="170.3" x2="170.3" y1="98.29" y2="98.26"></line>
    <path class="letter-f c" d="M183.22,98.47V82.76a2.48,2.48,0,0,1,5,0v4.79"></path>
    <path class="letter-m c" d="M193,98.47V82.76a2.47,2.47,0,0,1,2.48-2.47,2.73,2.73,0,0,1,2.76,2.47l-.28,15.71V82.76a2.48,2.48,0,0,1,5,0V98.47"></path>
  </g>
</svg>
