<?xml version="1.0" standalone="no"?>
<!DOCTYPE svg PUBLIC "-//W3C//DTD SVG 1.1//EN" "http://www.w3.org/Graphics/SVG/1.1/DTD/svg11.dtd" >
<svg xmlns="http://www.w3.org/2000/svg" xmlns:xlink="http://www.w3.org/1999/xlink" version="1.1">
<metadata>
Created by FontForge 20170731 at Fri Jun 30 21:47:51 2017
 By ,,,
Copyright (c) 2004 - 2007 Linotype GmbH, www.linotype.com. All rights reserved.
</metadata>
<defs>
<font id="AvenirNextCondensed-Regular" horiz-adv-x="470" >
  <font-face 
    font-family="Avenir Next Condensed"
    font-weight="400"
    font-stretch="condensed"
    units-per-em="1000"
    panose-1="2 11 5 6 2 2 2 2 2 4"
    ascent="800"
    descent="-200"
    x-height="496"
    cap-height="708"
    bbox="-379 -411 1071 1205"
    underline-thickness="50"
    underline-position="-200"
    unicode-range="U+000D-FE48"
  />
<missing-glyph horiz-adv-x="512" 
d="M222 117v67h56v-67h-56zM225 234l-2 17q0 56 13 81q7 13 18 27.5t28 31.5q16 15 26 26.5t15 21t7 18t2 17.5q0 36 -22.5 60.5t-53.5 24.5t-53.5 -22t-28.5 -73l-50 8q7 72 44 104.5t91 32.5t89 -35.5t35 -95.5q0 -32 -12.5 -58.5t-50.5 -61.5q-37 -33 -43 -52
q-6 -20 -6 -72h-46zM462 50v617h-412v-617h412zM512 718v-718h-512v718h512z" />
    <glyph glyph-name="IJ" unicode="IJ" horiz-adv-x="602" 
d="M81 0v708h70v-708h-70zM526 194q0 -100 -37.5 -155.5t-120.5 -55.5q-61 0 -98 33t-51 88l62 25q7 -33 28.5 -57.5t57.5 -24.5q52 0 70.5 42t18.5 115v504h70v-514z" />
    <glyph glyph-name="ij" unicode="ij" horiz-adv-x="440" 
d="M154 648q0 -21 -13 -34.5t-31 -13.5q-19 0 -31.5 13.5t-12.5 34.5q0 20 12.5 34t31.5 14t31.5 -14t12.5 -34zM77 0v496h66v-496h-66zM374 648q0 -21 -12.5 -34.5t-31.5 -13.5q-18 0 -30.5 13.5t-12.5 34.5q0 20 12.5 34t30.5 14q19 0 31.5 -14t12.5 -34zM364 -73
q0 -76 -29 -121.5t-98 -45.5q-8 0 -18.5 1.5t-20.5 4.5l6 60q15 -5 29 -5q20 0 32.5 9t20 24t10 35t2.5 42v565h66v-569z" />
    <glyph glyph-name="napostrophe" unicode="&#x22;n" horiz-adv-x="478" 
d="M339 0v320q0 23 -2.5 46.5t-11 43t-24 32t-40.5 12.5t-44.5 -13.5t-33 -37t-21 -54t-7.5 -63.5v-286h-66v371q0 16 -0.5 34.5t-1 36t-1 32t-1.5 22.5h64q2 -19 3 -46t1 -51h2q14 50 46 81.5t80 31.5q40 0 64.5 -17t37.5 -44.5t17.5 -62t4.5 -68.5v-320h-66zM60 534h-50
l41 174h58z" />
    <glyph glyph-name="fi" unicode="fi" horiz-adv-x="457" 
d="M245 711q-15 5 -29 5q-20 0 -33.5 -10t-21.5 -26t-11 -36.5t-3 -42.5v-105h84v-54h-84v-442h-65v442h-67v54h67v105q0 76 30.5 123.5t96.5 47.5q23 0 41 -6zM313 0v496h67v-496h-67zM391 648q0 -21 -13.5 -34.5t-30.5 -13.5q-19 0 -31.5 13.5t-12.5 34.5q0 20 12.5 34
t31.5 14q18 0 31 -14t13 -34z" />
    <glyph glyph-name="fl" unicode="fl" horiz-adv-x="457" 
d="M245 711q-15 5 -29 5q-20 0 -33.5 -10t-21.5 -26t-11 -36.5t-3 -42.5v-105h84v-54h-84v-442h-65v442h-67v54h67v105q0 76 30.5 123.5t96.5 47.5q23 0 41 -6zM313 0v756h67v-756h-67z" />
    <glyph glyph-name=".notdef" horiz-adv-x="512" 
d="M222 117v67h56v-67h-56zM225 234l-2 17q0 56 13 81q7 13 18 27.5t28 31.5q16 15 26 26.5t15 21t7 18t2 17.5q0 36 -22.5 60.5t-53.5 24.5t-53.5 -22t-28.5 -73l-50 8q7 72 44 104.5t91 32.5t89 -35.5t35 -95.5q0 -32 -12.5 -58.5t-50.5 -61.5q-37 -33 -43 -52
q-6 -20 -6 -72h-46zM462 50v617h-412v-617h412zM512 718v-718h-512v718h512z" />
    <glyph glyph-name=".null" horiz-adv-x="185" 
 />
    <glyph glyph-name=".null" horiz-adv-x="185" 
 />
    <glyph glyph-name="nonmarkingreturn" unicode="&#xd;" horiz-adv-x="0" 
 />
    <glyph glyph-name="space" unicode=" " horiz-adv-x="185" 
 />
    <glyph glyph-name="exclam" unicode="!" horiz-adv-x="294" 
d="M114 211v497h67v-497h-67zM194 43q0 -21 -13.5 -35.5t-33.5 -14.5t-33 14.5t-13 35.5t13 35.5t33 14.5t33.5 -14.5t13.5 -35.5z" />
    <glyph glyph-name="quotedbl" unicode="&#x22;" horiz-adv-x="345" 
d="M207 461v247h58v-247h-58zM80 461v247h58v-247h-58z" />
    <glyph glyph-name="numbersign" unicode="#" horiz-adv-x="379" 
d="M284 430l-13 -151h58v-58h-64l-18 -221h-52l19 221h-72l-19 -221h-52l18 221h-63v58h69l14 151h-64v58h69l19 220h52l-19 -220h72l19 220h52l-20 -220h64v-58h-69zM160 430l-13 -151h72l14 151h-73z" />
    <glyph glyph-name="dollar" unicode="$" 
d="M408 193q0 -44 -12 -78.5t-33 -59.5t-50 -39t-63 -15v-80h-37v80q-44 2 -87 21t-70 49l37 50q25 -29 57 -44.5t63 -16.5v270q-31 12 -57.5 27.5t-46 37t-30.5 52t-11 73.5q0 83 42 131t105 55v80h37v-79q42 -1 81 -16t67 -49l-35 -48q-20 26 -49.5 40.5t-63.5 14.5v-263
q31 -13 59.5 -28t50 -37t34 -52.5t12.5 -75.5zM213 647q-33 -5 -58.5 -35.5t-25.5 -85.5q0 -29 6.5 -49.5t18 -34.5t27 -24t32.5 -18v247zM344 188q0 30 -7.5 50.5t-20 35.5t-29.5 25t-35 19v-258q38 2 65 36t27 92z" />
    <glyph glyph-name="percent" unicode="%" horiz-adv-x="631" 
d="M283 541q0 -39 -8.5 -72.5t-24 -57.5t-38.5 -37.5t-52 -13.5t-51.5 13.5t-38.5 37.5t-24.5 57.5t-8.5 72.5t8 72.5t24 58t39 38t52 13.5t52 -13.5t38.5 -38t24 -58t8.5 -72.5zM227 541q0 57 -17 94t-50 37q-34 0 -50.5 -37t-16.5 -94q0 -55 16.5 -92.5t50.5 -37.5
q33 0 50 37.5t17 92.5zM604 170q0 -39 -8.5 -72.5t-24 -57.5t-38.5 -37.5t-52 -13.5t-52 13.5t-39 37.5t-24.5 57.5t-8.5 72.5t8.5 72.5t24.5 58t39 38t52 13.5t52 -13.5t38.5 -38t24 -58t8.5 -72.5zM547 170q0 57 -16.5 94t-49.5 37q-34 0 -50.5 -37t-16.5 -94
q0 -55 16.5 -92.5t50.5 -37.5q33 0 49.5 37.5t16.5 92.5zM206 -23l-49 15l278 745l48 -15z" />
    <glyph glyph-name="ampersand" unicode="&#x26;" horiz-adv-x="520" 
d="M428 0l-64 97q-10 -23 -24 -44t-33 -36.5t-43.5 -24.5t-55.5 -9q-74 0 -119.5 53t-45.5 149q0 38 9.5 69t25.5 56.5t38 46t48 37.5q-34 51 -46 88.5t-12 78.5q0 77 40 121.5t102 44.5q30 0 54.5 -11t42 -31t27.5 -48.5t10 -62.5q0 -35 -11 -63t-29.5 -51.5t-43.5 -42.5
t-52 -37l113 -169l62 169h68l-91 -220l110 -160h-80zM318 569q0 48 -18.5 75.5t-52.5 27.5t-55.5 -30.5t-21.5 -78.5q0 -39 11 -70t37 -71q42 27 71 61.5t29 85.5zM194 348q-17 -12 -33 -26.5t-28 -34t-19.5 -43.5t-7.5 -54q0 -69 30.5 -108t78.5 -39q21 0 38.5 9t32 23.5
t25 33.5t17.5 39z" />
    <glyph glyph-name="quotesingle" unicode="'" horiz-adv-x="218" 
d="M80 461v247h58v-247h-58z" />
    <glyph glyph-name="parenleft" unicode="(" horiz-adv-x="250" 
d="M143 -165q-57 94 -88 213t-31 240t31 240t88 213l55 -26q-26 -43 -46.5 -94.5t-34.5 -107t-21.5 -113t-7.5 -112.5t7.5 -112.5t21.5 -113t34.5 -107t46.5 -94.5z" />
    <glyph glyph-name="parenright" unicode=")" horiz-adv-x="250" 
d="M52 -139q26 43 46.5 94.5t34.5 107t21.5 113t7.5 112.5t-7.5 112.5t-21.5 113t-34.5 107t-46.5 94.5l55 26q57 -94 88 -213t31 -240t-31 -240t-88 -213l-55 26v0z" />
    <glyph glyph-name="asterisk" unicode="*" horiz-adv-x="423" 
d="M257 508l81 -125l-46 -33l-80 127l-79 -125l-47 33l81 123l-129 46l19 51l126 -47v150h58v-150l127 46l17 -52z" />
    <glyph glyph-name="plus" unicode="+" horiz-adv-x="666" 
d="M363 333h225v-60h-225v-225h-60v225h-225v60h225v225h60v-225z" />
    <glyph glyph-name="comma" unicode="," horiz-adv-x="217" 
d="M88 -131h-54l58 248h66z" />
    <glyph glyph-name="hyphen" unicode="-" horiz-adv-x="226" 
d="M38 235v56h150v-56h-150z" />
    <glyph glyph-name="period" unicode="." horiz-adv-x="217" 
d="M155 43q0 -22 -13.5 -36t-33.5 -14t-33 14t-13 36q0 20 13 35t33 15t33.5 -15t13.5 -35z" />
    <glyph glyph-name="slash" unicode="/" horiz-adv-x="254" 
d="M65 -34l-50 9l177 773l50 -10z" />
    <glyph glyph-name="zero" unicode="0" 
d="M425 354q0 -62 -7.5 -127t-28.5 -118t-58 -87t-96 -34t-96 34t-58 87t-29 118t-8 127t8 127t29 118t58 87t96 34t96 -34t58 -87t28.5 -118t7.5 -127zM354 354q0 25 -1.5 57.5t-5.5 66.5t-12 66.5t-21 58t-32.5 41t-46.5 15.5t-46.5 -15.5t-32.5 -41t-21.5 -58
t-12.5 -66.5t-5.5 -66.5t-1.5 -57.5q0 -26 1.5 -58.5t5.5 -66t12.5 -66t21.5 -58t32.5 -41t46.5 -15.5t46.5 15.5t32.5 41t21 58t12 66t5.5 66t1.5 58.5z" />
    <glyph glyph-name="one" unicode="1" 
d="M239 0v628l-130 -101l-33 54l167 127h63v-708h-67z" />
    <glyph glyph-name="two" unicode="2" 
d="M393 535q0 -33 -7.5 -62.5t-21.5 -58t-33.5 -58t-42.5 -63.5l-161 -231h259v-62h-335v66l193 275q36 52 57 97.5t21 91.5q0 26 -6 49.5t-18.5 41.5t-31 28.5t-43.5 10.5q-43 0 -70.5 -28.5t-37.5 -82.5l-66 8q14 80 60 121.5t118 41.5q42 0 73 -14.5t51.5 -40t31 -59
t10.5 -71.5z" />
    <glyph glyph-name="three" unicode="3" 
d="M408 193q0 -40 -12 -77t-36 -65.5t-59 -45.5t-80 -17q-70 0 -117.5 35t-67.5 101l62 18q14 -42 44.5 -68t75.5 -26q31 0 54 13.5t38 35t22.5 47.5t7.5 51q0 72 -38.5 109.5t-99.5 37.5h-21v56h22q54 0 87 37t33 100q0 22 -6 44t-19 40t-32.5 29.5t-47.5 11.5
q-32 0 -57.5 -18.5t-39.5 -50.5l-60 20q22 55 67 82t94 27q39 0 70 -13.5t52.5 -37.5t33.5 -56.5t12 -70.5q0 -29 -7 -56.5t-20.5 -50.5t-34 -39.5t-48.5 -22.5v-2q58 -11 93 -59t35 -119z" />
    <glyph glyph-name="four" unicode="4" 
d="M348 169v-169h-63v169h-254v65l225 474h92v-479h88v-60h-88zM286 641h-2l-190 -412h192v412z" />
    <glyph glyph-name="five" unicode="5" 
d="M406 222q0 -56 -13.5 -99.5t-38 -73.5t-58.5 -45.5t-74 -15.5q-66 0 -109.5 33t-63.5 93l60 22q16 -41 44 -64t68 -23q52 0 85 45.5t33 125.5q0 76 -33 123t-96 47q-29 0 -61.5 -9.5t-55.5 -24.5l8 352h281v-61h-221l-7 -221q17 8 38.5 13.5t38.5 5.5q45 0 77.5 -16.5
t54.5 -46t32.5 -70.5t10.5 -90z" />
    <glyph glyph-name="six" unicode="6" 
d="M427 219q0 -53 -13.5 -95.5t-38.5 -72.5t-60.5 -46.5t-78.5 -16.5q-45 0 -80.5 16.5t-60 46.5t-37.5 72.5t-13 93.5q0 50 13.5 98t37.5 96l146 297h76l-154 -302l2 -1q16 17 39.5 27.5t50.5 10.5q31 0 61.5 -12.5t55 -39.5t39.5 -69.5t15 -102.5zM357 219q0 37 -7.5 68.5
t-22 54t-36.5 35t-52 12.5q-28 0 -51 -13t-39.5 -36.5t-25.5 -55t-9 -67.5q0 -78 33 -124t90 -46t88.5 48t31.5 124z" />
    <glyph glyph-name="seven" unicode="7" 
d="M173 0h-74l232 646h-277v62h347v-59z" />
    <glyph glyph-name="eight" unicode="8" 
d="M424 193q0 -46 -13 -83.5t-37.5 -64.5t-59.5 -42t-78 -15t-77.5 15t-58.5 42t-37 64.5t-13 83.5q0 72 30 119t84 65v2q-48 20 -72.5 62t-24.5 99q0 37 10.5 70t32 57.5t53 38.5t73.5 14t73.5 -14t53 -38.5t32.5 -57.5t11 -70q0 -57 -24 -99t-72 -62v-2q54 -20 84 -66
t30 -118zM337 536q0 57 -26.5 94t-74.5 37q-49 0 -74.5 -37t-25.5 -94q0 -27 7 -51t20 -42t31.5 -29t41.5 -11t42 11t32 29t20 42t7 51zM352 196q0 68 -32 110.5t-84 42.5t-84 -42.5t-32 -110.5q0 -32 8 -60t23 -48.5t36.5 -32t48.5 -11.5q28 0 49.5 11.5t36.5 32t22.5 48.5
t7.5 60z" />
    <glyph glyph-name="nine" unicode="9" 
d="M423 495q0 -48 -13 -96.5t-37 -99.5l-143 -299h-75l155 313l-2 1q-33 -35 -92 -35q-30 0 -60 12t-54 38t-39 67t-15 99q0 51 13.5 92.5t38 71t59 45.5t77.5 16q88 0 137.5 -60.5t49.5 -164.5zM353 497q0 73 -31 119t-87 46t-86.5 -46.5t-30.5 -118.5q0 -35 7.5 -65
t22 -51.5t36 -33.5t50.5 -12q27 0 49 12.5t37.5 34t24 51t8.5 64.5z" />
    <glyph glyph-name="colon" unicode=":" horiz-adv-x="260" 
d="M177 50q0 -22 -13.5 -36t-33.5 -14t-33 14t-13 36q0 20 13 35t33 15t33.5 -15t13.5 -35zM177 446q0 -22 -13.5 -36t-33.5 -14t-33 14t-13 36q0 20 13 35t33 15t33.5 -15t13.5 -35z" />
    <glyph glyph-name="semicolon" unicode=";" horiz-adv-x="260" 
d="M177 446q0 -22 -13.5 -36t-33.5 -14t-33 14t-13 36q0 20 13 35t33 15t33.5 -15t13.5 -35zM101 -131h-54l58 248h66z" />
    <glyph glyph-name="less" unicode="&#x3c;" horiz-adv-x="666" 
d="M588 504l-429 -201l429 -201v-60l-510 238v46l510 238v-60z" />
    <glyph glyph-name="equal" unicode="=" horiz-adv-x="666" 
d="M588 408v-60h-510v60h510zM588 258v-60h-510v60h510z" />
    <glyph glyph-name="greater" unicode="&#x3e;" horiz-adv-x="666" 
d="M78 564l510 -238v-46l-510 -238v60l429 201l-429 201v60z" />
    <glyph glyph-name="question" unicode="?" horiz-adv-x="368" 
d="M343 553q0 -31 -7 -55.5t-18 -44t-25.5 -36.5t-30.5 -33q-17 -18 -28 -33.5t-17 -30.5t-8.5 -31.5t-2.5 -36.5v-39h-58v49q0 40 13.5 75t45.5 71l22 26q20 23 34 48t14 65q0 56 -23.5 87t-67.5 31q-23 0 -40 -9.5t-30 -25.5t-21 -36.5t-11 -42.5l-58 11q11 72 53 117
t114 45q69 0 109.5 -44.5t40.5 -126.5zM229 43q0 -21 -13 -35.5t-33 -14.5t-33.5 14.5t-13.5 35.5t13.5 35.5t33.5 14.5q19 0 32.5 -14.5t13.5 -35.5z" />
    <glyph glyph-name="at" unicode="@" horiz-adv-x="640" 
d="M605 407q0 -52 -10.5 -97t-30.5 -78.5t-48.5 -52.5t-64.5 -19q-32 0 -52 18.5t-19 56.5h-1q-6 -12 -14 -25.5t-19.5 -24.5t-27 -18t-34.5 -7q-27 0 -46.5 12.5t-32.5 33.5t-19.5 48.5t-6.5 58.5q0 43 9.5 87t28 79t46 57t63.5 22q35 0 54 -21t23 -51h3l11 48h59l-36 -172
q-5 -27 -8 -55t-3 -42q0 -21 6.5 -33t26.5 -13q19 -1 35.5 14t27.5 41t17.5 60t6.5 72q0 60 -14 109t-41.5 84.5t-67.5 54.5t-92 19q-54 0 -98 -26t-74.5 -70t-47.5 -102t-17 -122q0 -68 16 -125.5t46.5 -100t75.5 -66.5t103 -24q59 0 107.5 26.5t81.5 65.5l33 -47
q-42 -48 -97 -74.5t-130 -26.5q-72 0 -127.5 28t-93 78t-56.5 118t-19 148q0 79 21 147t60 118.5t94 79.5t122 29q65 0 115.5 -22t85 -63.5t52.5 -101t18 -133.5zM389 409q0 36 -11.5 62.5t-43.5 26.5q-23 0 -40 -17.5t-28 -44.5t-17 -60.5t-6 -65.5q0 -39 13.5 -65
t45.5 -26q22 0 38.5 21t27 51t16 62.5t5.5 55.5z" />
    <glyph glyph-name="A" unicode="A" horiz-adv-x="464" 
d="M384 0l-43 177h-218l-45 -177h-71l180 708h95l175 -708h-73zM235 645h-4l-98 -412h198z" />
    <glyph glyph-name="B" unicode="B" horiz-adv-x="486" 
d="M446 193q0 -55 -17.5 -92t-44.5 -59.5t-59.5 -32t-62.5 -9.5h-181v708h160q30 0 62 -8t58.5 -27.5t43.5 -53t17 -84.5q0 -36 -8.5 -62.5t-22.5 -46t-32 -32t-37 -19.5v-2q19 -4 41 -16t40.5 -33.5t30.5 -54t12 -76.5zM357 525q0 35 -10.5 59t-28 38.5t-39.5 20.5t-45 6
h-87v-251h89q22 0 43.5 7t38.5 22.5t28 39.5t11 58zM377 197q0 40 -12 67.5t-31 44.5t-42.5 25t-45.5 8h-99v-283h99q27 0 51 8t42 25t28 43t10 62z" />
    <glyph glyph-name="C" unicode="C" horiz-adv-x="479" 
d="M461 80q-28 -47 -71 -72t-97 -25q-58 0 -103 28.5t-76 78t-47.5 117.5t-16.5 147q0 80 16.5 148t48 117.5t76.5 77.5t102 28q50 0 93.5 -21t72.5 -66l-45 -46q-23 35 -53.5 52t-64.5 17q-44 0 -76.5 -24t-54 -66t-32 -98t-10.5 -119t11 -118.5t32.5 -97.5t54 -66.5
t76.5 -24.5q38 0 69 21.5t51 56.5l44 -45v0z" />
    <glyph glyph-name="D" unicode="D" horiz-adv-x="541" 
d="M490 353q0 -87 -18 -153t-52 -110.5t-81.5 -67t-105.5 -22.5h-152v708h153q58 0 105.5 -22.5t81 -67.5t51.5 -111.5t18 -153.5zM421 353q0 75 -14.5 130.5t-40 91.5t-60 54t-74.5 18h-82v-586h82q40 0 74.5 18t60 54t40 91t14.5 129z" />
    <glyph glyph-name="E" unicode="E" horiz-adv-x="418" 
d="M81 0v708h285v-62h-217v-249h203v-59h-203v-275h227v-63h-295z" />
    <glyph glyph-name="F" unicode="F" horiz-adv-x="396" 
d="M150 645v-253h199v-61h-199v-331h-69v708h283v-63h-214z" />
    <glyph glyph-name="G" unicode="G" horiz-adv-x="535" 
d="M469 44q-29 -26 -70.5 -41.5t-97.5 -15.5q-59 0 -106 26t-79 74t-49 116t-17 152q0 79 16.5 147t47.5 117.5t76 77.5t102 28q52 0 95 -21t72 -66l-45 -46q-23 35 -53.5 52.5t-65.5 17.5q-44 0 -76 -24.5t-53.5 -66.5t-32 -97.5t-10.5 -118.5q0 -66 11 -122t33.5 -96.5
t56 -63.5t77.5 -23q32 0 57.5 8t42.5 23v240h-101v61h169v-338v0z" />
    <glyph glyph-name="H" unicode="H" horiz-adv-x="573" 
d="M422 0v336h-271v-336h-70v708h70v-310h271v310h70v-708h-70z" />
    <glyph glyph-name="I" unicode="I" horiz-adv-x="232" 
d="M81 0v708h70v-708h-70z" />
    <glyph glyph-name="J" unicode="J" horiz-adv-x="379" 
d="M303 194q0 -100 -37.5 -155.5t-120.5 -55.5q-61 0 -98 33t-51 88l62 25q7 -33 28.5 -57.5t57.5 -24.5q52 0 70.5 42t18.5 115v504h70v-514v0z" />
    <glyph glyph-name="K" unicode="K" horiz-adv-x="482" 
d="M387 0l-236 363h-1v-363h-69v708h69v-318h1l222 318h81l-238 -327l255 -381h-84z" />
    <glyph glyph-name="L" unicode="L" horiz-adv-x="357" 
d="M81 0v708h70v-643h202v-65h-272z" />
    <glyph glyph-name="M" unicode="M" horiz-adv-x="714" 
d="M564 0v615h-3l-174 -615h-65l-173 615h-3v-615h-65v708h104l169 -598h4l167 598h108v-708h-69z" />
    <glyph glyph-name="N" unicode="N" horiz-adv-x="561" 
d="M396 0l-247 589h-3v-589h-65v708h87l245 -589h3v589h64v-708h-84z" />
    <glyph glyph-name="O" unicode="O" horiz-adv-x="570" 
d="M519 355q0 -83 -16 -151.5t-46 -117.5t-73 -76t-98 -27t-98.5 27t-74 76t-46.5 117.5t-16 151.5q0 82 15.5 150.5t45.5 117t73.5 75.5t100.5 27q55 0 98 -27t73 -75.5t46 -117t16 -150.5zM446 355q0 64 -10 120t-30.5 97t-50.5 65t-69 24q-41 0 -71.5 -24t-50.5 -65
t-30 -97t-10 -120t10 -120t30 -98t50.5 -66t71.5 -24q40 0 70 24t50 66t30 98t10 120z" />
    <glyph glyph-name="P" unicode="P" horiz-adv-x="460" 
d="M428 516q0 -49 -14.5 -86.5t-38.5 -62.5t-55.5 -38t-65.5 -13h-104v-316h-69v708h167q31 0 63 -9t58 -31.5t42.5 -59.5t16.5 -92zM359 515q0 35 -9 60.5t-25 41.5t-36.5 23.5t-44.5 7.5h-94v-273h95q47 0 80.5 34.5t33.5 105.5z" />
    <glyph glyph-name="Q" unicode="Q" horiz-adv-x="573" 
d="M285 0q-52 0 -95 25t-74 72t-48 113.5t-17 149.5q0 81 17 148.5t48 115.5t74.5 74.5t96.5 26.5t96.5 -27t74 -75t47.5 -115t17 -146q0 -50 -9 -98t-25 -88t-38.5 -69.5t-48.5 -43.5v-2h144v-61h-260zM449 360q0 62 -11 116.5t-32 95t-51 63.5t-68 23t-68.5 -23t-51.5 -63
t-32 -94.5t-11 -117.5q0 -62 11.5 -116t32.5 -94t51.5 -63t68.5 -23q39 0 69 24.5t50.5 65.5t31 94.5t10.5 111.5z" />
    <glyph glyph-name="R" unicode="R" horiz-adv-x="476" 
d="M369 0l-128 328h-91v-328h-69v708h170q35 0 67.5 -9.5t58 -31.5t41 -58t15.5 -88q0 -45 -11.5 -77.5t-30 -54.5t-41 -34t-44.5 -15l138 -340h-75zM365 518q0 38 -10.5 63.5t-28 40.5t-40 21t-46.5 6h-90v-266h93q57 0 89.5 35.5t32.5 99.5z" />
    <glyph glyph-name="S" unicode="S" horiz-adv-x="434" 
d="M388 181q0 -47 -14 -83.5t-38.5 -62t-57.5 -39t-70 -13.5q-54 0 -99.5 23t-73.5 61l43 49q23 -33 58 -51t71 -18q48 0 80.5 34t32.5 97q0 30 -10 53t-27 41t-38.5 32t-45.5 26q-29 14 -55 31.5t-45.5 40.5t-31.5 54.5t-12 73.5q0 49 15 85.5t40.5 61t57.5 36.5t67 12
q48 0 86.5 -16.5t64.5 -51.5l-43 -49q-20 29 -47 41.5t-59 12.5q-21 0 -41.5 -7.5t-36.5 -23.5t-26 -41t-10 -59q0 -30 9 -52t24.5 -39t36 -30t42.5 -24q28 -14 55.5 -32t49.5 -42t35 -56t13 -75z" />
    <glyph glyph-name="T" unicode="T" horiz-adv-x="342" 
d="M205 648v-648h-69v648h-136v60h342v-60h-137z" />
    <glyph glyph-name="U" unicode="U" horiz-adv-x="550" 
d="M477 248q0 -55 -10.5 -103.5t-34 -84.5t-62.5 -56.5t-96 -20.5t-95.5 20.5t-62 56.5t-33.5 84.5t-10 103.5v460h70v-451q0 -39 5.5 -77t20 -67.5t40 -47.5t66.5 -18q40 0 66 18t40.5 47.5t20 67t5.5 77.5v451h70v-460v0z" />
    <glyph glyph-name="V" unicode="V" horiz-adv-x="456" 
d="M272 0h-91l-175 708h76l146 -629h2l146 629h74z" />
    <glyph glyph-name="W" unicode="W" horiz-adv-x="728" 
d="M573 0h-92l-116 606h-2l-115 -606h-92l-139 708h71l116 -619h2l118 619h84l120 -619h2l115 619h68z" />
    <glyph glyph-name="X" unicode="X" horiz-adv-x="453" 
d="M369 0l-143 314l-143 -314h-74l179 373l-161 335h74l127 -280l126 280h72l-160 -336l179 -372h-76z" />
    <glyph glyph-name="Y" unicode="Y" horiz-adv-x="422" 
d="M244 291v-291h-68v291l-176 417h76l134 -345l137 345h75z" />
    <glyph glyph-name="Z" unicode="Z" horiz-adv-x="397" 
d="M29 0v60l259 586h-248v62h321v-61l-257 -584h259v-63h-334z" />
    <glyph glyph-name="bracketleft" unicode="[" horiz-adv-x="250" 
d="M40 -156v888h158v-54h-93v-780h93v-54h-158z" />
    <glyph glyph-name="backslash" unicode="\" horiz-adv-x="254" 
d="M66 748l177 -773l-50 -9l-177 772z" />
    <glyph glyph-name="bracketright" unicode="]" horiz-adv-x="250" 
d="M52 -102h93v780h-93v54h158v-888h-158v54z" />
    <glyph glyph-name="asciicircum" unicode="^" horiz-adv-x="666" 
d="M309 708h48l229 -433h-62l-191 361l-191 -361h-62z" />
    <glyph glyph-name="underscore" unicode="_" horiz-adv-x="500" 
d="M0 -75h500v-50h-500v50z" />
    <glyph glyph-name="grave" unicode="`" horiz-adv-x="225" 
d="M106 569l-106 144h72l90 -144h-56z" />
    <glyph glyph-name="a" unicode="a" horiz-adv-x="404" 
d="M285 0q-1 8 -1.5 20t-1 25.5t-0.5 26v21.5h-2q-25 -106 -120 -106q-21 0 -42 8t-38 26t-28 45.5t-11 66.5q0 54 19 87t48 52t63.5 25.5t65.5 6.5h39v26q0 65 -24 95t-65 30q-28 0 -52 -15t-41 -38l-35 41q23 33 60 51t74 18q78 0 111 -51t33 -149v-206q0 -10 0.5 -25
t1 -30.5t1.5 -29t2 -21.5h-57zM277 252h-40q-24 0 -48 -4.5t-42.5 -17t-30.5 -34.5t-12 -57q0 -52 23 -75t50 -23q28 0 47.5 17t31 43t16.5 57t5 60v34z" />
    <glyph glyph-name="b" unicode="b" horiz-adv-x="466" 
d="M419 250q0 -58 -10.5 -106.5t-30.5 -84t-49 -55.5t-67 -20q-51 0 -79 29.5t-40 75.5h-2v-89h-64v756h66v-345h1q12 45 42.5 73t75.5 28q38 0 67.5 -19.5t49.5 -54t30 -82.5t10 -106zM351 248q0 43 -6 81t-19 66t-32.5 44t-46.5 16q-26 0 -46 -16t-33.5 -44t-20 -66
t-6.5 -81q0 -44 6.5 -81.5t20 -65t33 -43.5t46.5 -16t46.5 16t32.5 43.5t19 65t6 81.5z" />
    <glyph glyph-name="c" unicode="c" horiz-adv-x="336" 
d="M328 35q-40 -51 -110 -51q-42 0 -74 19.5t-53.5 54t-32.5 83t-11 107.5t11 107.5t33 83.5t54 54t74 19q38 0 65 -14t43 -33l-35 -48q-12 17 -30 27t-42 10q-27 0 -46.5 -15.5t-32.5 -43t-19.5 -65t-6.5 -82.5q0 -44 6.5 -81t19.5 -64t33.5 -42t48.5 -15q25 0 43.5 10.5
t31.5 29.5l30 -51v0z" />
    <glyph glyph-name="d" unicode="d" horiz-adv-x="466" 
d="M325 0v89h-2q-12 -45 -40 -75t-79 -30q-38 0 -67 20t-49 55.5t-30.5 84t-10.5 106.5t10 106t29.5 82.5t49 54t67.5 19.5q45 0 76 -27.5t42 -72.5h2v344h66v-756h-64zM325 248q0 44 -6.5 82t-20 65.5t-33.5 43.5t-46 16q-27 0 -46.5 -16t-32.5 -43.5t-19 -65.5t-6 -82
q0 -43 6 -80.5t19 -65.5t32.5 -44t46.5 -16t46.5 16t33 44t20 65.5t6.5 80.5z" />
    <glyph glyph-name="e" unicode="e" horiz-adv-x="423" 
d="M114 234q0 -41 7 -75.5t20.5 -60t34 -40t48.5 -14.5q36 0 58 22t34 53l50 -29q-18 -45 -53.5 -75.5t-90.5 -30.5q-83 0 -129 70t-46 193q0 58 12 107t34.5 84t55 54.5t72.5 19.5q44 0 74.5 -19t49.5 -52t27.5 -77t8.5 -94v-36h-267zM314 289q0 75 -23 120.5t-72 45.5
q-29 0 -48.5 -17.5t-32 -43t-18 -54.5t-5.5 -51h199z" />
    <glyph glyph-name="f" unicode="f" horiz-adv-x="237" 
d="M245 711q-15 5 -29 5q-20 0 -33.5 -10t-21.5 -26t-11 -36.5t-3 -42.5v-105h84v-54h-84v-442h-65v442h-67v54h67v105q0 76 30.5 123.5t96.5 47.5q23 0 41 -6z" />
    <glyph glyph-name="g" unicode="g" horiz-adv-x="466" 
d="M389 7q0 -53 -8.5 -98t-28.5 -78t-54 -52t-85 -19q-49 0 -91.5 22.5t-68.5 60.5l43 46q20 -31 50.5 -50t68.5 -19q33 0 54.5 14t33.5 39t17 59t5 75v82h-2q-12 -45 -40 -75t-79 -30q-38 0 -67 20t-49 55.5t-30.5 84t-10.5 106.5t10 106t29.5 82.5t49 54t67.5 19.5
q45 0 76.5 -27.5t42.5 -72.5h3v84h64v-489zM325 248q0 43 -6.5 81t-20 66t-33.5 44t-46 16q-27 0 -46.5 -16t-32.5 -43.5t-19 -65.5t-6 -82q0 -43 6 -80.5t19 -65.5t32.5 -44t46.5 -16t46.5 16t33 43.5t20 65t6.5 81.5z" />
    <glyph glyph-name="h" unicode="h" horiz-adv-x="467" 
d="M327 0v320q0 23 -2.5 46.5t-10.5 43t-23.5 32t-40.5 12.5t-44.5 -13.5t-33.5 -37t-21.5 -54t-7.5 -63.5v-286h-66v756h66v-354h2q13 48 45 79t80 31q40 0 64.5 -17t37.5 -44.5t17.5 -62t4.5 -68.5v-320h-67z" />
    <glyph glyph-name="i" unicode="i" horiz-adv-x="220" 
d="M154 648q0 -21 -13 -34.5t-31 -13.5q-19 0 -31.5 13.5t-12.5 34.5q0 20 12.5 34t31.5 14t31.5 -14t12.5 -34zM77 0v496h66v-496h-66z" />
    <glyph glyph-name="j" unicode="j" horiz-adv-x="221" 
d="M155 648q0 -21 -12.5 -34.5t-31.5 -13.5q-18 0 -30.5 13.5t-12.5 34.5q0 20 12.5 34t30.5 14q19 0 31.5 -14t12.5 -34zM145 -73q0 -76 -29 -121.5t-98 -45.5q-8 0 -18.5 1.5t-20.5 4.5l6 60q15 -5 29 -5q20 0 32.5 9t20 24t10 35t2.5 42v565h66v-569z" />
    <glyph glyph-name="k" unicode="k" horiz-adv-x="400" 
d="M315 0l-170 250h-2v-250h-66v756h66v-479h2l160 219h79l-178 -230l189 -266h-80z" />
    <glyph glyph-name="l" unicode="l" horiz-adv-x="220" 
d="M77 0v756h66v-756h-66z" />
    <glyph glyph-name="m" unicode="m" horiz-adv-x="713" 
d="M147 399q11 50 42.5 81.5t81.5 31.5q27 0 46.5 -9.5t33 -25t21 -36.5t11.5 -43h2q6 22 17 42.5t27.5 36.5t38 25.5t48.5 9.5q40 0 64 -17t37.5 -44.5t18 -62t4.5 -68.5v-320h-67v320q0 23 -2.5 46.5t-10.5 43t-23.5 32t-41.5 12.5q-24 0 -43.5 -13.5t-32.5 -37t-20 -54
t-7 -63.5v-286h-66v320q0 23 -2.5 47t-10 43.5t-23 31.5t-40.5 12t-44 -13.5t-32.5 -37t-20.5 -54t-7 -63.5v-286h-65v371q0 16 -0.5 34.5t-1 36t-1 32t-1.5 22.5h64q2 -19 3 -46t1 -51h2v0z" />
    <glyph glyph-name="n" unicode="n" 
d="M331 0v320q0 23 -2.5 46.5t-11 43t-24 32t-40.5 12.5t-44.5 -13.5t-33 -37t-21 -54t-7.5 -63.5v-286h-66v371q0 16 -0.5 34.5t-1 36t-1 32t-1.5 22.5h64q2 -19 3 -46t1 -51h2q14 50 46 81.5t80 31.5q40 0 64.5 -17t37.5 -44.5t17.5 -62t4.5 -68.5v-320h-66z" />
    <glyph glyph-name="o" unicode="o" horiz-adv-x="440" 
d="M393 247q0 -59 -12 -107t-34 -83t-54.5 -54t-72.5 -19t-72 19t-54.5 54t-34.5 83t-12 107t11.5 108t33.5 84t54.5 54t73.5 19q40 0 72.5 -19t54.5 -54t34 -84t12 -108zM325 248q0 44 -6.5 82t-19.5 65.5t-32.5 43.5t-46.5 16t-47 -16t-32.5 -43.5t-19 -65.5t-6.5 -82
t6.5 -81t19 -65t32.5 -43.5t47 -15.5t47 15.5t32.5 43.5t19 65t6.5 81z" />
    <glyph glyph-name="p" unicode="p" horiz-adv-x="466" 
d="M419 247q0 -58 -10 -106t-30 -83t-49 -54.5t-68 -19.5q-45 0 -75.5 28t-42.5 73h-1v-325h-66v736h64v-89h2q12 46 40 75.5t79 29.5q37 0 66.5 -20t49.5 -55t30.5 -83.5t10.5 -106.5zM351 249q0 43 -6 80.5t-19 65.5t-32.5 44t-46.5 16t-46.5 -16t-33 -44t-20 -65.5
t-6.5 -80.5q0 -44 6.5 -82t20 -65.5t33.5 -43.5t46 -16q27 0 46.5 16t32.5 43.5t19 65.5t6 82z" />
    <glyph glyph-name="q" unicode="q" horiz-adv-x="466" 
d="M323 -240v325h-2q-11 -45 -41.5 -73t-75.5 -28q-38 0 -67.5 19.5t-49.5 54.5t-30 83t-10 106t10.5 106.5t30 83.5t48.5 55t67 20q51 0 79.5 -29t40.5 -75h2v88h64v-736h-66zM325 249q0 43 -6.5 81t-20 65.5t-33 43.5t-46.5 16t-46.5 -16t-32.5 -43.5t-19 -65.5t-6 -81
q0 -44 6 -81.5t19 -65.5t32.5 -44t46.5 -16q26 0 46 16t33.5 44t20 65.5t6.5 81.5z" />
    <glyph glyph-name="r" unicode="r" horiz-adv-x="274" 
d="M147 388q14 65 43 94t66 29q8 0 12 -1l-2 -68q-4 1 -7.5 1.5t-8.5 0.5q-25 0 -44.5 -17t-32.5 -44t-19.5 -61.5t-6.5 -68.5v-253h-66v371q0 16 -0.5 34.5t-1 36t-1 32t-1.5 22.5h64q2 -19 3 -47.5t1 -60.5h2v0z" />
    <glyph glyph-name="s" unicode="s" horiz-adv-x="340" 
d="M266 410q-13 22 -33.5 35.5t-49.5 13.5q-32 0 -52.5 -23.5t-20.5 -61.5q0 -40 20 -58t60 -33q20 -8 40 -19.5t35.5 -28.5t25.5 -40.5t10 -56.5q0 -73 -39.5 -113.5t-102.5 -40.5q-42 0 -77 19.5t-58 52.5l40 43q17 -26 40.5 -42.5t55.5 -16.5q35 0 56.5 25.5t21.5 67.5
q0 24 -8 40.5t-21 27.5t-29.5 19t-34.5 15q-19 7 -36.5 17t-31.5 26t-22.5 38.5t-8.5 54.5q0 31 10.5 57t29.5 44.5t43.5 29t53.5 10.5q42 0 72.5 -16.5t49.5 -42.5z" />
    <glyph glyph-name="t" unicode="t" horiz-adv-x="250" 
d="M238 0q-11 -5 -27 -9t-33 -4q-52 0 -73.5 36t-21.5 96v323h-65v54h64v137h65v-137h88v-54h-88v-311q0 -45 13 -65.5t39 -20.5q9 0 19 2.5t17 5.5l3 -53v0z" />
    <glyph glyph-name="u" unicode="u" 
d="M139 496v-320q0 -23 2.5 -46.5t11 -43t23.5 -32t41 -12.5q25 0 44.5 13.5t33 37t21 54t7.5 63.5v286h66v-371q0 -16 0.5 -34.5t1 -36t1 -32.5t1.5 -22h-64q-2 19 -3 46t-1 51h-2q-14 -50 -46 -81.5t-80 -31.5q-40 0 -64.5 17t-37.5 44.5t-17.5 61.5t-4.5 69v320h66z" />
    <glyph glyph-name="v" unicode="v" horiz-adv-x="375" 
d="M228 0h-78l-133 496h70l103 -426h2l98 426h68z" />
    <glyph glyph-name="w" unicode="w" horiz-adv-x="575" 
d="M448 0h-78l-84 403h-1l-85 -403h-75l-101 496h67l76 -420h1l87 420h64l88 -420h1l76 420h67z" />
    <glyph glyph-name="x" unicode="x" horiz-adv-x="378" 
d="M287 0l-99 208l-98 -208h-73l132 261l-121 235h74l87 -187l86 187h72l-119 -234l134 -262h-75z" />
    <glyph glyph-name="y" unicode="y" horiz-adv-x="375" 
d="M202 -105q-8 -32 -18.5 -57t-25.5 -42t-34.5 -26.5t-46.5 -9.5q-14 0 -28 2.5t-23 5.5l9 59q7 -2 17 -4t20 -2q29 0 43.5 20t23.5 55l22 86l-144 514h70l107 -419h2l95 419h67z" />
    <glyph glyph-name="z" unicode="z" horiz-adv-x="333" 
d="M26 0v58l207 381h-191v57h260v-56l-206 -383h207v-57h-277z" />
    <glyph glyph-name="braceleft" unicode="{" horiz-adv-x="250" 
d="M155 -156q-52 0 -76 36t-24 105v175q0 60 -15.5 79.5t-39.5 19.5v58q24 0 39.5 19.5t15.5 79.5v175q0 69 24 105t76 36h51v-54h-35q-32 0 -43 -24.5t-11 -65.5v-181q0 -31 -5.5 -52.5t-14.5 -35t-20.5 -21t-22.5 -9.5v-2q11 -2 22.5 -9.5t20.5 -21t14.5 -35t5.5 -52.5
v-181q0 -41 11 -65.5t43 -24.5h35v-54h-51z" />
    <glyph glyph-name="bar" unicode="|" horiz-adv-x="222" 
d="M141 750v-1000h-60v1000h60z" />
    <glyph glyph-name="braceright" unicode="}" horiz-adv-x="250" 
d="M44 -102h35q32 0 43 24.5t11 65.5v181q0 31 5.5 52.5t14.5 35t20.5 21t22.5 9.5v2q-11 2 -22.5 9.5t-20.5 21t-14.5 35t-5.5 52.5v181q0 41 -11 65.5t-43 24.5h-35v54h51q52 0 76 -36t24 -105v-175q0 -60 15.5 -79.5t39.5 -19.5v-58q-24 0 -39.5 -19.5t-15.5 -79.5v-175
q0 -69 -24 -105t-76 -36h-51v54z" />
    <glyph glyph-name="asciitilde" unicode="~" horiz-adv-x="666" 
d="M577 328q-10 -16 -23.5 -32.5t-30.5 -30t-37.5 -22t-44.5 -8.5q-14 0 -26.5 1.5t-25.5 5.5t-27 11t-32 18q-31 20 -54 30t-49 10q-17 0 -32 -7t-27 -17.5t-21 -23.5t-16 -25l-42 40q11 16 24.5 32.5t30 30t37 22t44.5 8.5q28 0 53.5 -7.5t56.5 -27.5q29 -19 54 -30
t49 -11q17 0 32 7t27 18t21.5 24t16.5 24z" />
    <glyph glyph-name="uni00A0" unicode="&#xa0;" horiz-adv-x="185" 
 />
    <glyph glyph-name="exclamdown" unicode="&#xa1;" horiz-adv-x="294" 
d="M180 294v-497h-67v497h67zM100 462q0 21 13.5 35.5t33.5 14.5t33 -14.5t13 -35.5t-13 -35.5t-33 -14.5t-33.5 14.5t-13.5 35.5z" />
    <glyph glyph-name="cent" unicode="&#xa2;" 
d="M389 49q-17 -26 -46 -42t-66 -17v-62h-39v62q-41 3 -72 23t-51.5 54t-31 80t-10.5 100t10.5 100t31 80.5t51.5 55t72 23.5v67h39v-67q38 -1 66 -14t45 -31l-31 -51q-12 14 -32 24.5t-48 12.5v-400q29 1 49 14.5t34 33.5zM239 447q-28 -3 -48 -20t-32.5 -44.5t-18.5 -62.5
t-6 -73t6 -72.5t18.5 -61.5t32.5 -44t48 -20v398z" />
    <glyph glyph-name="sterling" unicode="&#xa3;" 
d="M390 634q-12 13 -31.5 22t-46.5 9q-33 0 -55 -14.5t-35 -37.5t-18 -53t-5 -61v-105h135v-52h-135v-281h203v-61h-366v61h95v281h-87v52h87v113q0 42 10 82t32 70.5t55.5 49t81.5 18.5q41 0 70.5 -13.5t46.5 -29.5z" />
    <glyph glyph-name="currency" unicode="&#xa4;" 
d="M385 431q17 -29 27 -65t10 -81t-10.5 -83.5t-29.5 -67.5l68 -86l-31 -40l-69 87q-23 -22 -52 -34.5t-62 -12.5q-64 0 -115 49l-70 -89l-32 40l70 89q-38 56 -38 148q0 85 35 144l-67 85l32 39l67 -84q24 23 53.5 36.5t64.5 13.5q68 0 116 -50l67 84l31 -39zM236 457
q-30 0 -53.5 -13.5t-39.5 -37t-24 -55t-8 -66.5q0 -36 8 -67.5t24 -55.5t39.5 -37.5t53.5 -13.5t53.5 13.5t39 37.5t24 55.5t8.5 67.5q0 35 -8.5 66.5t-24 55t-39 37t-53.5 13.5z" />
    <glyph glyph-name="yen" unicode="&#xa5;" 
d="M295 384h116v-48h-144v-111h144v-48h-144v-177h-67v177h-143v48h143v111h-143v49h119l-150 323h71l139 -323l138 323h69z" />
    <glyph glyph-name="brokenbar" unicode="&#xa6;" horiz-adv-x="222" 
d="M141 675v-350h-60v350h60zM141 175v-350h-60v350h60z" />
    <glyph glyph-name="section" unicode="&#xa7;" horiz-adv-x="480" 
d="M356 282q0 23 -8 39.5t-22 29t-32.5 22.5t-39.5 20l-40 19q-16 -3 -32.5 -10.5t-29.5 -20.5t-21.5 -31.5t-8.5 -42.5q0 -25 7.5 -42t21 -29.5t30.5 -21.5t37 -17l45 -18q17 2 33.5 9.5t30 20t21.5 31t8 42.5zM185 148q-31 13 -54.5 27t-39 32t-23.5 41.5t-8 55.5
q0 29 10 52t25 40t34 28t37 17q-38 21 -60.5 49t-22.5 80q0 36 13.5 65t37 50t55.5 32t69 11q103 0 150 -70l-42 -40q-16 26 -45 40t-64 14q-20 0 -39.5 -6t-35 -19t-25 -32.5t-9.5 -46.5q0 -23 8.5 -39t22.5 -28t33.5 -22.5t41.5 -20.5l30 -14q62 -29 97 -64.5t35 -93.5
q0 -30 -9 -53t-24 -40t-34.5 -27.5t-39.5 -15.5q38 -20 61.5 -51t23.5 -76q0 -42 -15 -72.5t-40 -50.5t-56.5 -29.5t-64.5 -9.5q-51 0 -96 19.5t-74 54.5l40 46q24 -30 58 -46.5t72 -16.5q45 0 78 25t33 76q0 45 -30.5 69.5t-78.5 44.5z" />
    <glyph glyph-name="dieresis" unicode="&#xa8;" horiz-adv-x="225" 
d="M226 648q0 -20 -12 -32.5t-30 -12.5q-17 0 -29.5 12.5t-12.5 32.5q0 19 12.5 32t29.5 13q18 0 30 -13t12 -32zM83 648q0 -20 -12.5 -32.5t-29.5 -12.5q-19 0 -30.5 12.5t-11.5 32.5q0 19 11.5 32t30.5 13q17 0 29.5 -13t12.5 -32z" />
    <glyph glyph-name="copyright" unicode="&#xa9;" horiz-adv-x="640" 
d="M435 190q-17 -27 -43 -43.5t-61 -16.5q-36 0 -64 16.5t-48 46.5t-30.5 71.5t-10.5 92.5t10.5 93t30 71.5t47.5 46t64 16.5q35 0 61.5 -14.5t42.5 -40.5l-40 -45q-20 39 -66 39q-21 0 -36.5 -12.5t-26 -35t-15.5 -53t-5 -65.5t5 -64.5t15.5 -52t26 -35t36.5 -12.5
q23 0 39 11t27 31zM320 -20q-63 0 -115.5 26t-90 75t-58 118.5t-20.5 155.5t20.5 155.5t58 118t90 75t115.5 26.5t115 -26.5t89.5 -75t58.5 -118t21 -155.5t-21 -155.5t-58.5 -118.5t-89.5 -75t-115 -26zM320 686q-54 0 -97 -25t-73 -69t-46 -104.5t-16 -132.5t16 -132.5
t46 -104.5t73 -69t97 -25t97 25t73 69t46 104.5t16 132.5t-16 132.5t-46 104.5t-73 69t-97 25z" />
    <glyph glyph-name="ordfeminine" unicode="&#xaa;" horiz-adv-x="300" 
d="M201 411q-2 11 -3 25t-1 24h-1q-7 -27 -24 -42.5t-47 -15.5q-12 0 -25 5t-23.5 15.5t-17.5 27.5t-7 41q0 32 11.5 52.5t29.5 32.5t39 16.5t41 4.5h20v13q0 35 -13.5 51t-36.5 16q-17 0 -31 -8t-24 -22l-26 31q15 20 39 31.5t47 11.5q52 0 71.5 -33t19.5 -93v-122
q0 -11 0.5 -28.5t2.5 -33.5h-41zM194 558h-22q-14 0 -26.5 -2.5t-23 -9.5t-16.5 -18.5t-6 -30.5q0 -27 11.5 -40t27.5 -13q15 0 25.5 9.5t17 23.5t9.5 31.5t3 32.5v17z" />
    <glyph glyph-name="guillemotleft" unicode="&#xab;" horiz-adv-x="348" 
d="M135 462l45 -25l-88 -188l88 -188l-45 -25l-101 213zM269 462l45 -25l-88 -188l88 -188l-45 -25l-101 213z" />
    <glyph glyph-name="logicalnot" unicode="&#xac;" horiz-adv-x="666" 
d="M588 130h-60v218h-450v60h510v-278z" />
    <glyph glyph-name="uni00AD" unicode="&#xad;" horiz-adv-x="226" 
d="M38 235v56h150v-56h-150z" />
    <glyph glyph-name="registered" unicode="&#xae;" horiz-adv-x="480" 
d="M283 372l-38 106h-32v-106h-40v255h74q30 0 51.5 -17.5t21.5 -57.5q0 -27 -11 -43t-26 -23l44 -114h-44zM278 550q0 21 -10.5 30.5t-26.5 9.5h-28v-83h28q16 0 26.5 10.5t10.5 32.5zM240 274q-38 0 -69 15.5t-53.5 45t-35 71t-12.5 93.5t12.5 93.5t35 70.5t53.5 45t69 16
t69 -16t53.5 -45t35 -70.5t12.5 -93.5t-12.5 -93.5t-35 -71t-53.5 -45t-69 -15.5zM240 698q-32 0 -58 -15t-44 -41.5t-27.5 -63t-9.5 -79.5t9.5 -79.5t27.5 -63t44 -41.5t58 -15t58 15t44 41.5t27.5 63t9.5 79.5t-9.5 79.5t-27.5 63t-44 41.5t-58 15z" />
    <glyph glyph-name="macron" unicode="&#xaf;" horiz-adv-x="225" 
d="M-12 614v52h249v-52h-249z" />
    <glyph glyph-name="degree" unicode="&#xb0;" horiz-adv-x="320" 
d="M278 566q0 -30 -8 -59t-23 -51t-37 -35.5t-50 -13.5q-29 0 -51 13.5t-37 35.5t-23 51t-8 59q0 31 8 59t23 50t37 35t51 13q28 0 50 -13t37 -35t23 -50t8 -59zM235 566q0 24 -5.5 45.5t-15.5 37t-24 24.5t-30 9q-33 0 -54 -33.5t-21 -82.5q0 -51 21 -84.5t54 -33.5
q32 0 53.5 33.5t21.5 84.5z" />
    <glyph glyph-name="plusminus" unicode="&#xb1;" horiz-adv-x="666" 
d="M78 407h225v156h60v-156h225v-60h-225v-151h-60v151h-225v60zM78 108h510v-60h-510v60z" />
    <glyph glyph-name="twosuperior" unicode="&#xb2;" horiz-adv-x="314" 
d="M280 600q0 -41 -20.5 -74.5t-49.5 -71.5l-98 -126h161v-53h-230v55l127 165q22 28 34 52.5t12 49.5q0 29 -13.5 50t-42.5 21q-24 0 -40.5 -16.5t-20.5 -48.5l-61 6q9 55 42 83t84 28q57 0 86.5 -34.5t29.5 -85.5z" />
    <glyph glyph-name="threesuperior" unicode="&#xb3;" horiz-adv-x="314" 
d="M291 399q0 -27 -9 -50.5t-25.5 -41.5t-40.5 -28t-53 -10q-48 0 -81 23.5t-46 68.5l55 14q8 -23 25 -38.5t45 -15.5q18 0 31 7.5t21.5 19t12.5 25.5t4 28q0 39 -22.5 58.5t-58.5 19.5h-16v48h17q32 0 51 19.5t19 54.5q0 24 -14 46.5t-45 22.5q-20 0 -34 -11.5t-22 -30.5
l-55 16q15 41 47 59.5t67 18.5q51 0 83 -31t32 -82q0 -37 -17.5 -66.5t-49.5 -37.5v-1q35 -8 57 -35.5t22 -69.5z" />
    <glyph glyph-name="acute" unicode="&#xb4;" horiz-adv-x="225" 
d="M119 569h-56l90 144h72z" />
    <glyph glyph-name="mu" unicode="&#xb5;" horiz-adv-x="556" 
d="M72 468h66v-259q0 -86 27.5 -123.5t99.5 -37.5q30 0 56 12t45 35t30 56.5t11 76.5v240h66v-365q0 -26 1.5 -51.5t3.5 -51.5h-71v76h-2q-11 -18 -28 -34t-38 -28t-44.5 -19t-46.5 -7q-69 0 -110 29v-245h-66v696z" />
    <glyph glyph-name="paragraph" unicode="&#xb6;" horiz-adv-x="600" 
d="M513 -126h-66v780h-124v-780h-66v442q-46 0 -84.5 14.5t-66 39.5t-43 59t-15.5 73q0 98 61 152t167 54h237v-834z" />
    <glyph glyph-name="periodcentered" unicode="&#xb7;" horiz-adv-x="217" 
d="M155 260q0 -22 -13.5 -36t-33.5 -14t-33 14t-13 36q0 20 13 35t33 15t33.5 -15t13.5 -35z" />
    <glyph glyph-name="cedilla" unicode="&#xb8;" horiz-adv-x="225" 
d="M102 -75q12 4 32 4q27 0 51 -17t24 -53q0 -25 -10 -42t-25.5 -27t-35 -14t-37.5 -4q-19 0 -42.5 4t-43.5 14l15 36q15 -8 32 -11t34 -3q7 0 17 2t19 7.5t15.5 14t6.5 20.5q0 20 -13 29.5t-36 9.5q-21 0 -40 -8l-16 15l57 98h39z" />
    <glyph glyph-name="onesuperior" unicode="&#xb9;" horiz-adv-x="314" 
d="M157 274v368l-85 -57l-29 45l118 78h56v-434h-60z" />
    <glyph glyph-name="ordmasculine" unicode="&#xba;" horiz-adv-x="300" 
d="M261 561q0 -72 -29.5 -116t-80.5 -44t-79.5 44t-28.5 116t28.5 116.5t79.5 44.5t80.5 -44.5t29.5 -116.5zM208 562q0 49 -14 82t-43 33t-42.5 -33t-13.5 -82q0 -50 13.5 -83t42.5 -33q30 0 43.5 33t13.5 83z" />
    <glyph glyph-name="guillemotright" unicode="&#xbb;" horiz-adv-x="348" 
d="M213 36l-45 25l88 188l-88 188l45 25l101 -213zM79 36l-45 25l88 188l-88 188l45 25l101 -213z" />
    <glyph glyph-name="onequarter" unicode="&#xbc;" horiz-adv-x="728" 
d="M625 98v-98h-56v98h-163v54l139 282h80v-285h52v-51h-52zM570 377h-1l-107 -228h108v228zM253 -23l-49 15l278 745l48 -15zM157 274v368l-85 -57l-29 45l118 78h56v-434h-60z" />
    <glyph glyph-name="onehalf" unicode="&#xbd;" horiz-adv-x="728" 
d="M689 326q0 -41 -20.5 -74.5t-49.5 -72.5l-100 -130h163v-49h-226v51l126 166q23 29 35 54.5t12 51.5q0 30 -14 51.5t-44 21.5q-25 0 -41.5 -17t-21.5 -49l-56 6q9 54 41.5 81t81.5 27q56 0 85 -34t29 -84zM253 -23l-49 15l278 745l48 -15zM157 274v368l-85 -57l-29 45
l118 78h56v-434h-60z" />
    <glyph glyph-name="threequarters" unicode="&#xbe;" horiz-adv-x="728" 
d="M625 98v-98h-56v98h-163v54l139 282h80v-285h52v-51h-52zM570 377h-1l-107 -228h108v228zM291 399q0 -27 -9 -50.5t-25.5 -41.5t-40.5 -28t-53 -10q-48 0 -81 23.5t-46 68.5l55 14q8 -23 25 -38.5t45 -15.5q18 0 31 7.5t21.5 19t12.5 25.5t4 28q0 39 -22.5 58.5
t-58.5 19.5h-16v48h17q32 0 51 19.5t19 54.5q0 24 -14 46.5t-45 22.5q-20 0 -34 -11.5t-22 -30.5l-55 16q15 41 47 59.5t67 18.5q51 0 83 -31t32 -82q0 -37 -17.5 -66.5t-49.5 -37.5v-1q35 -8 57 -35.5t22 -69.5zM253 -23l-49 15l278 745l48 -15z" />
    <glyph glyph-name="questiondown" unicode="&#xbf;" horiz-adv-x="368" 
d="M19 -48q0 31 6.5 55.5t18 44t26 36.5t30.5 33q17 18 28 33.5t17 30.5t8.5 31.5t2.5 36.5v39h58v-49q0 -40 -13.5 -75t-45.5 -71l-22 -26q-20 -23 -34 -48t-14 -65q0 -56 23.5 -87t67.5 -31q22 0 39.5 9.5t30.5 25.5t21 36.5t11 42.5l58 -11q-11 -72 -53 -117t-114 -45
q-69 0 -109.5 44.5t-40.5 126.5zM133 462q0 21 13 35.5t33 14.5t33.5 -14.5t13.5 -35.5t-13.5 -35.5t-33.5 -14.5q-19 0 -32.5 14.5t-13.5 35.5z" />
    <glyph glyph-name="Agrave" unicode="&#xc0;" horiz-adv-x="464" 
d="M384 0l-43 177h-218l-45 -177h-71l180 708h95l175 -708h-73zM235 645h-4l-98 -412h198zM218 764l-106 144h72l90 -144h-56z" />
    <glyph glyph-name="Aacute" unicode="&#xc1;" horiz-adv-x="464" 
d="M384 0l-43 177h-218l-45 -177h-71l180 708h95l175 -708h-73zM235 645h-4l-98 -412h198zM257 764h-56l90 144h72z" />
    <glyph glyph-name="Acircumflex" unicode="&#xc2;" horiz-adv-x="464" 
d="M384 0l-43 177h-218l-45 -177h-71l180 708h95l175 -708h-73zM235 645h-4l-98 -412h198zM306 764l-72 105l-72 -105h-65l103 144h70l102 -144h-66z" />
    <glyph glyph-name="Atilde" unicode="&#xc3;" horiz-adv-x="464" 
d="M384 0l-43 177h-218l-45 -177h-71l180 708h95l175 -708h-73zM235 645h-4l-98 -412h198zM364 880q-3 -49 -21.5 -73.5t-47.5 -24.5q-16 0 -29.5 5t-33.5 19q-23 15 -32.5 19.5t-20.5 4.5q-16 0 -23 -13t-11 -36h-37q3 45 21 73t48 28q18 0 30.5 -5.5t32.5 -18.5
q23 -15 33 -19.5t21 -4.5q16 0 22.5 10.5t10.5 35.5h37z" />
    <glyph glyph-name="Adieresis" unicode="&#xc4;" horiz-adv-x="464" 
d="M384 0l-43 177h-218l-45 -177h-71l180 708h95l175 -708h-73zM235 645h-4l-98 -412h198zM207 843q0 -20 -12.5 -32.5t-29.5 -12.5q-19 0 -30.5 12.5t-11.5 32.5q0 19 11.5 32t30.5 13q17 0 29.5 -13t12.5 -32zM350 843q0 -20 -12 -32.5t-30 -12.5q-17 0 -29.5 12.5
t-12.5 32.5q0 19 12.5 32t29.5 13q18 0 30 -13t12 -32z" />
    <glyph glyph-name="Aring" unicode="&#xc5;" horiz-adv-x="464" 
d="M384 0l-43 177h-218l-45 -177h-71l180 708h95l175 -708h-73zM235 645h-4l-98 -412h198zM329 851q0 -43 -26.5 -72t-67.5 -29q-40 0 -66 29t-26 72q0 44 26 73t66 29q41 0 67.5 -29t26.5 -73zM291 851q0 27 -14.5 47t-41.5 20q-26 0 -40.5 -20t-14.5 -47q0 -26 14.5 -46
t40.5 -20q27 0 41.5 20t14.5 46z" />
    <glyph glyph-name="AE" unicode="&#xc6;" horiz-adv-x="628" 
d="M306 0v174h-177l-62 -174h-74l260 708h324v-62h-206v-249h191v-59h-191v-275h214v-63h-279zM306 647h-9l-149 -416h158v416z" />
    <glyph glyph-name="Ccedilla" unicode="&#xc7;" horiz-adv-x="479" 
d="M461 80q-28 -47 -71 -72t-97 -25l-33 -58q12 4 32 4q27 0 51 -17t24 -53q0 -25 -10 -42t-25.5 -27t-35 -14t-37.5 -4q-19 0 -42.5 4t-43.5 14l15 36q15 -8 32 -11t34 -3q7 0 17 2t19 7.5t15.5 14t6.5 20.5q0 20 -13 29.5t-36 9.5q-21 0 -40 -8l-16 15l49 84
q-49 9 -87.5 40t-64.5 80t-40 112t-14 136q0 80 16.5 148t48 117.5t76.5 77.5t102 28q50 0 93.5 -21t72.5 -66l-45 -46q-23 35 -53.5 52t-64.5 17q-44 0 -76.5 -24t-54 -66t-32 -98t-10.5 -119t11 -118.5t32.5 -97.5t54 -66.5t76.5 -24.5q38 0 69 21.5t51 56.5l44 -45v0z
" />
    <glyph glyph-name="Egrave" unicode="&#xc8;" horiz-adv-x="418" 
d="M81 0v708h285v-62h-217v-249h203v-59h-203v-275h227v-63h-295zM224 764l-106 144h72l90 -144h-56z" />
    <glyph glyph-name="Eacute" unicode="&#xc9;" horiz-adv-x="418" 
d="M81 0v708h285v-62h-217v-249h203v-59h-203v-275h227v-63h-295zM232 764h-56l90 144h72z" />
    <glyph glyph-name="Ecircumflex" unicode="&#xca;" horiz-adv-x="418" 
d="M81 0v708h285v-62h-217v-249h203v-59h-203v-275h227v-63h-295zM295 764l-72 105l-72 -105h-65l103 144h70l102 -144h-66z" />
    <glyph glyph-name="Edieresis" unicode="&#xcb;" horiz-adv-x="418" 
d="M81 0v708h285v-62h-217v-249h203v-59h-203v-275h227v-63h-295zM194 843q0 -20 -12.5 -32.5t-29.5 -12.5q-19 0 -30.5 12.5t-11.5 32.5q0 19 11.5 32t30.5 13q17 0 29.5 -13t12.5 -32zM337 843q0 -20 -12 -32.5t-30 -12.5q-17 0 -29.5 12.5t-12.5 32.5q0 19 12.5 32
t29.5 13q18 0 30 -13t12 -32z" />
    <glyph glyph-name="Igrave" unicode="&#xcc;" horiz-adv-x="232" 
d="M81 0v708h70v-708h-70zM94 764l-106 144h72l90 -144h-56z" />
    <glyph glyph-name="Iacute" unicode="&#xcd;" horiz-adv-x="232" 
d="M81 0v708h70v-708h-70zM139 764h-56l90 144h72z" />
    <glyph glyph-name="Icircumflex" unicode="&#xce;" horiz-adv-x="232" 
d="M81 0v708h70v-708h-70zM188 764l-72 105l-72 -105h-65l103 144h70l102 -144h-66z" />
    <glyph glyph-name="Idieresis" unicode="&#xcf;" horiz-adv-x="232" 
d="M81 0v708h70v-708h-70zM88 843q0 -20 -12.5 -32.5t-29.5 -12.5q-19 0 -30.5 12.5t-11.5 32.5q0 19 11.5 32t30.5 13q17 0 29.5 -13t12.5 -32zM231 843q0 -20 -12 -32.5t-30 -12.5q-17 0 -29.5 12.5t-12.5 32.5q0 19 12.5 32t29.5 13q18 0 30 -13t12 -32z" />
    <glyph glyph-name="Eth" unicode="&#xd0;" horiz-adv-x="540" 
d="M488 354q0 -87 -18.5 -153.5t-52 -111t-81 -67t-105.5 -22.5h-150v341h-62v49h62v318h150q58 0 105.5 -22.5t81.5 -67.5t52 -111t18 -153zM422 354q0 75 -15 130.5t-41 91.5t-61 54t-76 18h-80v-258h142v-49h-142v-281h80q41 0 76 18t61 54.5t41 91.5t15 130z" />
    <glyph glyph-name="Ntilde" unicode="&#xd1;" horiz-adv-x="561" 
d="M396 0l-247 589h-3v-589h-65v708h87l245 -589h3v589h64v-708h-84zM409 880q-3 -49 -21.5 -73.5t-47.5 -24.5q-16 0 -29.5 5t-33.5 19q-23 15 -32.5 19.5t-20.5 4.5q-16 0 -23 -13t-11 -36h-37q3 45 21 73t48 28q18 0 30.5 -5.5t32.5 -18.5q23 -15 33 -19.5t21 -4.5
q16 0 22.5 10.5t10.5 35.5h37z" />
    <glyph glyph-name="Ograve" unicode="&#xd2;" horiz-adv-x="570" 
d="M519 355q0 -83 -16 -151.5t-46 -117.5t-73 -76t-98 -27t-98.5 27t-74 76t-46.5 117.5t-16 151.5q0 82 15.5 150.5t45.5 117t73.5 75.5t100.5 27q55 0 98 -27t73 -75.5t46 -117t16 -150.5zM446 355q0 64 -10 120t-30.5 97t-50.5 65t-69 24q-41 0 -71.5 -24t-50.5 -65
t-30 -97t-10 -120t10 -120t30 -98t50.5 -66t71.5 -24q40 0 70 24t50 66t30 98t10 120zM290 764l-106 144h72l90 -144h-56z" />
    <glyph glyph-name="Oacute" unicode="&#xd3;" horiz-adv-x="570" 
d="M519 355q0 -83 -16 -151.5t-46 -117.5t-73 -76t-98 -27t-98.5 27t-74 76t-46.5 117.5t-16 151.5q0 82 15.5 150.5t45.5 117t73.5 75.5t100.5 27q55 0 98 -27t73 -75.5t46 -117t16 -150.5zM446 355q0 64 -10 120t-30.5 97t-50.5 65t-69 24q-41 0 -71.5 -24t-50.5 -65
t-30 -97t-10 -120t10 -120t30 -98t50.5 -66t71.5 -24q40 0 70 24t50 66t30 98t10 120zM284 764h-56l90 144h72z" />
    <glyph glyph-name="Ocircumflex" unicode="&#xd4;" horiz-adv-x="570" 
d="M519 355q0 -83 -16 -151.5t-46 -117.5t-73 -76t-98 -27t-98.5 27t-74 76t-46.5 117.5t-16 151.5q0 82 15.5 150.5t45.5 117t73.5 75.5t100.5 27q55 0 98 -27t73 -75.5t46 -117t16 -150.5zM446 355q0 64 -10 120t-30.5 97t-50.5 65t-69 24q-41 0 -71.5 -24t-50.5 -65
t-30 -97t-10 -120t10 -120t30 -98t50.5 -66t71.5 -24q40 0 70 24t50 66t30 98t10 120zM357 764l-72 105l-72 -105h-65l103 144h70l102 -144h-66z" />
    <glyph glyph-name="Otilde" unicode="&#xd5;" horiz-adv-x="570" 
d="M519 355q0 -83 -16 -151.5t-46 -117.5t-73 -76t-98 -27t-98.5 27t-74 76t-46.5 117.5t-16 151.5q0 82 15.5 150.5t45.5 117t73.5 75.5t100.5 27q55 0 98 -27t73 -75.5t46 -117t16 -150.5zM446 355q0 64 -10 120t-30.5 97t-50.5 65t-69 24q-41 0 -71.5 -24t-50.5 -65
t-30 -97t-10 -120t10 -120t30 -98t50.5 -66t71.5 -24q40 0 70 24t50 66t30 98t10 120zM413 880q-3 -49 -21.5 -73.5t-47.5 -24.5q-16 0 -29.5 5t-33.5 19q-23 15 -32.5 19.5t-20.5 4.5q-16 0 -23 -13t-11 -36h-37q3 45 21 73t48 28q18 0 30.5 -5.5t32.5 -18.5
q23 -15 33 -19.5t21 -4.5q16 0 22.5 10.5t10.5 35.5h37z" />
    <glyph glyph-name="Odieresis" unicode="&#xd6;" horiz-adv-x="570" 
d="M519 355q0 -83 -16 -151.5t-46 -117.5t-73 -76t-98 -27t-98.5 27t-74 76t-46.5 117.5t-16 151.5q0 82 15.5 150.5t45.5 117t73.5 75.5t100.5 27q55 0 98 -27t73 -75.5t46 -117t16 -150.5zM446 355q0 64 -10 120t-30.5 97t-50.5 65t-69 24q-41 0 -71.5 -24t-50.5 -65
t-30 -97t-10 -120t10 -120t30 -98t50.5 -66t71.5 -24q40 0 70 24t50 66t30 98t10 120zM256 843q0 -20 -12.5 -32.5t-29.5 -12.5q-19 0 -30.5 12.5t-11.5 32.5q0 19 11.5 32t30.5 13q17 0 29.5 -13t12.5 -32zM399 843q0 -20 -12 -32.5t-30 -12.5q-17 0 -29.5 12.5t-12.5 32.5
q0 19 12.5 32t29.5 13q18 0 30 -13t12 -32z" />
    <glyph glyph-name="multiply" unicode="&#xd7;" horiz-adv-x="666" 
d="M333 346l158 159l43 -42l-159 -160l159 -159l-43 -43l-158 159l-159 -159l-42 43l159 159l-159 160l42 42z" />
    <glyph glyph-name="Oslash" unicode="&#xd8;" horiz-adv-x="569" 
d="M452 630q32 -50 49.5 -119.5t17.5 -155.5q0 -83 -16 -151.5t-46 -117.5t-73 -76t-98 -27q-82 0 -139 59l-37 -75l-44 21l50 94q-32 49 -48.5 118.5t-16.5 154.5q0 82 15.5 150.5t45.5 117t73.5 75.5t100.5 27q80 0 135 -57l34 72l42 -21zM446 355q0 59 -8.5 110.5
t-25.5 92.5l-230 -452q20 -28 45.5 -43.5t58.5 -15.5q40 0 70 24t50 66t30 98t10 120zM124 355q0 -60 8.5 -112t25.5 -94l228 455q-19 27 -44 42t-56 15q-41 0 -71.5 -24t-50.5 -65t-30 -97t-10 -120z" />
    <glyph glyph-name="Ugrave" unicode="&#xd9;" horiz-adv-x="550" 
d="M477 248q0 -55 -10.5 -103.5t-34 -84.5t-62.5 -56.5t-96 -20.5t-95.5 20.5t-62 56.5t-33.5 84.5t-10 103.5v460h70v-451q0 -39 5.5 -77t20 -67.5t40 -47.5t66.5 -18q40 0 66 18t40.5 47.5t20 67t5.5 77.5v451h70v-460zM270 764l-106 144h72l90 -144h-56z" />
    <glyph glyph-name="Uacute" unicode="&#xda;" horiz-adv-x="550" 
d="M477 248q0 -55 -10.5 -103.5t-34 -84.5t-62.5 -56.5t-96 -20.5t-95.5 20.5t-62 56.5t-33.5 84.5t-10 103.5v460h70v-451q0 -39 5.5 -77t20 -67.5t40 -47.5t66.5 -18q40 0 66 18t40.5 47.5t20 67t5.5 77.5v451h70v-460zM281 764h-56l90 144h72z" />
    <glyph glyph-name="Ucircumflex" unicode="&#xdb;" horiz-adv-x="550" 
d="M477 248q0 -55 -10.5 -103.5t-34 -84.5t-62.5 -56.5t-96 -20.5t-95.5 20.5t-62 56.5t-33.5 84.5t-10 103.5v460h70v-451q0 -39 5.5 -77t20 -67.5t40 -47.5t66.5 -18q40 0 66 18t40.5 47.5t20 67t5.5 77.5v451h70v-460zM347 764l-72 105l-72 -105h-65l103 144h70l102 -144
h-66z" />
    <glyph glyph-name="Udieresis" unicode="&#xdc;" horiz-adv-x="550" 
d="M477 248q0 -55 -10.5 -103.5t-34 -84.5t-62.5 -56.5t-96 -20.5t-95.5 20.5t-62 56.5t-33.5 84.5t-10 103.5v460h70v-451q0 -39 5.5 -77t20 -67.5t40 -47.5t66.5 -18q40 0 66 18t40.5 47.5t20 67t5.5 77.5v451h70v-460zM247 843q0 -20 -12.5 -32.5t-29.5 -12.5
q-19 0 -30.5 12.5t-11.5 32.5q0 19 11.5 32t30.5 13q17 0 29.5 -13t12.5 -32zM390 843q0 -20 -12 -32.5t-30 -12.5q-17 0 -29.5 12.5t-12.5 32.5q0 19 12.5 32t29.5 13q18 0 30 -13t12 -32z" />
    <glyph glyph-name="Yacute" unicode="&#xdd;" horiz-adv-x="422" 
d="M244 291v-291h-68v291l-176 417h76l134 -345l137 345h75zM223 764h-56l90 144h72z" />
    <glyph glyph-name="Thorn" unicode="&#xde;" horiz-adv-x="486" 
d="M94 708h69v-155h69q97 0 151.5 -46.5t54.5 -142.5t-55.5 -143t-152.5 -47h-67v-174h-69v708zM163 234h58q75 0 111 33.5t36 96.5q0 128 -147 128h-58v-258z" />
    <glyph glyph-name="germandbls" unicode="&#xdf;" horiz-adv-x="452" 
d="M409 215q0 -45 -9.5 -85.5t-30.5 -70.5t-54 -48t-80 -18q-11 0 -24.5 1.5t-23.5 3.5v56q11 -2 20.5 -3t16.5 -1q33 0 56 13.5t37.5 36.5t21 53.5t6.5 64.5q0 79 -33.5 126t-99.5 47h-14v57h14q49 0 80.5 38t31.5 100q0 22 -5 44.5t-15.5 40t-27.5 28.5t-41 11
q-29 0 -48.5 -15.5t-30.5 -41t-15.5 -58.5t-4.5 -68v-527h-65v527q0 51 8.5 95.5t28 76.5t51 50.5t77.5 18.5q38 0 66.5 -14t47 -38t27.5 -57t9 -70q0 -35 -9 -63t-24.5 -49t-36 -34.5t-42.5 -18.5v-1q58 -8 96.5 -60t38.5 -148z" />
    <glyph glyph-name="agrave" unicode="&#xe0;" horiz-adv-x="404" 
d="M285 0q-1 8 -1.5 20t-1 25.5t-0.5 26v21.5h-2q-25 -106 -120 -106q-21 0 -42 8t-38 26t-28 45.5t-11 66.5q0 54 19 87t48 52t63.5 25.5t65.5 6.5h39v26q0 65 -24 95t-65 30q-28 0 -52 -15t-41 -38l-35 41q23 33 60 51t74 18q78 0 111 -51t33 -149v-206q0 -10 0.5 -25
t1 -30.5t1.5 -29t2 -21.5h-57zM277 252h-40q-24 0 -48 -4.5t-42.5 -17t-30.5 -34.5t-12 -57q0 -52 23 -75t50 -23q28 0 47.5 17t31 43t16.5 57t5 60v34zM180 569l-106 144h72l90 -144h-56z" />
    <glyph glyph-name="aacute" unicode="&#xe1;" horiz-adv-x="404" 
d="M285 0q-1 8 -1.5 20t-1 25.5t-0.5 26v21.5h-2q-25 -106 -120 -106q-21 0 -42 8t-38 26t-28 45.5t-11 66.5q0 54 19 87t48 52t63.5 25.5t65.5 6.5h39v26q0 65 -24 95t-65 30q-28 0 -52 -15t-41 -38l-35 41q23 33 60 51t74 18q78 0 111 -51t33 -149v-206q0 -10 0.5 -25
t1 -30.5t1.5 -29t2 -21.5h-57zM277 252h-40q-24 0 -48 -4.5t-42.5 -17t-30.5 -34.5t-12 -57q0 -52 23 -75t50 -23q28 0 47.5 17t31 43t16.5 57t5 60v34zM218 569h-56l90 144h72z" />
    <glyph glyph-name="acircumflex" unicode="&#xe2;" horiz-adv-x="404" 
d="M285 0q-1 8 -1.5 20t-1 25.5t-0.5 26v21.5h-2q-25 -106 -120 -106q-21 0 -42 8t-38 26t-28 45.5t-11 66.5q0 54 19 87t48 52t63.5 25.5t65.5 6.5h39v26q0 65 -24 95t-65 30q-28 0 -52 -15t-41 -38l-35 41q23 33 60 51t74 18q78 0 111 -51t33 -149v-206q0 -10 0.5 -25
t1 -30.5t1.5 -29t2 -21.5h-57zM277 252h-40q-24 0 -48 -4.5t-42.5 -17t-30.5 -34.5t-12 -57q0 -52 23 -75t50 -23q28 0 47.5 17t31 43t16.5 57t5 60v34zM270 569l-72 105l-72 -105h-65l103 144h70l102 -144h-66z" />
    <glyph glyph-name="atilde" unicode="&#xe3;" horiz-adv-x="404" 
d="M285 0q-1 8 -1.5 20t-1 25.5t-0.5 26v21.5h-2q-25 -106 -120 -106q-21 0 -42 8t-38 26t-28 45.5t-11 66.5q0 54 19 87t48 52t63.5 25.5t65.5 6.5h39v26q0 65 -24 95t-65 30q-28 0 -52 -15t-41 -38l-35 41q23 33 60 51t74 18q78 0 111 -51t33 -149v-206q0 -10 0.5 -25
t1 -30.5t1.5 -29t2 -21.5h-57zM277 252h-40q-24 0 -48 -4.5t-42.5 -17t-30.5 -34.5t-12 -57q0 -52 23 -75t50 -23q28 0 47.5 17t31 43t16.5 57t5 60v34zM329 685q-3 -49 -21.5 -73.5t-47.5 -24.5q-16 0 -29.5 5t-33.5 19q-23 15 -32.5 19.5t-20.5 4.5q-16 0 -23 -13t-11 -36
h-37q3 45 21 73t48 28q18 0 30.5 -5.5t32.5 -18.5q23 -15 33 -19.5t21 -4.5q16 0 22.5 10.5t10.5 35.5h37z" />
    <glyph glyph-name="adieresis" unicode="&#xe4;" horiz-adv-x="404" 
d="M285 0q-1 8 -1.5 20t-1 25.5t-0.5 26v21.5h-2q-25 -106 -120 -106q-21 0 -42 8t-38 26t-28 45.5t-11 66.5q0 54 19 87t48 52t63.5 25.5t65.5 6.5h39v26q0 65 -24 95t-65 30q-28 0 -52 -15t-41 -38l-35 41q23 33 60 51t74 18q78 0 111 -51t33 -149v-206q0 -10 0.5 -25
t1 -30.5t1.5 -29t2 -21.5h-57zM277 252h-40q-24 0 -48 -4.5t-42.5 -17t-30.5 -34.5t-12 -57q0 -52 23 -75t50 -23q28 0 47.5 17t31 43t16.5 57t5 60v34zM315 648q0 -20 -12 -32.5t-30 -12.5q-17 0 -29.5 12.5t-12.5 32.5q0 19 12.5 32t29.5 13q18 0 30 -13t12 -32zM172 648
q0 -20 -12.5 -32.5t-29.5 -12.5q-19 0 -30.5 12.5t-11.5 32.5q0 19 11.5 32t30.5 13q17 0 29.5 -13t12.5 -32z" />
    <glyph glyph-name="aring" unicode="&#xe5;" horiz-adv-x="404" 
d="M285 0q-1 8 -1.5 20t-1 25.5t-0.5 26v21.5h-2q-25 -106 -120 -106q-21 0 -42 8t-38 26t-28 45.5t-11 66.5q0 54 19 87t48 52t63.5 25.5t65.5 6.5h39v26q0 65 -24 95t-65 30q-28 0 -52 -15t-41 -38l-35 41q23 33 60 51t74 18q78 0 111 -51t33 -149v-206q0 -10 0.5 -25
t1 -30.5t1.5 -29t2 -21.5h-57zM277 252h-40q-24 0 -48 -4.5t-42.5 -17t-30.5 -34.5t-12 -57q0 -52 23 -75t50 -23q28 0 47.5 17t31 43t16.5 57t5 60v34zM294 656q0 -43 -26.5 -72t-67.5 -29q-40 0 -66 29t-26 72q0 44 26 73t66 29q41 0 67.5 -29t26.5 -73zM256 656
q0 27 -14.5 47t-41.5 20q-26 0 -40.5 -20t-14.5 -47q0 -26 14.5 -46t40.5 -20q27 0 41.5 20t14.5 46z" />
    <glyph glyph-name="ae" unicode="&#xe6;" horiz-adv-x="649" 
d="M340 234q0 -41 7 -75.5t20.5 -60t34 -40t48.5 -14.5q36 0 58 22t34 53l50 -29q-18 -45 -53.5 -75.5t-90.5 -30.5q-57 0 -93 33t-48 95q-10 -60 -46.5 -94t-97.5 -34q-22 0 -43.5 8t-39 25.5t-28.5 45t-11 66.5q0 50 19 81.5t48 49t63.5 23.5t65.5 6h39v28q0 66 -23.5 102
t-65.5 36q-28 0 -52 -15t-41 -38l-35 41q23 33 60 51t74 18q54 0 84 -29.5t38 -83.5q15 53 48 83t84 30q44 0 74.5 -19t49.5 -51.5t27.5 -76.5t8.5 -94v-37h-267zM277 236h-40q-24 0 -48 -4.5t-42.5 -15.5t-30.5 -31t-12 -50q0 -26 6.5 -44t16.5 -29t23 -16t27 -5
q28 0 47.5 15t31 39t16.5 53.5t5 58.5v29zM540 289q0 75 -23 120.5t-72 45.5q-29 0 -48.5 -17.5t-32 -43t-18 -54.5t-5.5 -51h199z" />
    <glyph glyph-name="ccedilla" unicode="&#xe7;" horiz-adv-x="336" 
d="M328 35q-37 -48 -103 -51l-34 -59q12 4 32 4q27 0 51 -17t24 -53q0 -25 -10 -42t-25.5 -27t-35 -14t-37.5 -4q-19 0 -42.5 4t-43.5 14l15 36q15 -8 32 -11t34 -3q7 0 17 2t19 7.5t15.5 14t6.5 20.5q0 20 -13 29.5t-36 9.5q-21 0 -40 -8l-16 15l49 85q-70 14 -105 84.5
t-35 176.5q0 59 11 107.5t33 83.5t54 54t74 19q38 0 65 -14t43 -33l-35 -48q-12 17 -30 27t-42 10q-27 0 -46.5 -15.5t-32.5 -43t-19.5 -65t-6.5 -82.5q0 -44 6.5 -81t19.5 -64t33.5 -42t48.5 -15q25 0 43.5 10.5t31.5 29.5l30 -51v0z" />
    <glyph glyph-name="egrave" unicode="&#xe8;" horiz-adv-x="423" 
d="M114 234q0 -41 7 -75.5t20.5 -60t34 -40t48.5 -14.5q36 0 58 22t34 53l50 -29q-18 -45 -53.5 -75.5t-90.5 -30.5q-83 0 -129 70t-46 193q0 58 12 107t34.5 84t55 54.5t72.5 19.5q44 0 74.5 -19t49.5 -52t27.5 -77t8.5 -94v-36h-267zM314 289q0 75 -23 120.5t-72 45.5
q-29 0 -48.5 -17.5t-32 -43t-18 -54.5t-5.5 -51h199zM215 569l-106 144h72l90 -144h-56z" />
    <glyph glyph-name="eacute" unicode="&#xe9;" horiz-adv-x="423" 
d="M114 234q0 -41 7 -75.5t20.5 -60t34 -40t48.5 -14.5q36 0 58 22t34 53l50 -29q-18 -45 -53.5 -75.5t-90.5 -30.5q-83 0 -129 70t-46 193q0 58 12 107t34.5 84t55 54.5t72.5 19.5q44 0 74.5 -19t49.5 -52t27.5 -77t8.5 -94v-36h-267zM314 289q0 75 -23 120.5t-72 45.5
q-29 0 -48.5 -17.5t-32 -43t-18 -54.5t-5.5 -51h199zM231 569h-56l90 144h72z" />
    <glyph glyph-name="ecircumflex" unicode="&#xea;" horiz-adv-x="423" 
d="M114 234q0 -41 7 -75.5t20.5 -60t34 -40t48.5 -14.5q36 0 58 22t34 53l50 -29q-18 -45 -53.5 -75.5t-90.5 -30.5q-83 0 -129 70t-46 193q0 58 12 107t34.5 84t55 54.5t72.5 19.5q44 0 74.5 -19t49.5 -52t27.5 -77t8.5 -94v-36h-267zM314 289q0 75 -23 120.5t-72 45.5
q-29 0 -48.5 -17.5t-32 -43t-18 -54.5t-5.5 -51h199zM298 569l-72 105l-72 -105h-65l103 144h70l102 -144h-66z" />
    <glyph glyph-name="edieresis" unicode="&#xeb;" horiz-adv-x="423" 
d="M114 234q0 -41 7 -75.5t20.5 -60t34 -40t48.5 -14.5q36 0 58 22t34 53l50 -29q-18 -45 -53.5 -75.5t-90.5 -30.5q-83 0 -129 70t-46 193q0 58 12 107t34.5 84t55 54.5t72.5 19.5q44 0 74.5 -19t49.5 -52t27.5 -77t8.5 -94v-36h-267zM314 289q0 75 -23 120.5t-72 45.5
q-29 0 -48.5 -17.5t-32 -43t-18 -54.5t-5.5 -51h199zM338 648q0 -20 -12 -32.5t-30 -12.5q-17 0 -29.5 12.5t-12.5 32.5q0 19 12.5 32t29.5 13q18 0 30 -13t12 -32zM195 648q0 -20 -12.5 -32.5t-29.5 -12.5q-19 0 -30.5 12.5t-11.5 32.5q0 19 11.5 32t30.5 13q17 0 29.5 -13
t12.5 -32z" />
    <glyph glyph-name="igrave" unicode="&#xec;" horiz-adv-x="220" 
d="M77 0v496h66v-496h-66zM87 569l-106 144h72l90 -144h-56z" />
    <glyph glyph-name="iacute" unicode="&#xed;" horiz-adv-x="220" 
d="M77 0v496h66v-496h-66zM132 569h-56l90 144h72z" />
    <glyph glyph-name="icircumflex" unicode="&#xee;" horiz-adv-x="220" 
d="M77 0v496h66v-496h-66zM182 569l-72 105l-72 -105h-65l103 144h70l102 -144h-66z" />
    <glyph glyph-name="idieresis" unicode="&#xef;" horiz-adv-x="220" 
d="M77 0v496h66v-496h-66zM224 648q0 -20 -12 -32.5t-30 -12.5q-17 0 -29.5 12.5t-12.5 32.5q0 19 12.5 32t29.5 13q18 0 30 -13t12 -32zM81 648q0 -20 -12.5 -32.5t-29.5 -12.5q-19 0 -30.5 12.5t-11.5 32.5q0 19 11.5 32t30.5 13q17 0 29.5 -13t12.5 -32z" />
    <glyph glyph-name="eth" unicode="&#xf0;" horiz-adv-x="440" 
d="M391 247q0 -59 -12.5 -107.5t-35 -83.5t-54 -54t-70.5 -19t-71 19t-54.5 54t-35 84t-12.5 108q0 57 11.5 104.5t33.5 82t53 53.5t70 19q20 0 38 -7.5t30 -20.5l2 2q-16 40 -42 84t-53 76l-96 -57l-28 31l97 57q-19 22 -39.5 40.5t-39.5 32.5l52 29q21 -17 41.5 -37
t37.5 -41l88 52l31 -30l-94 -54q23 -28 49.5 -72t49.5 -99t38 -117.5t15 -128.5zM326 248q0 44 -6.5 82.5t-20 66.5t-33.5 44t-46 16q-27 0 -46.5 -16t-33 -44t-20 -66.5t-6.5 -82.5t6.5 -82t20 -66t33 -44t46.5 -16t46.5 16t33 44t20 66t6.5 82z" />
    <glyph glyph-name="ntilde" unicode="&#xf1;" 
d="M331 0v320q0 23 -2.5 46.5t-11 43t-24 32t-40.5 12.5t-44.5 -13.5t-33 -37t-21 -54t-7.5 -63.5v-286h-66v371q0 16 -0.5 34.5t-1 36t-1 32t-1.5 22.5h64q2 -19 3 -46t1 -51h2q14 50 46 81.5t80 31.5q40 0 64.5 -17t37.5 -44.5t17.5 -62t4.5 -68.5v-320h-66zM363 685
q-3 -49 -21.5 -73.5t-47.5 -24.5q-16 0 -29.5 5t-33.5 19q-23 15 -32.5 19.5t-20.5 4.5q-16 0 -23 -13t-11 -36h-37q3 45 21 73t48 28q18 0 30.5 -5.5t32.5 -18.5q23 -15 33 -19.5t21 -4.5q16 0 22.5 10.5t10.5 35.5h37z" />
    <glyph glyph-name="ograve" unicode="&#xf2;" horiz-adv-x="440" 
d="M393 247q0 -59 -12 -107t-34 -83t-54.5 -54t-72.5 -19t-72 19t-54.5 54t-34.5 83t-12 107t11.5 108t33.5 84t54.5 54t73.5 19q40 0 72.5 -19t54.5 -54t34 -84t12 -108zM325 248q0 44 -6.5 82t-19.5 65.5t-32.5 43.5t-46.5 16t-47 -16t-32.5 -43.5t-19 -65.5t-6.5 -82
t6.5 -81t19 -65t32.5 -43.5t47 -15.5t47 15.5t32.5 43.5t19 65t6.5 81zM207 569l-106 144h72l90 -144h-56z" />
    <glyph glyph-name="oacute" unicode="&#xf3;" horiz-adv-x="440" 
d="M393 247q0 -59 -12 -107t-34 -83t-54.5 -54t-72.5 -19t-72 19t-54.5 54t-34.5 83t-12 107t11.5 108t33.5 84t54.5 54t73.5 19q40 0 72.5 -19t54.5 -54t34 -84t12 -108zM325 248q0 44 -6.5 82t-19.5 65.5t-32.5 43.5t-46.5 16t-47 -16t-32.5 -43.5t-19 -65.5t-6.5 -82
t6.5 -81t19 -65t32.5 -43.5t47 -15.5t47 15.5t32.5 43.5t19 65t6.5 81zM239 569h-56l90 144h72z" />
    <glyph glyph-name="ocircumflex" unicode="&#xf4;" horiz-adv-x="440" 
d="M393 247q0 -59 -12 -107t-34 -83t-54.5 -54t-72.5 -19t-72 19t-54.5 54t-34.5 83t-12 107t11.5 108t33.5 84t54.5 54t73.5 19q40 0 72.5 -19t54.5 -54t34 -84t12 -108zM325 248q0 44 -6.5 82t-19.5 65.5t-32.5 43.5t-46.5 16t-47 -16t-32.5 -43.5t-19 -65.5t-6.5 -82
t6.5 -81t19 -65t32.5 -43.5t47 -15.5t47 15.5t32.5 43.5t19 65t6.5 81zM292 569l-72 105l-72 -105h-65l103 144h70l102 -144h-66z" />
    <glyph glyph-name="otilde" unicode="&#xf5;" horiz-adv-x="440" 
d="M393 247q0 -59 -12 -107t-34 -83t-54.5 -54t-72.5 -19t-72 19t-54.5 54t-34.5 83t-12 107t11.5 108t33.5 84t54.5 54t73.5 19q40 0 72.5 -19t54.5 -54t34 -84t12 -108zM325 248q0 44 -6.5 82t-19.5 65.5t-32.5 43.5t-46.5 16t-47 -16t-32.5 -43.5t-19 -65.5t-6.5 -82
t6.5 -81t19 -65t32.5 -43.5t47 -15.5t47 15.5t32.5 43.5t19 65t6.5 81zM348 685q-3 -49 -21.5 -73.5t-47.5 -24.5q-16 0 -29.5 5t-33.5 19q-23 15 -32.5 19.5t-20.5 4.5q-16 0 -23 -13t-11 -36h-37q3 45 21 73t48 28q18 0 30.5 -5.5t32.5 -18.5q23 -15 33 -19.5t21 -4.5
q16 0 22.5 10.5t10.5 35.5h37z" />
    <glyph glyph-name="odieresis" unicode="&#xf6;" horiz-adv-x="440" 
d="M393 247q0 -59 -12 -107t-34 -83t-54.5 -54t-72.5 -19t-72 19t-54.5 54t-34.5 83t-12 107t11.5 108t33.5 84t54.5 54t73.5 19q40 0 72.5 -19t54.5 -54t34 -84t12 -108zM325 248q0 44 -6.5 82t-19.5 65.5t-32.5 43.5t-46.5 16t-47 -16t-32.5 -43.5t-19 -65.5t-6.5 -82
t6.5 -81t19 -65t32.5 -43.5t47 -15.5t47 15.5t32.5 43.5t19 65t6.5 81zM334 648q0 -20 -12 -32.5t-30 -12.5q-17 0 -29.5 12.5t-12.5 32.5q0 19 12.5 32t29.5 13q18 0 30 -13t12 -32zM191 648q0 -20 -12.5 -32.5t-29.5 -12.5q-19 0 -30.5 12.5t-11.5 32.5q0 19 11.5 32
t30.5 13q17 0 29.5 -13t12.5 -32z" />
    <glyph glyph-name="divide" unicode="&#xf7;" horiz-adv-x="666" 
d="M588 273h-510v60h510v-60zM387 465q0 -21 -15 -37.5t-39 -16.5t-39 16.5t-15 37.5t15 37.5t39 16.5t39 -16.5t15 -37.5zM387 141q0 -21 -15 -37.5t-39 -16.5t-39 16.5t-15 37.5t15 37.5t39 16.5t39 -16.5t15 -37.5z" />
    <glyph glyph-name="oslash" unicode="&#xf8;" horiz-adv-x="440" 
d="M345 443q23 -35 35.5 -85.5t12.5 -110.5q0 -59 -12 -107.5t-34 -83t-54.5 -54t-72.5 -19.5q-54 0 -95 36l-27 -56l-40 18l37 72q-23 35 -35.5 84.5t-12.5 109.5q0 59 11.5 108t33.5 84t54.5 54t73.5 19q29 0 52 -9t43 -27l24 54l39 -18zM113 248q0 -79 20 -134l151 309
q-25 34 -64 34q-27 0 -47.5 -16t-33.5 -44t-19.5 -66.5t-6.5 -82.5zM327 248q0 76 -19 131l-152 -307q26 -32 64 -32q27 0 47.5 16t33.5 44t19.5 66t6.5 82z" />
    <glyph glyph-name="ugrave" unicode="&#xf9;" 
d="M139 496v-320q0 -23 2.5 -46.5t11 -43t23.5 -32t41 -12.5q25 0 44.5 13.5t33 37t21 54t7.5 63.5v286h66v-371q0 -16 0.5 -34.5t1 -36t1 -32.5t1.5 -22h-64q-2 19 -3 46t-1 51h-2q-14 -50 -46 -81.5t-80 -31.5q-40 0 -64.5 17t-37.5 44.5t-17.5 61.5t-4.5 69v320h66z
M228 569l-106 144h72l90 -144h-56z" />
    <glyph glyph-name="uacute" unicode="&#xfa;" 
d="M139 496v-320q0 -23 2.5 -46.5t11 -43t23.5 -32t41 -12.5q25 0 44.5 13.5t33 37t21 54t7.5 63.5v286h66v-371q0 -16 0.5 -34.5t1 -36t1 -32.5t1.5 -22h-64q-2 19 -3 46t-1 51h-2q-14 -50 -46 -81.5t-80 -31.5q-40 0 -64.5 17t-37.5 44.5t-17.5 61.5t-4.5 69v320h66z
M237 569h-56l90 144h72z" />
    <glyph glyph-name="ucircumflex" unicode="&#xfb;" 
d="M139 496v-320q0 -23 2.5 -46.5t11 -43t23.5 -32t41 -12.5q25 0 44.5 13.5t33 37t21 54t7.5 63.5v286h66v-371q0 -16 0.5 -34.5t1 -36t1 -32.5t1.5 -22h-64q-2 19 -3 46t-1 51h-2q-14 -50 -46 -81.5t-80 -31.5q-40 0 -64.5 17t-37.5 44.5t-17.5 61.5t-4.5 69v320h66z
M305 569l-72 105l-72 -105h-65l103 144h70l102 -144h-66z" />
    <glyph glyph-name="udieresis" unicode="&#xfc;" 
d="M139 496v-320q0 -23 2.5 -46.5t11 -43t23.5 -32t41 -12.5q25 0 44.5 13.5t33 37t21 54t7.5 63.5v286h66v-371q0 -16 0.5 -34.5t1 -36t1 -32.5t1.5 -22h-64q-2 19 -3 46t-1 51h-2q-14 -50 -46 -81.5t-80 -31.5q-40 0 -64.5 17t-37.5 44.5t-17.5 61.5t-4.5 69v320h66z
M347 648q0 -20 -12 -32.5t-30 -12.5q-17 0 -29.5 12.5t-12.5 32.5q0 19 12.5 32t29.5 13q18 0 30 -13t12 -32zM204 648q0 -20 -12.5 -32.5t-29.5 -12.5q-19 0 -30.5 12.5t-11.5 32.5q0 19 11.5 32t30.5 13q17 0 29.5 -13t12.5 -32z" />
    <glyph glyph-name="yacute" unicode="&#xfd;" horiz-adv-x="375" 
d="M202 -105q-8 -32 -18.5 -57t-25.5 -42t-34.5 -26.5t-46.5 -9.5q-14 0 -28 2.5t-23 5.5l9 59q7 -2 17 -4t20 -2q29 0 43.5 20t23.5 55l22 86l-144 514h70l107 -419h2l95 419h67zM205 569h-56l90 144h72z" />
    <glyph glyph-name="thorn" unicode="&#xfe;" horiz-adv-x="466" 
d="M419 247q0 -58 -10 -106.5t-30 -83.5t-49 -54.5t-68 -19.5q-45 0 -75.5 28.5t-42.5 73.5h-1v-325h-66v996h64v-349h2q12 46 40 75.5t79 29.5q37 0 66.5 -20t49.5 -55t30.5 -83.5t10.5 -106.5zM351 249q0 43 -6 80.5t-19 65.5t-32.5 44t-46.5 16t-46.5 -16t-33 -44
t-20 -65.5t-6.5 -80.5q0 -44 6.5 -82t20 -65.5t33.5 -43.5t46 -16q27 0 46.5 16t32.5 43.5t19 65.5t6 82z" />
    <glyph glyph-name="ydieresis" unicode="&#xff;" horiz-adv-x="375" 
d="M202 -105q-8 -32 -18.5 -57t-25.5 -42t-34.5 -26.5t-46.5 -9.5q-14 0 -28 2.5t-23 5.5l9 59q7 -2 17 -4t20 -2q29 0 43.5 20t23.5 55l22 86l-144 514h70l107 -419h2l95 419h67zM309 648q0 -20 -12 -32.5t-30 -12.5q-17 0 -29.5 12.5t-12.5 32.5q0 19 12.5 32t29.5 13
q18 0 30 -13t12 -32zM166 648q0 -20 -12.5 -32.5t-29.5 -12.5q-19 0 -30.5 12.5t-11.5 32.5q0 19 11.5 32t30.5 13q17 0 29.5 -13t12.5 -32z" />
    <glyph glyph-name="Amacron" unicode="&#x100;" horiz-adv-x="464" 
d="M384 0l-43 177h-218l-45 -177h-71l180 708h95l175 -708h-73zM235 645h-4l-98 -412h198zM111 809v52h249v-52h-249z" />
    <glyph glyph-name="amacron" unicode="&#x101;" horiz-adv-x="404" 
d="M285 0q-1 8 -1.5 20t-1 25.5t-0.5 26v21.5h-2q-25 -106 -120 -106q-21 0 -42 8t-38 26t-28 45.5t-11 66.5q0 54 19 87t48 52t63.5 25.5t65.5 6.5h39v26q0 65 -24 95t-65 30q-28 0 -52 -15t-41 -38l-35 41q23 33 60 51t74 18q78 0 111 -51t33 -149v-206q0 -10 0.5 -25
t1 -30.5t1.5 -29t2 -21.5h-57zM277 252h-40q-24 0 -48 -4.5t-42.5 -17t-30.5 -34.5t-12 -57q0 -52 23 -75t50 -23q28 0 47.5 17t31 43t16.5 57t5 60v34zM75 614v52h249v-52h-249z" />
    <glyph glyph-name="Abreve" unicode="&#x102;" horiz-adv-x="464" 
d="M384 0l-43 177h-218l-45 -177h-71l180 708h95l175 -708h-73zM235 645h-4l-98 -412h198zM367 900q-8 -69 -44.5 -100.5t-87.5 -31.5q-49 0 -85.5 31.5t-43.5 100.5h50q6 -41 28.5 -60t50.5 -19q31 0 52.5 18t29.5 61h50z" />
    <glyph glyph-name="abreve" unicode="&#x103;" horiz-adv-x="404" 
d="M285 0q-1 8 -1.5 20t-1 25.5t-0.5 26v21.5h-2q-25 -106 -120 -106q-21 0 -42 8t-38 26t-28 45.5t-11 66.5q0 54 19 87t48 52t63.5 25.5t65.5 6.5h39v26q0 65 -24 95t-65 30q-28 0 -52 -15t-41 -38l-35 41q23 33 60 51t74 18q78 0 111 -51t33 -149v-206q0 -10 0.5 -25
t1 -30.5t1.5 -29t2 -21.5h-57zM277 252h-40q-24 0 -48 -4.5t-42.5 -17t-30.5 -34.5t-12 -57q0 -52 23 -75t50 -23q28 0 47.5 17t31 43t16.5 57t5 60v34zM330 705q-8 -69 -44.5 -100.5t-87.5 -31.5q-49 0 -85.5 31.5t-43.5 100.5h50q6 -41 28.5 -60t50.5 -19q31 0 52.5 18
t29.5 61h50z" />
    <glyph glyph-name="Aogonek" unicode="&#x104;" horiz-adv-x="464" 
d="M468 -183q-16 -17 -36 -26.5t-43 -9.5q-37 0 -61.5 21.5t-24.5 59.5q0 21 7.5 40.5t19.5 37t26.5 33t28.5 27.5h-1l-43 177h-218l-45 -177h-71l180 708h95l175 -708h-28q-34 -37 -52.5 -64.5t-18.5 -56.5q0 -21 13.5 -34.5t32.5 -13.5q28 0 47 22zM235 645h-4l-98 -412
h198z" />
    <glyph glyph-name="aogonek" unicode="&#x105;" horiz-adv-x="404" 
d="M331 0q-34 -37 -52.5 -64.5t-18.5 -56.5q0 -21 13.5 -34.5t32.5 -13.5q28 0 47 22l17 -36q-16 -17 -36 -26.5t-43 -9.5q-37 0 -61.5 21.5t-24.5 59.5q0 21 7.5 40.5t19.5 37t26.5 33t28.5 27.5h-2q-1 8 -1.5 20t-1 25.5t-0.5 26v21.5h-2q-25 -106 -120 -106q-21 0 -42 8
t-38 25t-28 44.5t-11 66.5q0 54 19 87.5t48 52.5t63.5 26t65.5 7h39v27q0 65 -24 94.5t-65 29.5q-28 0 -52 -15t-41 -38l-35 41q23 33 60 51t74 18q78 0 111 -51t33 -149v-206q0 -10 0.5 -25t1 -30.5t1.5 -29t2 -21.5h-11zM277 252h-40q-24 0 -48 -4.5t-42.5 -17
t-30.5 -34.5t-12 -57q0 -52 23 -75t50 -23q28 0 47.5 17t31 43t16.5 57t5 60v34z" />
    <glyph glyph-name="Cacute" unicode="&#x106;" horiz-adv-x="479" 
d="M461 80q-28 -47 -71 -72t-97 -25q-58 0 -103 28.5t-76 78t-47.5 117.5t-16.5 147q0 80 16.5 148t48 117.5t76.5 77.5t102 28q50 0 93.5 -21t72.5 -66l-45 -46q-23 35 -53.5 52t-64.5 17q-44 0 -76.5 -24t-54 -66t-32 -98t-10.5 -119t11 -118.5t32.5 -97.5t54 -66.5
t76.5 -24.5q38 0 69 21.5t51 56.5zM291 764h-56l90 144h72z" />
    <glyph glyph-name="cacute" unicode="&#x107;" horiz-adv-x="336" 
d="M328 35q-40 -51 -110 -51q-42 0 -74 19.5t-53.5 54t-32.5 83t-11 107.5t11 107.5t33 83.5t54 54t74 19q38 0 65 -14t43 -33l-35 -48q-12 17 -30 27t-42 10q-27 0 -46.5 -15.5t-32.5 -43t-19.5 -65t-6.5 -82.5q0 -44 6.5 -81t19.5 -64t33.5 -42t48.5 -15q25 0 43.5 10.5
t31.5 29.5zM218 569h-56l90 144h72z" />
    <glyph glyph-name="Ccircumflex" unicode="&#x108;" horiz-adv-x="479" 
d="M461 80q-28 -47 -71 -72t-97 -25q-58 0 -103 28.5t-76 78t-47.5 117.5t-16.5 147q0 80 16.5 148t48 117.5t76.5 77.5t102 28q50 0 93.5 -21t72.5 -66l-45 -46q-23 35 -53.5 52t-64.5 17q-44 0 -76.5 -24t-54 -66t-32 -98t-10.5 -119t11 -118.5t32.5 -97.5t54 -66.5
t76.5 -24.5q38 0 69 21.5t51 56.5zM366 764l-72 105l-72 -105h-65l103 144h70l102 -144h-66z" />
    <glyph glyph-name="ccircumflex" unicode="&#x109;" horiz-adv-x="336" 
d="M328 35q-40 -51 -110 -51q-42 0 -74 19.5t-53.5 54t-32.5 83t-11 107.5t11 107.5t33 83.5t54 54t74 19q38 0 65 -14t43 -33l-35 -48q-12 17 -30 27t-42 10q-27 0 -46.5 -15.5t-32.5 -43t-19.5 -65t-6.5 -82.5q0 -44 6.5 -81t19.5 -64t33.5 -42t48.5 -15q25 0 43.5 10.5
t31.5 29.5zM291 569l-72 105l-72 -105h-65l103 144h70l102 -144h-66z" />
    <glyph glyph-name="Cdotaccent" unicode="&#x10a;" horiz-adv-x="479" 
d="M461 80q-28 -47 -71 -72t-97 -25q-58 0 -103 28.5t-76 78t-47.5 117.5t-16.5 147q0 80 16.5 148t48 117.5t76.5 77.5t102 28q50 0 93.5 -21t72.5 -66l-45 -46q-23 35 -53.5 52t-64.5 17q-44 0 -76.5 -24t-54 -66t-32 -98t-10.5 -119t11 -118.5t32.5 -97.5t54 -66.5
t76.5 -24.5q38 0 69 21.5t51 56.5zM338 843q0 -21 -13 -34.5t-31 -13.5q-19 0 -31.5 13.5t-12.5 34.5q0 20 12.5 34t31.5 14t31.5 -14t12.5 -34z" />
    <glyph glyph-name="cdotaccent" unicode="&#x10b;" horiz-adv-x="336" 
d="M328 35q-40 -51 -110 -51q-42 0 -74 19.5t-53.5 54t-32.5 83t-11 107.5t11 107.5t33 83.5t54 54t74 19q38 0 65 -14t43 -33l-35 -48q-12 17 -30 27t-42 10q-27 0 -46.5 -15.5t-32.5 -43t-19.5 -65t-6.5 -82.5q0 -44 6.5 -81t19.5 -64t33.5 -42t48.5 -15q25 0 43.5 10.5
t31.5 29.5zM263 648q0 -21 -13 -34.5t-31 -13.5q-19 0 -31.5 13.5t-12.5 34.5q0 20 12.5 34t31.5 14t31.5 -14t12.5 -34z" />
    <glyph glyph-name="Ccaron" unicode="&#x10c;" horiz-adv-x="479" 
d="M461 80q-28 -47 -71 -72t-97 -25q-58 0 -103 28.5t-76 78t-47.5 117.5t-16.5 147q0 80 16.5 148t48 117.5t76.5 77.5t102 28q50 0 93.5 -21t72.5 -66l-45 -46q-23 35 -53.5 52t-64.5 17q-44 0 -76.5 -24t-54 -66t-32 -98t-10.5 -119t11 -118.5t32.5 -97.5t54 -66.5
t76.5 -24.5q38 0 69 21.5t51 56.5zM330 763h-70l-103 144h65l72 -105l72 105h66z" />
    <glyph glyph-name="ccaron" unicode="&#x10d;" horiz-adv-x="336" 
d="M328 35q-40 -51 -110 -51q-42 0 -74 19.5t-53.5 54t-32.5 83t-11 107.5t11 107.5t33 83.5t54 54t74 19q38 0 65 -14t43 -33l-35 -48q-12 17 -30 27t-42 10q-27 0 -46.5 -15.5t-32.5 -43t-19.5 -65t-6.5 -82.5q0 -44 6.5 -81t19.5 -64t33.5 -42t48.5 -15q25 0 43.5 10.5
t31.5 29.5zM253 568h-70l-103 144h65l72 -105l72 105h66z" />
    <glyph glyph-name="Dcaron" unicode="&#x10e;" horiz-adv-x="541" 
d="M490 353q0 -87 -18 -153t-52 -110.5t-81.5 -67t-105.5 -22.5h-152v708h153q58 0 105.5 -22.5t81 -67.5t51.5 -111.5t18 -153.5zM421 353q0 75 -14.5 130.5t-40 91.5t-60 54t-74.5 18h-82v-586h82q40 0 74.5 18t60 54t40 91t14.5 129zM271 763h-70l-103 144h65l72 -105
l72 105h66z" />
    <glyph glyph-name="dcaron" unicode="&#x10f;" horiz-adv-x="466" 
d="M325 0v89h-2q-12 -45 -40 -75t-79 -30q-38 0 -67 20t-49 55.5t-30.5 84t-10.5 106.5t10 106t29.5 82.5t49 54t67.5 19.5q45 0 76 -27.5t42 -72.5h2v344h66v-756h-64zM325 248q0 44 -6.5 82t-20 65.5t-33.5 43.5t-46 16q-27 0 -46.5 -16t-32.5 -43.5t-19 -65.5t-6 -82
q0 -43 6 -80.5t19 -65.5t32.5 -44t46.5 -16t46.5 16t33 44t20 65.5t6.5 80.5zM475 534h-50l41 174h58z" />
    <glyph glyph-name="Dcroat" unicode="&#x110;" horiz-adv-x="540" 
d="M488 354q0 -87 -18.5 -153.5t-52 -111t-81 -67t-105.5 -22.5h-150v341h-62v49h62v318h150q58 0 105.5 -22.5t81.5 -67.5t52 -111t18 -153zM422 354q0 75 -15 130.5t-41 91.5t-61 54t-76 18h-80v-258h142v-49h-142v-281h80q41 0 76 18t61 54.5t41 91.5t15 130z" />
    <glyph glyph-name="dcroat" unicode="&#x111;" horiz-adv-x="466" 
d="M325 0v89h-2q-12 -45 -40 -75.5t-79 -30.5q-38 0 -67 20t-49 55.5t-30.5 84.5t-10.5 107t10 106t29.5 82.5t49 54t67.5 19.5q45 0 76 -27.5t42 -72.5h2v163h-146v43h146v138h66v-138h46v-43h-46v-575h-64zM325 248q0 44 -6.5 82t-20 65.5t-33.5 43.5t-46 16
q-27 0 -46.5 -16t-32.5 -43.5t-19 -65.5t-6 -82q0 -43 6 -80.5t19 -65.5t32.5 -44t46.5 -16t46.5 16t33 44t20 65.5t6.5 80.5z" />
    <glyph glyph-name="Emacron" unicode="&#x112;" horiz-adv-x="418" 
d="M81 0v708h285v-62h-217v-249h203v-59h-203v-275h227v-63h-295zM101 809v52h249v-52h-249z" />
    <glyph glyph-name="emacron" unicode="&#x113;" horiz-adv-x="423" 
d="M114 234q0 -41 7 -75.5t20.5 -60t34 -40t48.5 -14.5q36 0 58 22t34 53l50 -29q-18 -45 -53.5 -75.5t-90.5 -30.5q-83 0 -129 70t-46 193q0 58 12 107t34.5 84t55 54.5t72.5 19.5q44 0 74.5 -19t49.5 -52t27.5 -77t8.5 -94v-36h-267zM314 289q0 75 -23 120.5t-72 45.5
q-29 0 -48.5 -17.5t-32 -43t-18 -54.5t-5.5 -51h199zM102 614v52h249v-52h-249z" />
    <glyph glyph-name="Ebreve" unicode="&#x114;" horiz-adv-x="418" 
d="M81 0v708h285v-62h-217v-249h203v-59h-203v-275h227v-63h-295zM354 900q-8 -69 -44.5 -100.5t-87.5 -31.5q-49 0 -85.5 31.5t-43.5 100.5h50q6 -41 28.5 -60t50.5 -19q31 0 52.5 18t29.5 61h50z" />
    <glyph glyph-name="ebreve" unicode="&#x115;" horiz-adv-x="423" 
d="M114 234q0 -41 7 -75.5t20.5 -60t34 -40t48.5 -14.5q36 0 58 22t34 53l50 -29q-18 -45 -53.5 -75.5t-90.5 -30.5q-83 0 -129 70t-46 193q0 58 12 107t34.5 84t55 54.5t72.5 19.5q44 0 74.5 -19t49.5 -52t27.5 -77t8.5 -94v-36h-267zM314 289q0 75 -23 120.5t-72 45.5
q-29 0 -48.5 -17.5t-32 -43t-18 -54.5t-5.5 -51h199zM356 705q-8 -69 -44.5 -100.5t-87.5 -31.5q-49 0 -85.5 31.5t-43.5 100.5h50q6 -41 28.5 -60t50.5 -19q31 0 52.5 18t29.5 61h50z" />
    <glyph glyph-name="Edotaccent" unicode="&#x116;" horiz-adv-x="418" 
d="M81 0v708h285v-62h-217v-249h203v-59h-203v-275h227v-63h-295zM271 843q0 -21 -13 -34.5t-31 -13.5q-19 0 -31.5 13.5t-12.5 34.5q0 20 12.5 34t31.5 14t31.5 -14t12.5 -34z" />
    <glyph glyph-name="edotaccent" unicode="&#x117;" horiz-adv-x="423" 
d="M114 234q0 -41 7 -75.5t20.5 -60t34 -40t48.5 -14.5q36 0 58 22t34 53l50 -29q-18 -45 -53.5 -75.5t-90.5 -30.5q-83 0 -129 70t-46 193q0 58 12 107t34.5 84t55 54.5t72.5 19.5q44 0 74.5 -19t49.5 -52t27.5 -77t8.5 -94v-36h-267zM314 289q0 75 -23 120.5t-72 45.5
q-29 0 -48.5 -17.5t-32 -43t-18 -54.5t-5.5 -51h199zM265 648q0 -21 -13 -34.5t-31 -13.5q-19 0 -31.5 13.5t-12.5 34.5q0 20 12.5 34t31.5 14t31.5 -14t12.5 -34z" />
    <glyph glyph-name="Eogonek" unicode="&#x118;" horiz-adv-x="418" 
d="M394 -183q-16 -17 -36 -26.5t-43 -9.5q-37 0 -61.5 21.5t-24.5 59.5q0 21 7.5 40.5t19.5 37t26.5 33t28.5 27.5h-230v708h285v-62h-217v-249h203v-59h-203v-275h227v-63h-21q-34 -37 -52.5 -64.5t-18.5 -56.5q0 -21 13.5 -34.5t32.5 -13.5q28 0 47 22z" />
    <glyph glyph-name="eogonek" unicode="&#x119;" horiz-adv-x="423" 
d="M322 -183q-16 -17 -36 -26.5t-43 -9.5q-37 0 -61.5 21.5t-24.5 59.5q0 35 19.5 66t43.5 55q-82 1 -127.5 71.5t-45.5 192.5q0 58 12 107t34.5 84t55 54.5t72.5 19.5q44 0 74.5 -19t49.5 -52t27.5 -77t8.5 -94v-36h-267q0 -41 7 -76t20.5 -60.5t34 -40t48.5 -14.5
q36 0 58 22t34 53l50 -29q-14 -33 -36 -58.5t-54 -37.5q-31 -34 -47.5 -60t-16.5 -54q0 -21 13.5 -34.5t32.5 -13.5q28 0 47 22zM314 289q0 75 -23 120.5t-72 45.5q-29 0 -48.5 -17.5t-32 -43t-18 -54.5t-5.5 -51h199z" />
    <glyph glyph-name="Ecaron" unicode="&#x11a;" horiz-adv-x="418" 
d="M81 0v708h285v-62h-217v-249h203v-59h-203v-275h227v-63h-295zM257 763h-70l-103 144h65l72 -105l72 105h66z" />
    <glyph glyph-name="ecaron" unicode="&#x11b;" horiz-adv-x="423" 
d="M114 234q0 -41 7 -75.5t20.5 -60t34 -40t48.5 -14.5q36 0 58 22t34 53l50 -29q-18 -45 -53.5 -75.5t-90.5 -30.5q-83 0 -129 70t-46 193q0 58 12 107t34.5 84t55 54.5t72.5 19.5q44 0 74.5 -19t49.5 -52t27.5 -77t8.5 -94v-36h-267zM314 289q0 75 -23 120.5t-72 45.5
q-29 0 -48.5 -17.5t-32 -43t-18 -54.5t-5.5 -51h199zM257 568h-70l-103 144h65l72 -105l72 105h66z" />
    <glyph glyph-name="Gcircumflex" unicode="&#x11c;" horiz-adv-x="535" 
d="M469 44q-29 -26 -70.5 -41.5t-97.5 -15.5q-59 0 -106 26t-79 74t-49 116t-17 152q0 79 16.5 147t47.5 117.5t76 77.5t102 28q52 0 95 -21t72 -66l-45 -46q-23 35 -53.5 52.5t-65.5 17.5q-44 0 -76 -24.5t-53.5 -66.5t-32 -97.5t-10.5 -118.5q0 -66 11 -122t33.5 -96.5
t56 -63.5t77.5 -23q32 0 57.5 8t42.5 23v240h-101v61h169v-338zM366 764l-72 105l-72 -105h-65l103 144h70l102 -144h-66z" />
    <glyph glyph-name="gcircumflex" unicode="&#x11d;" horiz-adv-x="466" 
d="M389 7q0 -53 -8.5 -98t-28.5 -78t-54 -52t-85 -19q-49 0 -91.5 22.5t-68.5 60.5l43 46q20 -31 50.5 -50t68.5 -19q33 0 54.5 14t33.5 39t17 59t5 75v82h-2q-12 -45 -40 -75t-79 -30q-38 0 -67 20t-49 55.5t-30.5 84t-10.5 106.5t10 106t29.5 82.5t49 54t67.5 19.5
q45 0 76.5 -27.5t42.5 -72.5h3v84h64v-489zM325 248q0 43 -6.5 81t-20 66t-33.5 44t-46 16q-27 0 -46.5 -16t-32.5 -43.5t-19 -65.5t-6 -82q0 -43 6 -80.5t19 -65.5t32.5 -44t46.5 -16t46.5 16t33 43.5t20 65t6.5 81.5zM306 569l-72 105l-72 -105h-65l103 144h70l102 -144
h-66z" />
    <glyph glyph-name="Gbreve" unicode="&#x11e;" horiz-adv-x="535" 
d="M469 44q-29 -26 -70.5 -41.5t-97.5 -15.5q-59 0 -106 26t-79 74t-49 116t-17 152q0 79 16.5 147t47.5 117.5t76 77.5t102 28q52 0 95 -21t72 -66l-45 -46q-23 35 -53.5 52.5t-65.5 17.5q-44 0 -76 -24.5t-53.5 -66.5t-32 -97.5t-10.5 -118.5q0 -66 11 -122t33.5 -96.5
t56 -63.5t77.5 -23q32 0 57.5 8t42.5 23v240h-101v61h169v-338zM423 900q-8 -69 -44.5 -100.5t-87.5 -31.5q-49 0 -85.5 31.5t-43.5 100.5h50q6 -41 28.5 -60t50.5 -19q31 0 52.5 18t29.5 61h50z" />
    <glyph glyph-name="gbreve" unicode="&#x11f;" horiz-adv-x="466" 
d="M389 7q0 -53 -8.5 -98t-28.5 -78t-54 -52t-85 -19q-49 0 -91.5 22.5t-68.5 60.5l43 46q20 -31 50.5 -50t68.5 -19q33 0 54.5 14t33.5 39t17 59t5 75v82h-2q-12 -45 -40 -75t-79 -30q-38 0 -67 20t-49 55.5t-30.5 84t-10.5 106.5t10 106t29.5 82.5t49 54t67.5 19.5
q45 0 76.5 -27.5t42.5 -72.5h3v84h64v-489zM325 248q0 43 -6.5 81t-20 66t-33.5 44t-46 16q-27 0 -46.5 -16t-32.5 -43.5t-19 -65.5t-6 -82q0 -43 6 -80.5t19 -65.5t32.5 -44t46.5 -16t46.5 16t33 43.5t20 65t6.5 81.5zM366 705q-8 -69 -44.5 -100.5t-87.5 -31.5
q-49 0 -85.5 31.5t-43.5 100.5h50q6 -41 28.5 -60t50.5 -19q31 0 52.5 18t29.5 61h50z" />
    <glyph glyph-name="Gdotaccent" unicode="&#x120;" horiz-adv-x="535" 
d="M469 44q-29 -26 -70.5 -41.5t-97.5 -15.5q-59 0 -106 26t-79 74t-49 116t-17 152q0 79 16.5 147t47.5 117.5t76 77.5t102 28q52 0 95 -21t72 -66l-45 -46q-23 35 -53.5 52.5t-65.5 17.5q-44 0 -76 -24.5t-53.5 -66.5t-32 -97.5t-10.5 -118.5q0 -66 11 -122t33.5 -96.5
t56 -63.5t77.5 -23q32 0 57.5 8t42.5 23v240h-101v61h169v-338zM338 843q0 -21 -13 -34.5t-31 -13.5q-19 0 -31.5 13.5t-12.5 34.5q0 20 12.5 34t31.5 14t31.5 -14t12.5 -34z" />
    <glyph glyph-name="gdotaccent" unicode="&#x121;" horiz-adv-x="466" 
d="M389 7q0 -53 -8.5 -98t-28.5 -78t-54 -52t-85 -19q-49 0 -91.5 22.5t-68.5 60.5l43 46q20 -31 50.5 -50t68.5 -19q33 0 54.5 14t33.5 39t17 59t5 75v82h-2q-12 -45 -40 -75t-79 -30q-38 0 -67 20t-49 55.5t-30.5 84t-10.5 106.5t10 106t29.5 82.5t49 54t67.5 19.5
q45 0 76.5 -27.5t42.5 -72.5h3v84h64v-489zM325 248q0 43 -6.5 81t-20 66t-33.5 44t-46 16q-27 0 -46.5 -16t-32.5 -43.5t-19 -65.5t-6 -82q0 -43 6 -80.5t19 -65.5t32.5 -44t46.5 -16t46.5 16t33 43.5t20 65t6.5 81.5zM276 648q0 -21 -13 -34.5t-31 -13.5q-19 0 -31.5 13.5
t-12.5 34.5q0 20 12.5 34t31.5 14t31.5 -14t12.5 -34z" />
    <glyph glyph-name="Gcommaaccent" unicode="&#x122;" horiz-adv-x="535" 
d="M469 44q-29 -26 -70.5 -41.5t-97.5 -15.5q-59 0 -106 26t-79 74t-49 116t-17 152q0 79 16.5 147t47.5 117.5t76 77.5t102 28q52 0 95 -21t72 -66l-45 -46q-23 35 -53.5 52.5t-65.5 17.5q-44 0 -76 -24.5t-53.5 -66.5t-32 -97.5t-10.5 -118.5q0 -66 11 -122t33.5 -96.5
t56 -63.5t77.5 -23q32 0 57.5 8t42.5 23v240h-101v61h169v-338zM280 -219h-50l41 174h58z" />
    <glyph glyph-name="gcommaaccent" unicode="&#x123;" horiz-adv-x="466" 
d="M389 7q0 -53 -8.5 -98t-28.5 -78t-54 -52t-85 -19q-49 0 -91.5 22.5t-68.5 60.5l43 46q20 -31 50.5 -50t68.5 -19q33 0 54.5 14t33.5 39t17 59t5 75v82h-2q-12 -45 -40 -75t-79 -30q-38 0 -67 20t-49 55.5t-30.5 84t-10.5 106.5t10 106t29.5 82.5t49 54t67.5 19.5
q45 0 76.5 -27.5t42.5 -72.5h3v84h64v-489zM325 248q0 43 -6.5 81t-20 66t-33.5 44t-46 16q-27 0 -46.5 -16t-32.5 -43.5t-19 -65.5t-6 -82q0 -43 6 -80.5t19 -65.5t32.5 -44t46.5 -16t46.5 16t33 43.5t20 65t6.5 81.5zM243 743h50l-41 -174h-58z" />
    <glyph glyph-name="Hcircumflex" unicode="&#x124;" horiz-adv-x="573" 
d="M422 0v336h-271v-336h-70v708h70v-310h271v310h70v-708h-70zM360 764l-72 105l-72 -105h-65l103 144h70l102 -144h-66z" />
    <glyph glyph-name="hcircumflex" unicode="&#x125;" horiz-adv-x="467" 
d="M327 0v320q0 23 -2.5 46.5t-10.5 43t-23.5 32t-40.5 12.5t-44.5 -13.5t-33.5 -37t-21.5 -54t-7.5 -63.5v-286h-66v756h66v-354h2q13 48 45 79t80 31q40 0 64.5 -17t37.5 -44.5t17.5 -62t4.5 -68.5v-320h-67zM302 796l-72 105l-72 -105h-65l103 144h70l102 -144h-66z" />
    <glyph glyph-name="Hbar" unicode="&#x126;" horiz-adv-x="573" 
d="M422 0v336h-271v-336h-70v708h70v-155h271v155h70v-708h-70zM422 398v112h-271v-112h271z" />
    <glyph glyph-name="hbar" unicode="&#x127;" horiz-adv-x="467" 
d="M143 575v-173h2q13 48 45 79t80 31q40 0 64.5 -17t37.5 -44.5t17.5 -62t4.5 -68.5v-320h-67v320q0 23 -2.5 46.5t-10.5 43t-23.5 32t-40.5 12.5t-44.5 -13.5t-33.5 -37t-21.5 -54t-7.5 -63.5v-286h-66v575h-55v43h55v138h66v-138h137v-43h-137z" />
    <glyph glyph-name="Itilde" unicode="&#x128;" horiz-adv-x="232" 
d="M81 0v708h70v-708h-70zM246 880q-3 -49 -21.5 -73.5t-47.5 -24.5q-16 0 -29.5 5t-33.5 19q-23 15 -32.5 19.5t-20.5 4.5q-16 0 -23 -13t-11 -36h-37q3 45 21 73t48 28q18 0 30.5 -5.5t32.5 -18.5q23 -15 33 -19.5t21 -4.5q16 0 22.5 10.5t10.5 35.5h37z" />
    <glyph glyph-name="itilde" unicode="&#x129;" horiz-adv-x="220" 
d="M77 0v496h66v-496h-66zM238 685q-3 -49 -21.5 -73.5t-47.5 -24.5q-16 0 -29.5 5t-33.5 19q-23 15 -32.5 19.5t-20.5 4.5q-16 0 -23 -13t-11 -36h-37q3 45 21 73t48 28q18 0 30.5 -5.5t32.5 -18.5q23 -15 33 -19.5t21 -4.5q16 0 22.5 10.5t10.5 35.5h37z" />
    <glyph glyph-name="Imacron" unicode="&#x12a;" horiz-adv-x="232" 
d="M81 0v708h70v-708h-70zM-8 809v52h249v-52h-249z" />
    <glyph glyph-name="imacron" unicode="&#x12b;" horiz-adv-x="220" 
d="M77 0v496h66v-496h-66zM-13 614v52h249v-52h-249z" />
    <glyph glyph-name="Ibreve" unicode="&#x12c;" horiz-adv-x="232" 
d="M81 0v708h70v-708h-70zM247 915q-8 -69 -44.5 -100.5t-87.5 -31.5q-49 0 -85.5 31.5t-43.5 100.5h50q6 -41 28.5 -60t50.5 -19q31 0 52.5 18t29.5 61h50v0z" />
    <glyph glyph-name="ibreve" unicode="&#x12d;" horiz-adv-x="220" 
d="M77 0v496h66v-496h-66zM241 703q-8 -69 -44.5 -100.5t-87.5 -31.5q-49 0 -85.5 31.5t-43.5 100.5h50q6 -41 28.5 -60t50.5 -19q31 0 52.5 18t29.5 61h50v0z" />
    <glyph glyph-name="Iogonek" unicode="&#x12e;" horiz-adv-x="232" 
d="M186 -183q-16 -17 -36 -26.5t-43 -9.5q-37 0 -61.5 21.5t-24.5 59.5q0 21 7.5 40.5t19.5 37t26.5 33t28.5 27.5h-22v708h70v-708h-4q-34 -37 -52.5 -64.5t-18.5 -56.5q0 -21 13.5 -34.5t32.5 -13.5q28 0 47 22z" />
    <glyph glyph-name="iogonek" unicode="&#x12f;" horiz-adv-x="220" 
d="M175 -183q-16 -17 -36 -26.5t-43 -9.5q-37 0 -61.5 21.5t-24.5 59.5q0 21 7.5 40.5t19.5 37t26.5 33t28.5 27.5h-15v496h66v-496h-7q-34 -37 -52.5 -64.5t-18.5 -56.5q0 -21 13.5 -34.5t32.5 -13.5q28 0 47 22zM154 648q0 -21 -13 -34.5t-31 -13.5q-19 0 -31.5 13.5
t-12.5 34.5q0 20 12.5 34t31.5 14t31.5 -14t12.5 -34z" />
    <glyph glyph-name="Idotaccent" unicode="&#x130;" horiz-adv-x="232" 
d="M81 0v708h70v-708h-70zM160 843q0 -21 -13 -34.5t-31 -13.5q-19 0 -31.5 13.5t-12.5 34.5q0 20 12.5 34t31.5 14t31.5 -14t12.5 -34z" />
    <glyph glyph-name="dotlessi" unicode="&#x131;" horiz-adv-x="220" 
d="M77 0v496h66v-496h-66z" />
    <glyph glyph-name="Jcircumflex" unicode="&#x134;" horiz-adv-x="379" 
d="M303 194q0 -100 -37.5 -155.5t-120.5 -55.5q-61 0 -98 33t-51 88l62 25q7 -33 28.5 -57.5t57.5 -24.5q52 0 70.5 42t18.5 115v504h70v-514zM339 764l-72 105l-72 -105h-65l103 144h70l102 -144h-66z" />
    <glyph glyph-name="jcircumflex" unicode="&#x135;" horiz-adv-x="221" 
d="M145 -73q0 -76 -29 -121.5t-98 -45.5q-8 0 -18.5 1.5t-20.5 4.5l6 60q15 -5 29 -5q20 0 32.5 9t20 24t10 35t2.5 42v565h66v-569zM184 569l-72 105l-72 -105h-65l103 144h70l102 -144h-66z" />
    <glyph glyph-name="Kcommaaccent" unicode="&#x136;" horiz-adv-x="482" 
d="M387 0l-236 363h-1v-363h-69v708h69v-318h1l222 318h81l-238 -327l255 -381h-84zM242 -219h-50l41 174h58z" />
    <glyph glyph-name="kcommaaccent" unicode="&#x137;" horiz-adv-x="400" 
d="M315 0l-170 250h-2v-250h-66v756h66v-479h2l160 219h79l-178 -230l189 -266h-80zM204 -219h-50l41 174h58z" />
    <glyph glyph-name="Lacute" unicode="&#x139;" horiz-adv-x="357" 
d="M81 0v708h70v-643h202v-65h-272zM142 764h-56l90 144h72z" />
    <glyph glyph-name="lacute" unicode="&#x13a;" horiz-adv-x="220" 
d="M77 0v756h66v-756h-66zM133 797h-56l90 144h72z" />
    <glyph glyph-name="Lcommaaccent" unicode="&#x13b;" horiz-adv-x="357" 
d="M81 0v708h70v-643h202v-65h-272zM198 -219h-50l41 174h58z" />
    <glyph glyph-name="lcommaaccent" unicode="&#x13c;" horiz-adv-x="220" 
d="M77 0v756h66v-756h-66zM95 -219h-50l41 174h58z" />
    <glyph glyph-name="Lcaron" unicode="&#x13d;" horiz-adv-x="357" 
d="M81 0v708h70v-643h202v-65h-272zM236 534h-50l41 174h58z" />
    <glyph glyph-name="lcaron" unicode="&#x13e;" horiz-adv-x="220" 
d="M77 0v756h66v-756h-66zM239 534h-50l41 174h58z" />
    <glyph glyph-name="Ldot" unicode="&#x13f;" horiz-adv-x="357" 
d="M81 0v708h70v-643h202v-65h-272zM334 328q0 -21 -13 -34.5t-31 -13.5q-19 0 -31.5 13.5t-12.5 34.5q0 20 12.5 34t31.5 14t31.5 -14t12.5 -34z" />
    <glyph glyph-name="ldot" unicode="&#x140;" horiz-adv-x="285" 
d="M77 0v756h66v-756h-66zM296 328q0 -21 -13 -34.5t-31 -13.5q-19 0 -31.5 13.5t-12.5 34.5q0 20 12.5 34t31.5 14t31.5 -14t12.5 -34z" />
    <glyph glyph-name="Lslash" unicode="&#x141;" horiz-adv-x="355" 
d="M81 0v236l-43 -45v66l43 45v406h69v-354l131 133v-66l-131 -133v-225h201v-63h-270z" />
    <glyph glyph-name="lslash" unicode="&#x142;" horiz-adv-x="223" 
d="M145 382v-382h-67v331l-43 -46v63l43 45v363h67v-312l51 55v-62z" />
    <glyph glyph-name="Nacute" unicode="&#x143;" horiz-adv-x="561" 
d="M396 0l-247 589h-3v-589h-65v708h87l245 -589h3v589h64v-708h-84zM280 764h-56l90 144h72z" />
    <glyph glyph-name="nacute" unicode="&#x144;" 
d="M331 0v320q0 23 -2.5 46.5t-11 43t-24 32t-40.5 12.5t-44.5 -13.5t-33 -37t-21 -54t-7.5 -63.5v-286h-66v371q0 16 -0.5 34.5t-1 36t-1 32t-1.5 22.5h64q2 -19 3 -46t1 -51h2q14 50 46 81.5t80 31.5q40 0 64.5 -17t37.5 -44.5t17.5 -62t4.5 -68.5v-320h-66zM242 569h-56
l90 144h72z" />
    <glyph glyph-name="Ncommaaccent" unicode="&#x145;" horiz-adv-x="561" 
d="M396 0l-247 589h-3v-589h-65v708h87l245 -589h3v589h64v-708h-84zM260 -219h-50l41 174h58z" />
    <glyph glyph-name="ncommaaccent" unicode="&#x146;" 
d="M331 0v320q0 23 -2.5 46.5t-11 43t-24 32t-40.5 12.5t-44.5 -13.5t-33 -37t-21 -54t-7.5 -63.5v-286h-66v371q0 16 -0.5 34.5t-1 36t-1 32t-1.5 22.5h64q2 -19 3 -46t1 -51h2q14 50 46 81.5t80 31.5q40 0 64.5 -17t37.5 -44.5t17.5 -62t4.5 -68.5v-320h-66zM218 -219h-50
l41 174h58z" />
    <glyph glyph-name="Ncaron" unicode="&#x147;" horiz-adv-x="561" 
d="M396 0l-247 589h-3v-589h-65v708h87l245 -589h3v589h64v-708h-84zM317 763h-70l-103 144h65l72 -105l72 105h66z" />
    <glyph glyph-name="ncaron" unicode="&#x148;" 
d="M331 0v320q0 23 -2.5 46.5t-11 43t-24 32t-40.5 12.5t-44.5 -13.5t-33 -37t-21 -54t-7.5 -63.5v-286h-66v371q0 16 -0.5 34.5t-1 36t-1 32t-1.5 22.5h64q2 -19 3 -46t1 -51h2q14 50 46 81.5t80 31.5q40 0 64.5 -17t37.5 -44.5t17.5 -62t4.5 -68.5v-320h-66zM275 568h-70
l-103 144h65l72 -105l72 105h66z" />
    <glyph glyph-name="Omacron" unicode="&#x14c;" horiz-adv-x="570" 
d="M519 355q0 -83 -16 -151.5t-46 -117.5t-73 -76t-98 -27t-98.5 27t-74 76t-46.5 117.5t-16 151.5q0 82 15.5 150.5t45.5 117t73.5 75.5t100.5 27q55 0 98 -27t73 -75.5t46 -117t16 -150.5zM446 355q0 64 -10 120t-30.5 97t-50.5 65t-69 24q-41 0 -71.5 -24t-50.5 -65
t-30 -97t-10 -120t10 -120t30 -98t50.5 -66t71.5 -24q40 0 70 24t50 66t30 98t10 120zM161 809v52h249v-52h-249z" />
    <glyph glyph-name="omacron" unicode="&#x14d;" horiz-adv-x="440" 
d="M393 247q0 -59 -12 -107t-34 -83t-54.5 -54t-72.5 -19t-72 19t-54.5 54t-34.5 83t-12 107t11.5 108t33.5 84t54.5 54t73.5 19q40 0 72.5 -19t54.5 -54t34 -84t12 -108zM325 248q0 44 -6.5 82t-19.5 65.5t-32.5 43.5t-46.5 16t-47 -16t-32.5 -43.5t-19 -65.5t-6.5 -82
t6.5 -81t19 -65t32.5 -43.5t47 -15.5t47 15.5t32.5 43.5t19 65t6.5 81zM96 614v52h249v-52h-249z" />
    <glyph glyph-name="Obreve" unicode="&#x14e;" horiz-adv-x="570" 
d="M519 355q0 -83 -16 -151.5t-46 -117.5t-73 -76t-98 -27t-98.5 27t-74 76t-46.5 117.5t-16 151.5q0 82 15.5 150.5t45.5 117t73.5 75.5t100.5 27q55 0 98 -27t73 -75.5t46 -117t16 -150.5zM446 355q0 64 -10 120t-30.5 97t-50.5 65t-69 24q-41 0 -71.5 -24t-50.5 -65
t-30 -97t-10 -120t10 -120t30 -98t50.5 -66t71.5 -24q40 0 70 24t50 66t30 98t10 120zM416 900q-8 -69 -44.5 -100.5t-87.5 -31.5q-49 0 -85.5 31.5t-43.5 100.5h50q6 -41 28.5 -60t50.5 -19q31 0 52.5 18t29.5 61h50z" />
    <glyph glyph-name="obreve" unicode="&#x14f;" horiz-adv-x="440" 
d="M393 247q0 -59 -12 -107t-34 -83t-54.5 -54t-72.5 -19t-72 19t-54.5 54t-34.5 83t-12 107t11.5 108t33.5 84t54.5 54t73.5 19q40 0 72.5 -19t54.5 -54t34 -84t12 -108zM325 248q0 44 -6.5 82t-19.5 65.5t-32.5 43.5t-46.5 16t-47 -16t-32.5 -43.5t-19 -65.5t-6.5 -82
t6.5 -81t19 -65t32.5 -43.5t47 -15.5t47 15.5t32.5 43.5t19 65t6.5 81zM351 705q-8 -69 -44.5 -100.5t-87.5 -31.5q-49 0 -85.5 31.5t-43.5 100.5h50q6 -41 28.5 -60t50.5 -19q31 0 52.5 18t29.5 61h50z" />
    <glyph glyph-name="Ohungarumlaut" unicode="&#x150;" horiz-adv-x="570" 
d="M519 355q0 -83 -16 -151.5t-46 -117.5t-73 -76t-98 -27t-98.5 27t-74 76t-46.5 117.5t-16 151.5q0 82 15.5 150.5t45.5 117t73.5 75.5t100.5 27q55 0 98 -27t73 -75.5t46 -117t16 -150.5zM446 355q0 64 -10 120t-30.5 97t-50.5 65t-69 24q-41 0 -71.5 -24t-50.5 -65
t-30 -97t-10 -120t10 -120t30 -98t50.5 -66t71.5 -24q40 0 70 24t50 66t30 98t10 120zM242 764h-56l90 144h72zM376 764h-56l90 144h72z" />
    <glyph glyph-name="ohungarumlaut" unicode="&#x151;" horiz-adv-x="440" 
d="M393 247q0 -59 -12 -107t-34 -83t-54.5 -54t-72.5 -19t-72 19t-54.5 54t-34.5 83t-12 107t11.5 108t33.5 84t54.5 54t73.5 19q40 0 72.5 -19t54.5 -54t34 -84t12 -108zM325 248q0 44 -6.5 82t-19.5 65.5t-32.5 43.5t-46.5 16t-47 -16t-32.5 -43.5t-19 -65.5t-6.5 -82
t6.5 -81t19 -65t32.5 -43.5t47 -15.5t47 15.5t32.5 43.5t19 65t6.5 81zM175 569h-56l90 144h72zM309 569h-56l90 144h72z" />
    <glyph glyph-name="OE" unicode="&#x152;" horiz-adv-x="672" 
d="M309 0q-59 0 -106.5 22.5t-81.5 67.5t-52 111.5t-18 153.5t18.5 153t52 110.5t81 67t106.5 22.5h312v-62h-205v-249h191v-59h-191v-275h214v-63h-321zM349 647h-38q-40 0 -74.5 -18t-60 -54t-40 -91t-14.5 -129q0 -75 14.5 -130.5t40 -91.5t60 -54t74.5 -18h38v586z" />
    <glyph glyph-name="oe" unicode="&#x153;" horiz-adv-x="696" 
d="M387 234q0 -41 7 -75.5t20.5 -60t34 -40t48.5 -14.5q36 0 57.5 22t34.5 53l50 -29q-18 -45 -53.5 -75.5t-90.5 -30.5q-52 0 -86.5 29t-51.5 79q-17 -51 -51.5 -79.5t-85.5 -28.5q-40 0 -72 19t-54.5 54t-34.5 83t-12 107t11.5 108t33.5 84t54.5 54t73.5 19q50 0 86 -29
t53 -81q16 50 50 80t84 30q44 0 74.5 -19t49.5 -51.5t27.5 -76.5t8.5 -94v-37h-266zM324 248q0 44 -6.5 82t-19 65.5t-32 43.5t-46.5 16t-47 -16t-32.5 -43.5t-19 -65.5t-6.5 -82t6.5 -81t19 -65t32.5 -43.5t47 -15.5t46.5 15.5t32.5 43.5t19 65t6 81zM587 289
q0 75 -23 120.5t-72 45.5q-29 0 -48.5 -17.5t-32 -43t-18 -54.5t-5.5 -51h199z" />
    <glyph glyph-name="Racute" unicode="&#x154;" horiz-adv-x="476" 
d="M369 0l-128 328h-91v-328h-69v708h170q35 0 67.5 -9.5t58 -31.5t41 -58t15.5 -88q0 -45 -11.5 -77.5t-30 -54.5t-41 -34t-44.5 -15l138 -340h-75zM365 518q0 38 -10.5 63.5t-28 40.5t-40 21t-46.5 6h-90v-266h93q57 0 89.5 35.5t32.5 99.5zM234 764h-56l90 144h72z" />
    <glyph glyph-name="racute" unicode="&#x155;" horiz-adv-x="274" 
d="M147 388q14 65 43 94t66 29q8 0 12 -1l-2 -68q-4 1 -7.5 1.5t-8.5 0.5q-25 0 -44.5 -17t-32.5 -44t-19.5 -61.5t-6.5 -68.5v-253h-66v371q0 16 -0.5 34.5t-1 36t-1 32t-1.5 22.5h64q2 -19 3 -47.5t1 -60.5h2zM146 569h-56l90 144h72z" />
    <glyph glyph-name="Rcommaaccent" unicode="&#x156;" horiz-adv-x="476" 
d="M369 0l-128 328h-91v-328h-69v708h170q35 0 67.5 -9.5t58 -31.5t41 -58t15.5 -88q0 -45 -11.5 -77.5t-30 -54.5t-41 -34t-44.5 -15l138 -340h-75zM365 518q0 38 -10.5 63.5t-28 40.5t-40 21t-46.5 6h-90v-266h93q57 0 89.5 35.5t32.5 99.5zM229 -219h-50l41 174h58z" />
    <glyph glyph-name="rcommaaccent" unicode="&#x157;" horiz-adv-x="274" 
d="M147 388q14 65 43 94t66 29q8 0 12 -1l-2 -68q-4 1 -7.5 1.5t-8.5 0.5q-25 0 -44.5 -17t-32.5 -44t-19.5 -61.5t-6.5 -68.5v-253h-66v371q0 16 -0.5 34.5t-1 36t-1 32t-1.5 22.5h64q2 -19 3 -47.5t1 -60.5h2zM99 -219h-50l41 174h58z" />
    <glyph glyph-name="Rcaron" unicode="&#x158;" horiz-adv-x="476" 
d="M369 0l-128 328h-91v-328h-69v708h170q35 0 67.5 -9.5t58 -31.5t41 -58t15.5 -88q0 -45 -11.5 -77.5t-30 -54.5t-41 -34t-44.5 -15l138 -340h-75zM365 518q0 38 -10.5 63.5t-28 40.5t-40 21t-46.5 6h-90v-266h93q57 0 89.5 35.5t32.5 99.5zM266 763h-70l-103 144h65
l72 -105l72 105h66z" />
    <glyph glyph-name="rcaron" unicode="&#x159;" horiz-adv-x="274" 
d="M147 388q14 65 43 94t66 29q8 0 12 -1l-2 -68q-4 1 -7.5 1.5t-8.5 0.5q-25 0 -44.5 -17t-32.5 -44t-19.5 -61.5t-6.5 -68.5v-253h-66v371q0 16 -0.5 34.5t-1 36t-1 32t-1.5 22.5h64q2 -19 3 -47.5t1 -60.5h2zM207 568h-70l-103 144h65l72 -105l72 105h66z" />
    <glyph glyph-name="Sacute" unicode="&#x15a;" horiz-adv-x="434" 
d="M388 181q0 -47 -14 -83.5t-38.5 -62t-57.5 -39t-70 -13.5q-54 0 -99.5 23t-73.5 61l43 49q23 -33 58 -51t71 -18q48 0 80.5 34t32.5 97q0 30 -10 53t-27 41t-38.5 32t-45.5 26q-29 14 -55 31.5t-45.5 40.5t-31.5 54.5t-12 73.5q0 49 15 85.5t40.5 61t57.5 36.5t67 12
q48 0 86.5 -16.5t64.5 -51.5l-43 -49q-20 29 -47 41.5t-59 12.5q-21 0 -41.5 -7.5t-36.5 -23.5t-26 -41t-10 -59q0 -30 9 -52t24.5 -39t36 -30t42.5 -24q28 -14 55.5 -32t49.5 -42t35 -56t13 -75zM225 764h-56l90 144h72z" />
    <glyph glyph-name="sacute" unicode="&#x15b;" horiz-adv-x="340" 
d="M266 410q-13 22 -33.5 35.5t-49.5 13.5q-32 0 -52.5 -23.5t-20.5 -61.5q0 -40 20 -58t60 -33q20 -8 40 -19.5t35.5 -28.5t25.5 -40.5t10 -56.5q0 -73 -39.5 -113.5t-102.5 -40.5q-42 0 -77 19.5t-58 52.5l40 43q17 -26 40.5 -42.5t55.5 -16.5q35 0 56.5 25.5t21.5 67.5
q0 24 -8 40.5t-21 27.5t-29.5 19t-34.5 15q-19 7 -36.5 17t-31.5 26t-22.5 38.5t-8.5 54.5q0 31 10.5 57t29.5 44.5t43.5 29t53.5 10.5q42 0 72.5 -16.5t49.5 -42.5zM180 569h-56l90 144h72z" />
    <glyph glyph-name="Scircumflex" unicode="&#x15c;" horiz-adv-x="434" 
d="M388 181q0 -47 -14 -83.5t-38.5 -62t-57.5 -39t-70 -13.5q-54 0 -99.5 23t-73.5 61l43 49q23 -33 58 -51t71 -18q48 0 80.5 34t32.5 97q0 30 -10 53t-27 41t-38.5 32t-45.5 26q-29 14 -55 31.5t-45.5 40.5t-31.5 54.5t-12 73.5q0 49 15 85.5t40.5 61t57.5 36.5t67 12
q48 0 86.5 -16.5t64.5 -51.5l-43 -49q-20 29 -47 41.5t-59 12.5q-21 0 -41.5 -7.5t-36.5 -23.5t-26 -41t-10 -59q0 -30 9 -52t24.5 -39t36 -30t42.5 -24q28 -14 55.5 -32t49.5 -42t35 -56t13 -75zM309 764l-72 105l-72 -105h-65l103 144h70l102 -144h-66z" />
    <glyph glyph-name="scircumflex" unicode="&#x15d;" horiz-adv-x="340" 
d="M266 410q-13 22 -33.5 35.5t-49.5 13.5q-32 0 -52.5 -23.5t-20.5 -61.5q0 -40 20 -58t60 -33q20 -8 40 -19.5t35.5 -28.5t25.5 -40.5t10 -56.5q0 -73 -39.5 -113.5t-102.5 -40.5q-42 0 -77 19.5t-58 52.5l40 43q17 -26 40.5 -42.5t55.5 -16.5q35 0 56.5 25.5t21.5 67.5
q0 24 -8 40.5t-21 27.5t-29.5 19t-34.5 15q-19 7 -36.5 17t-31.5 26t-22.5 38.5t-8.5 54.5q0 31 10.5 57t29.5 44.5t43.5 29t53.5 10.5q42 0 72.5 -16.5t49.5 -42.5zM258 569l-72 105l-72 -105h-65l103 144h70l102 -144h-66z" />
    <glyph glyph-name="Scedilla" unicode="&#x15e;" horiz-adv-x="434" 
d="M388 181q0 -42 -11.5 -76.5t-32 -59t-48 -40t-59.5 -20.5l-34 -60q12 4 32 4q27 0 51 -17t24 -53q0 -25 -10 -42t-25.5 -27t-35 -14t-37.5 -4q-19 0 -42.5 4t-43.5 14l15 36q15 -8 32 -11t34 -3q7 0 17 2t19 7.5t15.5 14t6.5 20.5q0 20 -13 29.5t-36 9.5q-21 0 -40 -8
l-16 15l47 81q-51 2 -93.5 24.5t-68.5 59.5l43 49q23 -33 58 -51t71 -18q48 0 80.5 34t32.5 97q0 30 -10 53t-27 41t-38.5 32t-45.5 26q-29 14 -55 31.5t-45.5 40.5t-31.5 54.5t-12 73.5q0 49 15 85.5t40.5 61t57.5 36.5t67 12q48 0 86.5 -16.5t64.5 -51.5l-43 -49
q-20 29 -47 41.5t-59 12.5q-21 0 -41.5 -7.5t-36.5 -23.5t-26 -41t-10 -59q0 -30 9 -52t24.5 -39t36 -30t42.5 -24q28 -14 55.5 -32t49.5 -42t35 -56t13 -75z" />
    <glyph glyph-name="scedilla" unicode="&#x15f;" horiz-adv-x="340" 
d="M266 410q-13 22 -33.5 35.5t-49.5 13.5q-32 0 -52.5 -23.5t-20.5 -61.5q0 -40 20 -58t60 -33q20 -8 40 -19.5t35.5 -28.5t25.5 -40.5t10 -56.5q0 -62 -29 -100.5t-77 -49.5l-36 -63q12 4 32 4q27 0 51 -17t24 -53q0 -25 -10 -42t-25.5 -27t-35 -14t-37.5 -4
q-19 0 -42.5 4t-43.5 14l15 36q15 -8 32 -11t34 -3q7 0 17 2t19 7.5t15.5 14t6.5 20.5q0 20 -13 29.5t-36 9.5q-21 0 -40 -8l-16 15l47 82q-40 2 -73.5 21t-55.5 51l40 43q17 -26 40.5 -42.5t55.5 -16.5q35 0 56.5 25.5t21.5 67.5q0 24 -8 40.5t-21 27.5t-29.5 19t-34.5 15
q-19 7 -36.5 17t-31.5 26t-22.5 38.5t-8.5 54.5q0 31 10.5 57t29.5 44.5t43.5 29t53.5 10.5q42 0 72.5 -16.5t49.5 -42.5z" />
    <glyph glyph-name="Scaron" unicode="&#x160;" horiz-adv-x="434" 
d="M388 181q0 -47 -14 -83.5t-38.5 -62t-57.5 -39t-70 -13.5q-54 0 -99.5 23t-73.5 61l43 49q23 -33 58 -51t71 -18q48 0 80.5 34t32.5 97q0 30 -10 53t-27 41t-38.5 32t-45.5 26q-29 14 -55 31.5t-45.5 40.5t-31.5 54.5t-12 73.5q0 49 15 85.5t40.5 61t57.5 36.5t67 12
q48 0 86.5 -16.5t64.5 -51.5l-43 -49q-20 29 -47 41.5t-59 12.5q-21 0 -41.5 -7.5t-36.5 -23.5t-26 -41t-10 -59q0 -30 9 -52t24.5 -39t36 -30t42.5 -24q28 -14 55.5 -32t49.5 -42t35 -56t13 -75zM273 763h-70l-103 144h65l72 -105l72 105h66z" />
    <glyph glyph-name="scaron" unicode="&#x161;" horiz-adv-x="340" 
d="M266 410q-13 22 -33.5 35.5t-49.5 13.5q-32 0 -52.5 -23.5t-20.5 -61.5q0 -40 20 -58t60 -33q20 -8 40 -19.5t35.5 -28.5t25.5 -40.5t10 -56.5q0 -73 -39.5 -113.5t-102.5 -40.5q-42 0 -77 19.5t-58 52.5l40 43q17 -26 40.5 -42.5t55.5 -16.5q35 0 56.5 25.5t21.5 67.5
q0 24 -8 40.5t-21 27.5t-29.5 19t-34.5 15q-19 7 -36.5 17t-31.5 26t-22.5 38.5t-8.5 54.5q0 31 10.5 57t29.5 44.5t43.5 29t53.5 10.5q42 0 72.5 -16.5t49.5 -42.5zM219 568h-70l-103 144h65l72 -105l72 105h66z" />
    <glyph glyph-name="Tcommaaccent" unicode="&#x162;" horiz-adv-x="342" 
d="M205 648v-648h-69v648h-136v60h342v-60h-137zM154 -219h-50l41 174h58z" />
    <glyph glyph-name="tcommaaccent" unicode="&#x163;" horiz-adv-x="250" 
d="M238 0q-11 -5 -27 -9t-33 -4q-52 0 -73.5 36t-21.5 96v323h-65v54h64v137h65v-137h88v-54h-88v-311q0 -45 13 -65.5t39 -20.5q9 0 19 2.5t17 5.5zM143 -219h-50l41 174h58z" />
    <glyph glyph-name="Tcaron" unicode="&#x164;" horiz-adv-x="342" 
d="M205 648v-648h-69v648h-136v60h342v-60h-137zM207 763h-70l-103 144h65l72 -105l72 105h66z" />
    <glyph glyph-name="tcaron" unicode="&#x165;" horiz-adv-x="250" 
d="M238 0q-11 -5 -27 -9t-33 -4q-52 0 -73.5 36t-21.5 96v323h-65v54h64v137h65v-137h88v-54h-88v-311q0 -45 13 -65.5t39 -20.5q9 0 19 2.5t17 5.5zM236 557h-50l41 174h58z" />
    <glyph glyph-name="Tbar" unicode="&#x166;" horiz-adv-x="337" 
d="M203 496v-496h-69v496h-97v43h97v109h-136v60h342v-60h-137v-109h92v-43h-92z" />
    <glyph glyph-name="tbar" unicode="&#x167;" horiz-adv-x="250" 
d="M147 270v-139q0 -45 13 -65.5t39 -20.5q9 0 19 2.5t17 5.5l3 -53q-11 -5 -27 -9t-33 -4q-52 0 -73.5 36t-21.5 96v151h-52v43h52v129h-65v54h64v137h65v-137h88v-54h-88v-129h73v-43h-73z" />
    <glyph glyph-name="Utilde" unicode="&#x168;" horiz-adv-x="550" 
d="M477 248q0 -55 -10.5 -103.5t-34 -84.5t-62.5 -56.5t-96 -20.5t-95.5 20.5t-62 56.5t-33.5 84.5t-10 103.5v460h70v-451q0 -39 5.5 -77t20 -67.5t40 -47.5t66.5 -18q40 0 66 18t40.5 47.5t20 67t5.5 77.5v451h70v-460zM401 880q-3 -49 -21.5 -73.5t-47.5 -24.5
q-16 0 -29.5 5t-33.5 19q-23 15 -32.5 19.5t-20.5 4.5q-16 0 -23 -13t-11 -36h-37q3 45 21 73t48 28q18 0 30.5 -5.5t32.5 -18.5q23 -15 33 -19.5t21 -4.5q16 0 22.5 10.5t10.5 35.5h37z" />
    <glyph glyph-name="utilde" unicode="&#x169;" 
d="M139 496v-320q0 -23 2.5 -46.5t11 -43t23.5 -32t41 -12.5q25 0 44.5 13.5t33 37t21 54t7.5 63.5v286h66v-371q0 -16 0.5 -34.5t1 -36t1 -32.5t1.5 -22h-64q-2 19 -3 46t-1 51h-2q-14 -50 -46 -81.5t-80 -31.5q-40 0 -64.5 17t-37.5 44.5t-17.5 61.5t-4.5 69v320h66z
M359 685q-3 -49 -21.5 -73.5t-47.5 -24.5q-16 0 -29.5 5t-33.5 19q-23 15 -32.5 19.5t-20.5 4.5q-16 0 -23 -13t-11 -36h-37q3 45 21 73t48 28q18 0 30.5 -5.5t32.5 -18.5q23 -15 33 -19.5t21 -4.5q16 0 22.5 10.5t10.5 35.5h37z" />
    <glyph glyph-name="Umacron" unicode="&#x16a;" horiz-adv-x="550" 
d="M477 248q0 -55 -10.5 -103.5t-34 -84.5t-62.5 -56.5t-96 -20.5t-95.5 20.5t-62 56.5t-33.5 84.5t-10 103.5v460h70v-451q0 -39 5.5 -77t20 -67.5t40 -47.5t66.5 -18q40 0 66 18t40.5 47.5t20 67t5.5 77.5v451h70v-460zM150 809v52h249v-52h-249z" />
    <glyph glyph-name="umacron" unicode="&#x16b;" 
d="M139 496v-320q0 -23 2.5 -46.5t11 -43t23.5 -32t41 -12.5q25 0 44.5 13.5t33 37t21 54t7.5 63.5v286h66v-371q0 -16 0.5 -34.5t1 -36t1 -32.5t1.5 -22h-64q-2 19 -3 46t-1 51h-2q-14 -50 -46 -81.5t-80 -31.5q-40 0 -64.5 17t-37.5 44.5t-17.5 61.5t-4.5 69v320h66z
M107 614v52h249v-52h-249z" />
    <glyph glyph-name="Ubreve" unicode="&#x16c;" horiz-adv-x="550" 
d="M477 248q0 -55 -10.5 -103.5t-34 -84.5t-62.5 -56.5t-96 -20.5t-95.5 20.5t-62 56.5t-33.5 84.5t-10 103.5v460h70v-451q0 -39 5.5 -77t20 -67.5t40 -47.5t66.5 -18q40 0 66 18t40.5 47.5t20 67t5.5 77.5v451h70v-460zM406 900q-8 -69 -44.5 -100.5t-87.5 -31.5
q-49 0 -85.5 31.5t-43.5 100.5h50q6 -41 28.5 -60t50.5 -19q31 0 52.5 18t29.5 61h50z" />
    <glyph glyph-name="ubreve" unicode="&#x16d;" 
d="M139 496v-320q0 -23 2.5 -46.5t11 -43t23.5 -32t41 -12.5q25 0 44.5 13.5t33 37t21 54t7.5 63.5v286h66v-371q0 -16 0.5 -34.5t1 -36t1 -32.5t1.5 -22h-64q-2 19 -3 46t-1 51h-2q-14 -50 -46 -81.5t-80 -31.5q-40 0 -64.5 17t-37.5 44.5t-17.5 61.5t-4.5 69v320h66z
M362 705q-8 -69 -44.5 -100.5t-87.5 -31.5q-49 0 -85.5 31.5t-43.5 100.5h50q6 -41 28.5 -60t50.5 -19q31 0 52.5 18t29.5 61h50z" />
    <glyph glyph-name="Uring" unicode="&#x16e;" horiz-adv-x="550" 
d="M477 248q0 -55 -10.5 -103.5t-34 -84.5t-62.5 -56.5t-96 -20.5t-95.5 20.5t-62 56.5t-33.5 84.5t-10 103.5v460h70v-451q0 -39 5.5 -77t20 -67.5t40 -47.5t66.5 -18q40 0 66 18t40.5 47.5t20 67t5.5 77.5v451h70v-460zM367 851q0 -43 -26.5 -72t-67.5 -29q-40 0 -66 29
t-26 72q0 44 26 73t66 29q41 0 67.5 -29t26.5 -73zM329 851q0 27 -14.5 47t-41.5 20q-26 0 -40.5 -20t-14.5 -47q0 -26 14.5 -46t40.5 -20q27 0 41.5 20t14.5 46z" />
    <glyph glyph-name="uring" unicode="&#x16f;" 
d="M139 496v-320q0 -23 2.5 -46.5t11 -43t23.5 -32t41 -12.5q25 0 44.5 13.5t33 37t21 54t7.5 63.5v286h66v-371q0 -16 0.5 -34.5t1 -36t1 -32.5t1.5 -22h-64q-2 19 -3 46t-1 51h-2q-14 -50 -46 -81.5t-80 -31.5q-40 0 -64.5 17t-37.5 44.5t-17.5 61.5t-4.5 69v320h66z
M324 656q0 -43 -26.5 -72t-67.5 -29q-40 0 -66 29t-26 72q0 44 26 73t66 29q41 0 67.5 -29t26.5 -73zM286 656q0 27 -14.5 47t-41.5 20q-26 0 -40.5 -20t-14.5 -47q0 -26 14.5 -46t40.5 -20q27 0 41.5 20t14.5 46z" />
    <glyph glyph-name="Uhungarumlaut" unicode="&#x170;" horiz-adv-x="550" 
d="M477 248q0 -55 -10.5 -103.5t-34 -84.5t-62.5 -56.5t-96 -20.5t-95.5 20.5t-62 56.5t-33.5 84.5t-10 103.5v460h70v-451q0 -39 5.5 -77t20 -67.5t40 -47.5t66.5 -18q40 0 66 18t40.5 47.5t20 67t5.5 77.5v451h70v-460zM230 764h-56l90 144h72zM364 764h-56l90 144h72z
" />
    <glyph glyph-name="uhungarumlaut" unicode="&#x171;" 
d="M139 496v-320q0 -23 2.5 -46.5t11 -43t23.5 -32t41 -12.5q25 0 44.5 13.5t33 37t21 54t7.5 63.5v286h66v-371q0 -16 0.5 -34.5t1 -36t1 -32.5t1.5 -22h-64q-2 19 -3 46t-1 51h-2q-14 -50 -46 -81.5t-80 -31.5q-40 0 -64.5 17t-37.5 44.5t-17.5 61.5t-4.5 69v320h66z
M186 569h-56l90 144h72zM320 569h-56l90 144h72z" />
    <glyph glyph-name="Uogonek" unicode="&#x172;" horiz-adv-x="550" 
d="M477 248q0 -49 -8 -93t-27 -78.5t-49 -58t-73 -31.5q-29 -32 -44 -56.5t-15 -51.5q0 -21 13.5 -34.5t32.5 -13.5q28 0 47 22l17 -36q-16 -17 -36 -26.5t-43 -9.5q-37 0 -61.5 21.5t-24.5 59.5q0 35 19.5 66t43.5 55q-56 1 -93.5 22t-60 57t-32.5 83.5t-10 102.5v460h70
v-451q0 -39 5.5 -77t20 -67.5t40 -47.5t66.5 -18q40 0 66 18t40.5 47.5t20 67t5.5 77.5v451h70v-460v0z" />
    <glyph glyph-name="uogonek" unicode="&#x173;" horiz-adv-x="468" 
d="M372 0q-34 -37 -52.5 -64.5t-18.5 -56.5q0 -21 13.5 -34.5t32.5 -13.5q28 0 47 22l17 -36q-16 -17 -36 -26.5t-43 -9.5q-37 0 -61.5 21.5t-24.5 59.5q0 21 7.5 40.5t19.5 37t26.5 33t28.5 27.5h-1q0 8 -0.5 19.5t-1 25t-0.5 27v25.5h-2q-14 -49 -46 -81.5t-80 -32.5
q-40 0 -64.5 17.5t-37.5 45t-17.5 62t-4.5 68.5v320h66v-320q0 -23 2.5 -46.5t11 -43t23.5 -31.5t41 -12q25 0 44.5 13.5t33 36.5t21 53.5t7.5 64.5v285h66v-370q0 -9 0.5 -27t1 -37.5t1 -36.5t1.5 -25h-21z" />
    <glyph glyph-name="Wcircumflex" unicode="&#x174;" horiz-adv-x="728" 
d="M573 0h-92l-116 606h-2l-115 -606h-92l-139 708h71l116 -619h2l118 619h84l120 -619h2l115 619h68zM438 764l-72 105l-72 -105h-65l103 144h70l102 -144h-66z" />
    <glyph glyph-name="wcircumflex" unicode="&#x175;" horiz-adv-x="575" 
d="M448 0h-78l-84 403h-1l-85 -403h-75l-101 496h67l76 -420h1l87 420h64l88 -420h1l76 420h67zM359 569l-72 105l-72 -105h-65l103 144h70l102 -144h-66z" />
    <glyph glyph-name="Ycircumflex" unicode="&#x176;" horiz-adv-x="422" 
d="M244 291v-291h-68v291l-176 417h76l134 -345l137 345h75zM282 764l-72 105l-72 -105h-65l103 144h70l102 -144h-66z" />
    <glyph glyph-name="ycircumflex" unicode="&#x177;" horiz-adv-x="375" 
d="M202 -105q-8 -32 -18.5 -57t-25.5 -42t-34.5 -26.5t-46.5 -9.5q-14 0 -28 2.5t-23 5.5l9 59q7 -2 17 -4t20 -2q29 0 43.5 20t23.5 55l22 86l-144 514h70l107 -419h2l95 419h67zM267 569l-72 105l-72 -105h-65l103 144h70l102 -144h-66z" />
    <glyph glyph-name="Ydieresis" unicode="&#x178;" horiz-adv-x="422" 
d="M244 291v-291h-68v291l-176 417h76l134 -345l137 345h75zM182 843q0 -20 -12.5 -32.5t-29.5 -12.5q-19 0 -30.5 12.5t-11.5 32.5q0 19 11.5 32t30.5 13q17 0 29.5 -13t12.5 -32zM325 843q0 -20 -12 -32.5t-30 -12.5q-17 0 -29.5 12.5t-12.5 32.5q0 19 12.5 32t29.5 13
q18 0 30 -13t12 -32z" />
    <glyph glyph-name="Zacute" unicode="&#x179;" horiz-adv-x="397" 
d="M29 0v60l259 586h-248v62h321v-61l-257 -584h259v-63h-334zM203 764h-56l90 144h72z" />
    <glyph glyph-name="zacute" unicode="&#x17a;" horiz-adv-x="333" 
d="M26 0v58l207 381h-191v57h260v-56l-206 -383h207v-57h-277zM174 569h-56l90 144h72z" />
    <glyph glyph-name="Zdotaccent" unicode="&#x17b;" horiz-adv-x="397" 
d="M29 0v60l259 586h-248v62h321v-61l-257 -584h259v-63h-334zM246 843q0 -21 -13 -34.5t-31 -13.5q-19 0 -31.5 13.5t-12.5 34.5q0 20 12.5 34t31.5 14t31.5 -14t12.5 -34z" />
    <glyph glyph-name="zdotaccent" unicode="&#x17c;" horiz-adv-x="333" 
d="M26 0v58l207 381h-191v57h260v-56l-206 -383h207v-57h-277zM219 648q0 -21 -13 -34.5t-31 -13.5q-19 0 -31.5 13.5t-12.5 34.5q0 20 12.5 34t31.5 14t31.5 -14t12.5 -34z" />
    <glyph glyph-name="Zcaron" unicode="&#x17d;" horiz-adv-x="397" 
d="M29 0v60l259 586h-248v62h321v-61l-257 -584h259v-63h-334zM237 763h-70l-103 144h65l72 -105l72 105h66z" />
    <glyph glyph-name="zcaron" unicode="&#x17e;" horiz-adv-x="333" 
d="M26 0v58l207 381h-191v57h260v-56l-206 -383h207v-57h-277zM210 568h-70l-103 144h65l72 -105l72 105h66z" />
    <glyph glyph-name="florin" unicode="&#x192;" 
d="M414 647q-21 16 -49 16q-20 0 -34 -8t-23.5 -21.5t-15 -31.5t-8.5 -38l-24 -145h105v-51h-113l-62 -371q-5 -31 -14 -57t-24 -44.5t-36 -28.5t-51 -10q-15 0 -30 2.5t-26 8.5l15 56q14 -8 31 -8q21 0 33.5 8.5t20.5 23.5t12.5 36t8.5 46l55 338h-96v51h102l23 137
q5 33 14 63t25.5 53t41.5 36.5t62 13.5q24 0 44.5 -6t33.5 -16z" />
    <glyph glyph-name="Ohorn" unicode="&#x1a0;" horiz-adv-x="570" 
d="M458 622q29 -49 45 -116.5t16 -150.5t-16 -151.5t-46 -117.5t-73 -76t-98 -27t-98.5 27t-74 76t-46.5 117.5t-16 151.5q0 82 15.5 150.5t45.5 117t73.5 75.5t100.5 27q36 0 60.5 -9.5t42.5 -20.5t31.5 -20.5t26.5 -9.5q60 0 60 70q0 14 -4 30t-9 27l57 16
q5 -13 8.5 -32.5t3.5 -40.5q0 -55 -26 -84t-71 -29h-8zM446 355q0 64 -10 120t-30.5 97t-50.5 65t-69 24q-41 0 -71.5 -24t-50.5 -65t-30 -97t-10 -120t10 -120t30 -98t50.5 -66t71.5 -24q40 0 70 24t50 66t30 98t10 120z" />
    <glyph glyph-name="ohorn" unicode="&#x1a1;" horiz-adv-x="440" 
d="M356 423q37 -69 37 -176q0 -59 -12 -107t-34 -83t-54.5 -54t-72.5 -19t-72 19t-54.5 54t-34.5 83t-12 107t11.5 108t33.5 84t54.5 54t73.5 19q27 0 46 -7t33.5 -16t25.5 -16t23 -7q60 0 60 70q0 14 -4 30t-9 27l57 16q5 -13 8.5 -32.5t3.5 -40.5q0 -55 -26 -84t-71 -29
h-11zM325 248q0 44 -6.5 82t-19.5 65.5t-32.5 43.5t-46.5 16t-47 -16t-32.5 -43.5t-19 -65.5t-6.5 -82t6.5 -81t19 -65t32.5 -43.5t47 -15.5t47 15.5t32.5 43.5t19 65t6.5 81z" />
    <glyph glyph-name="Uhorn" unicode="&#x1af;" horiz-adv-x="550" 
d="M477 248q0 -55 -10.5 -103.5t-34 -84.5t-62.5 -56.5t-96 -20.5t-95.5 20.5t-62 56.5t-33.5 84.5t-10 103.5v460h70v-451q0 -39 5.5 -77t20 -67.5t40 -47.5t66.5 -18q40 0 66 18t40.5 47.5t20 67t5.5 77.5v451h51q60 0 60 70q0 14 -4 30t-9 27l57 16q5 -13 8.5 -32.5
t3.5 -40.5q0 -55 -26 -84t-71 -29v-417v0z" />
    <glyph glyph-name="uhorn" unicode="&#x1b0;" 
d="M139 496v-320q0 -23 2.5 -46.5t11 -43t23.5 -32t41 -12.5q25 0 44.5 13.5t33 37t21 54t7.5 63.5v286h47q60 0 60 70q0 14 -4 30t-9 27l57 16q5 -13 8.5 -32.5t3.5 -40.5q0 -55 -26 -84t-71 -29v-328q0 -16 0.5 -34.5t1 -36t1 -32.5t1.5 -22h-64q-2 19 -3 46t-1 51h-2
q-14 -50 -46 -81.5t-80 -31.5q-40 0 -64.5 17t-37.5 44.5t-17.5 61.5t-4.5 69v320h66z" />
    <glyph glyph-name="clickdental" unicode="&#x1c0;" horiz-adv-x="222" 
d="M141 750v-1000h-60v1000h60z" />
    <glyph glyph-name="clicklateral" unicode="&#x1c1;" horiz-adv-x="444" 
d="M141 750v-1000h-60v1000h60zM363 750v-1000h-60v1000h60z" />
    <glyph glyph-name="clickretroflex" unicode="&#x1c3;" horiz-adv-x="294" 
d="M114 211v497h67v-497h-67zM194 43q0 -21 -13.5 -35.5t-33.5 -14.5t-33 14.5t-13 35.5t13 35.5t33 14.5t33.5 -14.5t13.5 -35.5z" />
    <glyph glyph-name="DZcaron" unicode="&#x1c4;" horiz-adv-x="1163" 
d="M490 353q0 -87 -18 -153t-52 -110.5t-81.5 -67t-105.5 -22.5h-152v708h153q58 0 105.5 -22.5t81 -67.5t51.5 -111.5t18 -153.5zM421 353q0 75 -14.5 130.5t-40 91.5t-60 54t-74.5 18h-82v-586h82q40 0 74.5 18t60 54t40 91t14.5 129zM570 0v60l259 586h-248v62h321v-61
l-257 -584h259v-63h-334zM773 783h-70l-103 144h65l72 -105l72 105h66z" />
    <glyph glyph-name="Dzcaron" unicode="&#x1c5;" horiz-adv-x="1099" 
d="M490 353q0 -87 -18 -153t-52 -110.5t-81.5 -67t-105.5 -22.5h-152v708h153q58 0 105.5 -22.5t81 -67.5t51.5 -111.5t18 -153.5zM421 353q0 75 -14.5 130.5t-40 91.5t-60 54t-74.5 18h-82v-586h82q40 0 74.5 18t60 54t40 91t14.5 129zM567 0v58l207 381h-191v57h260v-56
l-206 -383h207v-57h-277zM741 571h-70l-103 144h65l72 -105l72 105h66z" />
    <glyph glyph-name="dzcaron" unicode="&#x1c6;" horiz-adv-x="1024" 
d="M325 0v89h-2q-12 -45 -40 -75t-79 -30q-38 0 -67 20t-49 55.5t-30.5 84t-10.5 106.5t10 106t29.5 82.5t49 54t67.5 19.5q45 0 76 -27.5t42 -72.5h2v344h66v-756h-64zM325 248q0 44 -6.5 82t-20 65.5t-33.5 43.5t-46 16q-27 0 -46.5 -16t-32.5 -43.5t-19 -65.5t-6 -82
q0 -43 6 -80.5t19 -65.5t32.5 -44t46.5 -16t46.5 16t33 44t20 65.5t6.5 80.5zM492 0v58l207 381h-191v57h260v-56l-206 -383h207v-57h-277zM666 571h-70l-103 144h65l72 -105l72 105h66z" />
    <glyph glyph-name="LJ" unicode="&#x1c7;" horiz-adv-x="736" 
d="M81 0v708h70v-643h202v-65h-272zM660 194q0 -100 -37.5 -155.5t-120.5 -55.5q-61 0 -98 33t-51 88l62 25q7 -33 28.5 -57.5t57.5 -24.5q52 0 70.5 42t18.5 115v504h70v-514v0z" />
    <glyph glyph-name="Lj" unicode="&#x1c8;" horiz-adv-x="578" 
d="M81 0v708h70v-643h202v-65h-272zM512 648q0 -21 -12.5 -34.5t-31.5 -13.5q-18 0 -30.5 13.5t-12.5 34.5q0 20 12.5 34t30.5 14q19 0 31.5 -14t12.5 -34zM502 -73q0 -76 -29 -121.5t-98 -45.5q-8 0 -18.5 1.5t-20.5 4.5l6 60q15 -5 29 -5q20 0 32.5 9t20 24t10 35t2.5 42
v565h66v-569z" />
    <glyph glyph-name="lj" unicode="&#x1c9;" horiz-adv-x="441" 
d="M77 0v756h66v-756h-66zM375 648q0 -21 -12.5 -34.5t-31.5 -13.5q-18 0 -30.5 13.5t-12.5 34.5q0 20 12.5 34t30.5 14q19 0 31.5 -14t12.5 -34zM365 -73q0 -76 -29 -121.5t-98 -45.5q-8 0 -18.5 1.5t-20.5 4.5l6 60q15 -5 29 -5q20 0 32.5 9t20 24t10 35t2.5 42v565h66
v-569z" />
    <glyph glyph-name="NJ" unicode="&#x1ca;" horiz-adv-x="940" 
d="M396 0l-247 589h-3v-589h-65v708h87l245 -589h3v589h64v-708h-84zM864 194q0 -100 -37.5 -155.5t-120.5 -55.5q-61 0 -98 33t-51 88l62 25q7 -33 28.5 -57.5t57.5 -24.5q52 0 70.5 42t18.5 115v504h70v-514v0z" />
    <glyph glyph-name="Nj" unicode="&#x1cb;" horiz-adv-x="782" 
d="M396 0l-247 589h-3v-589h-65v708h87l245 -589h3v589h64v-708h-84zM716 648q0 -21 -12.5 -34.5t-31.5 -13.5q-18 0 -30.5 13.5t-12.5 34.5q0 20 12.5 34t30.5 14q19 0 31.5 -14t12.5 -34zM706 -73q0 -76 -29 -121.5t-98 -45.5q-8 0 -18.5 1.5t-20.5 4.5l6 60q15 -5 29 -5
q20 0 32.5 9t20 24t10 35t2.5 42v565h66v-569z" />
    <glyph glyph-name="nj" unicode="&#x1cc;" horiz-adv-x="691" 
d="M331 0v320q0 23 -2.5 46.5t-11 43t-24 32t-40.5 12.5t-44.5 -13.5t-33 -37t-21 -54t-7.5 -63.5v-286h-66v371q0 16 -0.5 34.5t-1 36t-1 32t-1.5 22.5h64q2 -19 3 -46t1 -51h2q14 50 46 81.5t80 31.5q40 0 64.5 -17t37.5 -44.5t17.5 -62t4.5 -68.5v-320h-66zM625 648
q0 -21 -12.5 -34.5t-31.5 -13.5q-18 0 -30.5 13.5t-12.5 34.5q0 20 12.5 34t30.5 14q19 0 31.5 -14t12.5 -34zM615 -73q0 -76 -29 -121.5t-98 -45.5q-8 0 -18.5 1.5t-20.5 4.5l6 60q15 -5 29 -5q20 0 32.5 9t20 24t10 35t2.5 42v565h66v-569z" />
    <glyph glyph-name="Acaron" unicode="&#x1cd;" horiz-adv-x="464" 
d="M384 0l-43 177h-218l-45 -177h-71l180 708h95l175 -708h-73zM235 645h-4l-98 -412h198zM268 783h-70l-103 144h65l72 -105l72 105h66z" />
    <glyph glyph-name="acaron" unicode="&#x1ce;" horiz-adv-x="404" 
d="M285 0q-1 8 -1.5 20t-1 25.5t-0.5 26v21.5h-2q-25 -106 -120 -106q-21 0 -42 8t-38 26t-28 45.5t-11 66.5q0 54 19 87t48 52t63.5 25.5t65.5 6.5h39v26q0 65 -24 95t-65 30q-28 0 -52 -15t-41 -38l-35 41q23 33 60 51t74 18q78 0 111 -51t33 -149v-206q0 -10 0.5 -25
t1 -30.5t1.5 -29t2 -21.5h-57zM277 252h-40q-24 0 -48 -4.5t-42.5 -17t-30.5 -34.5t-12 -57q0 -52 23 -75t50 -23q28 0 47.5 17t31 43t16.5 57t5 60v34zM227 587h-70l-103 144h65l72 -105l72 105h66z" />
    <glyph glyph-name="Icaron" unicode="&#x1cf;" horiz-adv-x="232" 
d="M81 0v708h70v-708h-70zM152 783h-70l-103 144h65l72 -105l72 105h66z" />
    <glyph glyph-name="icaron" unicode="&#x1d0;" horiz-adv-x="220" 
d="M77 0v496h66v-496h-66zM146 571h-70l-103 144h65l72 -105l72 105h66z" />
    <glyph glyph-name="Ocaron" unicode="&#x1d1;" horiz-adv-x="570" 
d="M519 355q0 -83 -16 -151.5t-46 -117.5t-73 -76t-98 -27t-98.5 27t-74 76t-46.5 117.5t-16 151.5q0 82 15.5 150.5t45.5 117t73.5 75.5t100.5 27q55 0 98 -27t73 -75.5t46 -117t16 -150.5zM446 355q0 64 -10 120t-30.5 97t-50.5 65t-69 24q-41 0 -71.5 -24t-50.5 -65
t-30 -97t-10 -120t10 -120t30 -98t50.5 -66t71.5 -24q40 0 70 24t50 66t30 98t10 120zM321 800h-70l-103 144h65l72 -105l72 105h66z" />
    <glyph glyph-name="ocaron" unicode="&#x1d2;" horiz-adv-x="440" 
d="M393 247q0 -59 -12 -107t-34 -83t-54.5 -54t-72.5 -19t-72 19t-54.5 54t-34.5 83t-12 107t11.5 108t33.5 84t54.5 54t73.5 19q40 0 72.5 -19t54.5 -54t34 -84t12 -108zM325 248q0 44 -6.5 82t-19.5 65.5t-32.5 43.5t-46.5 16t-47 -16t-32.5 -43.5t-19 -65.5t-6.5 -82
t6.5 -81t19 -65t32.5 -43.5t47 -15.5t47 15.5t32.5 43.5t19 65t6.5 81zM256 587h-70l-103 144h65l72 -105l72 105h66z" />
    <glyph glyph-name="Ucaron" unicode="&#x1d3;" horiz-adv-x="550" 
d="M477 248q0 -55 -10.5 -103.5t-34 -84.5t-62.5 -56.5t-96 -20.5t-95.5 20.5t-62 56.5t-33.5 84.5t-10 103.5v460h70v-451q0 -39 5.5 -77t20 -67.5t40 -47.5t66.5 -18q40 0 66 18t40.5 47.5t20 67t5.5 77.5v451h70v-460v0zM311 783h-70l-103 144h65l72 -105l72 105h66z" />
    <glyph glyph-name="ucaron" unicode="&#x1d4;" 
d="M139 496v-320q0 -23 2.5 -46.5t11 -43t23.5 -32t41 -12.5q25 0 44.5 13.5t33 37t21 54t7.5 63.5v286h66v-371q0 -16 0.5 -34.5t1 -36t1 -32.5t1.5 -22h-64q-2 19 -3 46t-1 51h-2q-14 -50 -46 -81.5t-80 -31.5q-40 0 -64.5 17t-37.5 44.5t-17.5 61.5t-4.5 69v320h66z
M269 571h-70l-103 144h65l72 -105l72 105h66z" />
    <glyph glyph-name="Udieresismacron" unicode="&#x1d5;" horiz-adv-x="550" 
d="M477 248q0 -55 -10.5 -103.5t-34 -84.5t-62.5 -56.5t-96 -20.5t-95.5 20.5t-62 56.5t-33.5 84.5t-10 103.5v460h70v-451q0 -39 5.5 -77t20 -67.5t40 -47.5t66.5 -18q40 0 66 18t40.5 47.5t20 67t5.5 77.5v451h70v-460v0zM389 828q0 -20 -12 -32.5t-30 -12.5
q-17 0 -29.5 12.5t-12.5 32.5q0 19 12.5 32t29.5 13q18 0 30 -13t12 -32zM246 828q0 -20 -12.5 -32.5t-29.5 -12.5q-19 0 -30.5 12.5t-11.5 32.5q0 19 11.5 32t30.5 13q17 0 29.5 -13t12.5 -32zM151 948v52h249v-52h-249z" />
    <glyph glyph-name="udieresismacron" unicode="&#x1d6;" 
d="M139 496v-320q0 -23 2.5 -46.5t11 -43t23.5 -32t41 -12.5q25 0 44.5 13.5t33 37t21 54t7.5 63.5v286h66v-371q0 -16 0.5 -34.5t1 -36t1 -32.5t1.5 -22h-64q-2 19 -3 46t-1 51h-2q-14 -50 -46 -81.5t-80 -31.5q-40 0 -64.5 17t-37.5 44.5t-17.5 61.5t-4.5 69v320h66z
M347 616q0 -20 -12 -32.5t-30 -12.5q-17 0 -29.5 12.5t-12.5 32.5q0 19 12.5 32t29.5 13q18 0 30 -13t12 -32zM204 616q0 -20 -12.5 -32.5t-29.5 -12.5q-19 0 -30.5 12.5t-11.5 32.5q0 19 11.5 32t30.5 13q17 0 29.5 -13t12.5 -32zM109 736v52h249v-52h-249z" />
    <glyph glyph-name="Udieresisacute" unicode="&#x1d7;" horiz-adv-x="550" 
d="M477 248q0 -55 -10.5 -103.5t-34 -84.5t-62.5 -56.5t-96 -20.5t-95.5 20.5t-62 56.5t-33.5 84.5t-10 103.5v460h70v-451q0 -39 5.5 -77t20 -67.5t40 -47.5t66.5 -18q40 0 66 18t40.5 47.5t20 67t5.5 77.5v451h70v-460v0zM389 828q0 -20 -12 -32.5t-30 -12.5
q-17 0 -29.5 12.5t-12.5 32.5q0 19 12.5 32t29.5 13q18 0 30 -13t12 -32zM246 828q0 -20 -12.5 -32.5t-29.5 -12.5q-19 0 -30.5 12.5t-11.5 32.5q0 19 11.5 32t30.5 13q17 0 29.5 -13t12.5 -32zM250 948h-56l90 144h72z" />
    <glyph glyph-name="udieresisacute" unicode="&#x1d8;" 
d="M139 496v-320q0 -23 2.5 -46.5t11 -43t23.5 -32t41 -12.5q25 0 44.5 13.5t33 37t21 54t7.5 63.5v286h66v-371q0 -16 0.5 -34.5t1 -36t1 -32.5t1.5 -22h-64q-2 19 -3 46t-1 51h-2q-14 -50 -46 -81.5t-80 -31.5q-40 0 -64.5 17t-37.5 44.5t-17.5 61.5t-4.5 69v320h66z
M347 616q0 -20 -12 -32.5t-30 -12.5q-17 0 -29.5 12.5t-12.5 32.5q0 19 12.5 32t29.5 13q18 0 30 -13t12 -32zM204 616q0 -20 -12.5 -32.5t-29.5 -12.5q-19 0 -30.5 12.5t-11.5 32.5q0 19 11.5 32t30.5 13q17 0 29.5 -13t12.5 -32zM208 736h-56l90 144h72z" />
    <glyph glyph-name="Udieresiscaron" unicode="&#x1d9;" horiz-adv-x="550" 
d="M477 248q0 -55 -10.5 -103.5t-34 -84.5t-62.5 -56.5t-96 -20.5t-95.5 20.5t-62 56.5t-33.5 84.5t-10 103.5v460h70v-451q0 -39 5.5 -77t20 -67.5t40 -47.5t66.5 -18q40 0 66 18t40.5 47.5t20 67t5.5 77.5v451h70v-460v0zM389 828q0 -20 -12 -32.5t-30 -12.5
q-17 0 -29.5 12.5t-12.5 32.5q0 19 12.5 32t29.5 13q18 0 30 -13t12 -32zM246 828q0 -20 -12.5 -32.5t-29.5 -12.5q-19 0 -30.5 12.5t-11.5 32.5q0 19 11.5 32t30.5 13q17 0 29.5 -13t12.5 -32zM311 948h-70l-103 144h65l72 -105l72 105h66z" />
    <glyph glyph-name="udieresiscaron" unicode="&#x1da;" 
d="M139 496v-320q0 -23 2.5 -46.5t11 -43t23.5 -32t41 -12.5q25 0 44.5 13.5t33 37t21 54t7.5 63.5v286h66v-371q0 -16 0.5 -34.5t1 -36t1 -32.5t1.5 -22h-64q-2 19 -3 46t-1 51h-2q-14 -50 -46 -81.5t-80 -31.5q-40 0 -64.5 17t-37.5 44.5t-17.5 61.5t-4.5 69v320h66z
M347 616q0 -20 -12 -32.5t-30 -12.5q-17 0 -29.5 12.5t-12.5 32.5q0 19 12.5 32t29.5 13q18 0 30 -13t12 -32zM204 616q0 -20 -12.5 -32.5t-29.5 -12.5q-19 0 -30.5 12.5t-11.5 32.5q0 19 11.5 32t30.5 13q17 0 29.5 -13t12.5 -32zM269 736h-70l-103 144h65l72 -105l72 105
h66z" />
    <glyph glyph-name="Udieresisgrave" unicode="&#x1db;" horiz-adv-x="550" 
d="M477 248q0 -55 -10.5 -103.5t-34 -84.5t-62.5 -56.5t-96 -20.5t-95.5 20.5t-62 56.5t-33.5 84.5t-10 103.5v460h70v-451q0 -39 5.5 -77t20 -67.5t40 -47.5t66.5 -18q40 0 66 18t40.5 47.5t20 67t5.5 77.5v451h70v-460v0zM389 828q0 -20 -12 -32.5t-30 -12.5
q-17 0 -29.5 12.5t-12.5 32.5q0 19 12.5 32t29.5 13q18 0 30 -13t12 -32zM246 828q0 -20 -12.5 -32.5t-29.5 -12.5q-19 0 -30.5 12.5t-11.5 32.5q0 19 11.5 32t30.5 13q17 0 29.5 -13t12.5 -32zM300 948l-106 144h72l90 -144h-56z" />
    <glyph glyph-name="udieresisgrave" unicode="&#x1dc;" 
d="M139 496v-320q0 -23 2.5 -46.5t11 -43t23.5 -32t41 -12.5q25 0 44.5 13.5t33 37t21 54t7.5 63.5v286h66v-371q0 -16 0.5 -34.5t1 -36t1 -32.5t1.5 -22h-64q-2 19 -3 46t-1 51h-2q-14 -50 -46 -81.5t-80 -31.5q-40 0 -64.5 17t-37.5 44.5t-17.5 61.5t-4.5 69v320h66z
M347 616q0 -20 -12 -32.5t-30 -12.5q-17 0 -29.5 12.5t-12.5 32.5q0 19 12.5 32t29.5 13q18 0 30 -13t12 -32zM204 616q0 -20 -12.5 -32.5t-29.5 -12.5q-19 0 -30.5 12.5t-11.5 32.5q0 19 11.5 32t30.5 13q17 0 29.5 -13t12.5 -32zM258 736l-106 144h72l90 -144h-56z" />
    <glyph glyph-name="Adieresismacron" unicode="&#x1de;" horiz-adv-x="464" 
d="M384 0l-43 177h-218l-45 -177h-71l180 708h95l175 -708h-73zM235 645h-4l-98 -412h198zM346 828q0 -20 -12 -32.5t-30 -12.5q-17 0 -29.5 12.5t-12.5 32.5q0 19 12.5 32t29.5 13q18 0 30 -13t12 -32zM203 828q0 -20 -12.5 -32.5t-29.5 -12.5q-19 0 -30.5 12.5t-11.5 32.5
q0 19 11.5 32t30.5 13q17 0 29.5 -13t12.5 -32zM108 948v52h249v-52h-249z" />
    <glyph glyph-name="adieresismacron" unicode="&#x1df;" horiz-adv-x="404" 
d="M285 0q-1 8 -1.5 20t-1 25.5t-0.5 26v21.5h-2q-25 -106 -120 -106q-21 0 -42 8t-38 26t-28 45.5t-11 66.5q0 54 19 87t48 52t63.5 25.5t65.5 6.5h39v26q0 65 -24 95t-65 30q-28 0 -52 -15t-41 -38l-35 41q23 33 60 51t74 18q78 0 111 -51t33 -149v-206q0 -10 0.5 -25
t1 -30.5t1.5 -29t2 -21.5h-57zM277 252h-40q-24 0 -48 -4.5t-42.5 -17t-30.5 -34.5t-12 -57q0 -52 23 -75t50 -23q28 0 47.5 17t31 43t16.5 57t5 60v34zM305 632q0 -20 -12 -32.5t-30 -12.5q-17 0 -29.5 12.5t-12.5 32.5q0 19 12.5 32t29.5 13q18 0 30 -13t12 -32zM162 632
q0 -20 -12.5 -32.5t-29.5 -12.5q-19 0 -30.5 12.5t-11.5 32.5q0 19 11.5 32t30.5 13q17 0 29.5 -13t12.5 -32zM67 752v52h249v-52h-249z" />
    <glyph glyph-name="Adotmacron" unicode="&#x1e0;" horiz-adv-x="464" 
d="M384 0l-43 177h-218l-45 -177h-71l180 708h95l175 -708h-73zM235 645h-4l-98 -412h198zM276 831q0 -21 -13 -34.5t-31 -13.5q-19 0 -31.5 13.5t-12.5 34.5q0 20 12.5 34t31.5 14t31.5 -14t12.5 -34zM108 954v52h249v-52h-249z" />
    <glyph glyph-name="adotmacron" unicode="&#x1e1;" horiz-adv-x="404" 
d="M285 0q-1 8 -1.5 20t-1 25.5t-0.5 26v21.5h-2q-25 -106 -120 -106q-21 0 -42 8t-38 26t-28 45.5t-11 66.5q0 54 19 87t48 52t63.5 25.5t65.5 6.5h39v26q0 65 -24 95t-65 30q-28 0 -52 -15t-41 -38l-35 41q23 33 60 51t74 18q78 0 111 -51t33 -149v-206q0 -10 0.5 -25
t1 -30.5t1.5 -29t2 -21.5h-57zM277 252h-40q-24 0 -48 -4.5t-42.5 -17t-30.5 -34.5t-12 -57q0 -52 23 -75t50 -23q28 0 47.5 17t31 43t16.5 57t5 60v34zM235 635q0 -21 -13 -34.5t-31 -13.5q-19 0 -31.5 13.5t-12.5 34.5q0 20 12.5 34t31.5 14t31.5 -14t12.5 -34zM67 758v52
h249v-52h-249z" />
    <glyph glyph-name="AEmacron" unicode="&#x1e2;" horiz-adv-x="628" 
d="M306 0v174h-177l-62 -174h-74l260 708h324v-62h-206v-249h191v-59h-191v-275h214v-63h-279zM306 647h-9l-149 -416h158v416zM165 783v52h249v-52h-249z" />
    <glyph glyph-name="aemacron" unicode="&#x1e3;" horiz-adv-x="649" 
d="M340 234q0 -41 7 -75.5t20.5 -60t34 -40t48.5 -14.5q36 0 58 22t34 53l50 -29q-18 -45 -53.5 -75.5t-90.5 -30.5q-57 0 -93 33t-48 95q-10 -60 -46.5 -94t-97.5 -34q-22 0 -43.5 8t-39 25.5t-28.5 45t-11 66.5q0 50 19 81.5t48 49t63.5 23.5t65.5 6h39v28q0 66 -23.5 102
t-65.5 36q-28 0 -52 -15t-41 -38l-35 41q23 33 60 51t74 18q54 0 84 -29.5t38 -83.5q15 53 48 83t84 30q44 0 74.5 -19t49.5 -51.5t27.5 -76.5t8.5 -94v-37h-267zM277 236h-40q-24 0 -48 -4.5t-42.5 -15.5t-30.5 -31t-12 -50q0 -26 6.5 -44t16.5 -29t23 -16t27 -5
q28 0 47.5 15t31 39t16.5 53.5t5 58.5v29zM540 289q0 75 -23 120.5t-72 45.5q-29 0 -48.5 -17.5t-32 -43t-18 -54.5t-5.5 -51h199zM200 587v52h249v-52h-249z" />
    <glyph glyph-name="Gcaron" unicode="&#x1e6;" horiz-adv-x="535" 
d="M469 44q-29 -26 -70.5 -41.5t-97.5 -15.5q-59 0 -106 26t-79 74t-49 116t-17 152q0 79 16.5 147t47.5 117.5t76 77.5t102 28q52 0 95 -21t72 -66l-45 -46q-23 35 -53.5 52.5t-65.5 17.5q-44 0 -76 -24.5t-53.5 -66.5t-32 -97.5t-10.5 -118.5q0 -66 11 -122t33.5 -96.5
t56 -63.5t77.5 -23q32 0 57.5 8t42.5 23v240h-101v61h169v-338v0zM295 800h-70l-103 144h65l72 -105l72 105h66z" />
    <glyph glyph-name="gcaron" unicode="&#x1e7;" horiz-adv-x="466" 
d="M389 7q0 -53 -8.5 -98t-28.5 -78t-54 -52t-85 -19q-49 0 -91.5 22.5t-68.5 60.5l43 46q20 -31 50.5 -50t68.5 -19q33 0 54.5 14t33.5 39t17 59t5 75v82h-2q-12 -45 -40 -75t-79 -30q-38 0 -67 20t-49 55.5t-30.5 84t-10.5 106.5t10 106t29.5 82.5t49 54t67.5 19.5
q45 0 76.5 -27.5t42.5 -72.5h3v84h64v-489zM325 248q0 43 -6.5 81t-20 66t-33.5 44t-46 16q-27 0 -46.5 -16t-32.5 -43.5t-19 -65.5t-6 -82q0 -43 6 -80.5t19 -65.5t32.5 -44t46.5 -16t46.5 16t33 43.5t20 65t6.5 81.5zM254 587h-70l-103 144h65l72 -105l72 105h66z" />
    <glyph glyph-name="Kcaron" unicode="&#x1e8;" horiz-adv-x="482" 
d="M387 0l-236 363h-1v-363h-69v708h69v-318h1l222 318h81l-238 -327l255 -381h-84zM312 783h-70l-103 144h65l72 -105l72 105h66z" />
    <glyph glyph-name="kcaron" unicode="&#x1e9;" horiz-adv-x="400" 
d="M315 0l-170 250h-2v-250h-66v756h66v-479h2l160 219h79l-178 -230l189 -266h-80zM272 831h-70l-103 144h65l72 -105l72 105h66z" />
    <glyph glyph-name="Oogonek" unicode="&#x1ea;" horiz-adv-x="570" 
d="M519 355q0 -83 -16 -151.5t-46 -117.5t-73 -76t-98 -27t-98.5 27t-74 76t-46.5 117.5t-16 151.5q0 82 15.5 150.5t45.5 117t73.5 75.5t100.5 27q55 0 98 -27t73 -75.5t46 -117t16 -150.5zM446 355q0 64 -10 120t-30.5 97t-50.5 65t-69 24q-41 0 -71.5 -24t-50.5 -65
t-30 -97t-10 -120t10 -120t30 -98t50.5 -66t71.5 -24q40 0 70 24t50 66t30 98t10 120zM368 -200q-16 -17 -36 -26.5t-43 -9.5q-37 0 -61.5 21.5t-24.5 59.5q0 21 7.5 40.5t19.5 37t26.5 33t28.5 27.5h44q-34 -37 -52.5 -64.5t-18.5 -56.5q0 -21 13.5 -34.5t32.5 -13.5
q28 0 47 22z" />
    <glyph glyph-name="oogonek" unicode="&#x1eb;" horiz-adv-x="440" 
d="M393 247q0 -59 -12 -107t-34 -83t-54.5 -54t-72.5 -19t-72 19t-54.5 54t-34.5 83t-12 107t11.5 108t33.5 84t54.5 54t73.5 19q40 0 72.5 -19t54.5 -54t34 -84t12 -108zM325 248q0 44 -6.5 82t-19.5 65.5t-32.5 43.5t-46.5 16t-47 -16t-32.5 -43.5t-19 -65.5t-6.5 -82
t6.5 -81t19 -65t32.5 -43.5t47 -15.5t47 15.5t32.5 43.5t19 65t6.5 81zM303 -199q-16 -17 -36 -26.5t-43 -9.5q-37 0 -61.5 21.5t-24.5 59.5q0 21 7.5 40.5t19.5 37t26.5 33t28.5 27.5h44q-34 -37 -52.5 -64.5t-18.5 -56.5q0 -21 13.5 -34.5t32.5 -13.5q28 0 47 22z" />
    <glyph glyph-name="Oogonekmacron" unicode="&#x1ec;" horiz-adv-x="570" 
d="M519 355q0 -83 -16 -151.5t-46 -117.5t-73 -76t-98 -27t-98.5 27t-74 76t-46.5 117.5t-16 151.5q0 82 15.5 150.5t45.5 117t73.5 75.5t100.5 27q55 0 98 -27t73 -75.5t46 -117t16 -150.5zM446 355q0 64 -10 120t-30.5 97t-50.5 65t-69 24q-41 0 -71.5 -24t-50.5 -65
t-30 -97t-10 -120t10 -120t30 -98t50.5 -66t71.5 -24q40 0 70 24t50 66t30 98t10 120zM368 -200q-16 -17 -36 -26.5t-43 -9.5q-37 0 -61.5 21.5t-24.5 59.5q0 21 7.5 40.5t19.5 37t26.5 33t28.5 27.5h44q-34 -37 -52.5 -64.5t-18.5 -56.5q0 -21 13.5 -34.5t32.5 -13.5
q28 0 47 22zM161 800v52h249v-52h-249z" />
    <glyph glyph-name="oogonekmacron" unicode="&#x1ed;" horiz-adv-x="440" 
d="M393 247q0 -59 -12 -107t-34 -83t-54.5 -54t-72.5 -19t-72 19t-54.5 54t-34.5 83t-12 107t11.5 108t33.5 84t54.5 54t73.5 19q40 0 72.5 -19t54.5 -54t34 -84t12 -108zM325 248q0 44 -6.5 82t-19.5 65.5t-32.5 43.5t-46.5 16t-47 -16t-32.5 -43.5t-19 -65.5t-6.5 -82
t6.5 -81t19 -65t32.5 -43.5t47 -15.5t47 15.5t32.5 43.5t19 65t6.5 81zM303 -199q-16 -17 -36 -26.5t-43 -9.5q-37 0 -61.5 21.5t-24.5 59.5q0 21 7.5 40.5t19.5 37t26.5 33t28.5 27.5h44q-34 -37 -52.5 -64.5t-18.5 -56.5q0 -21 13.5 -34.5t32.5 -13.5q28 0 47 22zM96 587
v52h249v-52h-249z" />
    <glyph glyph-name="DZ" unicode="&#x1f1;" horiz-adv-x="938" 
d="M490 353q0 -87 -18 -153t-52 -110.5t-81.5 -67t-105.5 -22.5h-152v708h153q58 0 105.5 -22.5t81 -67.5t51.5 -111.5t18 -153.5zM421 353q0 75 -14.5 130.5t-40 91.5t-60 54t-74.5 18h-82v-586h82q40 0 74.5 18t60 54t40 91t14.5 129zM570 0v60l259 586h-248v62h321v-61
l-257 -584h259v-63h-334z" />
    <glyph glyph-name="Dz" unicode="&#x1f2;" horiz-adv-x="874" 
d="M490 353q0 -87 -18 -153t-52 -110.5t-81.5 -67t-105.5 -22.5h-152v708h153q58 0 105.5 -22.5t81 -67.5t51.5 -111.5t18 -153.5zM421 353q0 75 -14.5 130.5t-40 91.5t-60 54t-74.5 18h-82v-586h82q40 0 74.5 18t60 54t40 91t14.5 129zM567 0v58l207 381h-191v57h260v-56
l-206 -383h207v-57h-277z" />
    <glyph glyph-name="dz" unicode="&#x1f3;" horiz-adv-x="799" 
d="M325 0v89h-2q-12 -45 -40 -75t-79 -30q-38 0 -67 20t-49 55.5t-30.5 84t-10.5 106.5t10 106t29.5 82.5t49 54t67.5 19.5q45 0 76 -27.5t42 -72.5h2v344h66v-756h-64zM325 248q0 44 -6.5 82t-20 65.5t-33.5 43.5t-46 16q-27 0 -46.5 -16t-32.5 -43.5t-19 -65.5t-6 -82
q0 -43 6 -80.5t19 -65.5t32.5 -44t46.5 -16t46.5 16t33 44t20 65.5t6.5 80.5zM492 0v58l207 381h-191v57h260v-56l-206 -383h207v-57h-277z" />
    <glyph glyph-name="Gacute" unicode="&#x1f4;" horiz-adv-x="535" 
d="M469 44q-29 -26 -70.5 -41.5t-97.5 -15.5q-59 0 -106 26t-79 74t-49 116t-17 152q0 79 16.5 147t47.5 117.5t76 77.5t102 28q52 0 95 -21t72 -66l-45 -46q-23 35 -53.5 52.5t-65.5 17.5q-44 0 -76 -24.5t-53.5 -66.5t-32 -97.5t-10.5 -118.5q0 -66 11 -122t33.5 -96.5
t56 -63.5t77.5 -23q32 0 57.5 8t42.5 23v240h-101v61h169v-338v0zM234 800h-56l90 144h72z" />
    <glyph glyph-name="gacute" unicode="&#x1f5;" horiz-adv-x="466" 
d="M389 7q0 -53 -8.5 -98t-28.5 -78t-54 -52t-85 -19q-49 0 -91.5 22.5t-68.5 60.5l43 46q20 -31 50.5 -50t68.5 -19q33 0 54.5 14t33.5 39t17 59t5 75v82h-2q-12 -45 -40 -75t-79 -30q-38 0 -67 20t-49 55.5t-30.5 84t-10.5 106.5t10 106t29.5 82.5t49 54t67.5 19.5
q45 0 76.5 -27.5t42.5 -72.5h3v84h64v-489zM325 248q0 43 -6.5 81t-20 66t-33.5 44t-46 16q-27 0 -46.5 -16t-32.5 -43.5t-19 -65.5t-6 -82q0 -43 6 -80.5t19 -65.5t32.5 -44t46.5 -16t46.5 16t33 43.5t20 65t6.5 81.5zM193 587h-56l90 144h72z" />
    <glyph glyph-name="Ngrave" unicode="&#x1f8;" horiz-adv-x="561" 
d="M396 0l-247 589h-3v-589h-65v708h87l245 -589h3v589h64v-708h-84zM305 783l-106 144h72l90 -144h-56z" />
    <glyph glyph-name="ngrave" unicode="&#x1f9;" 
d="M331 0v320q0 23 -2.5 46.5t-11 43t-24 32t-40.5 12.5t-44.5 -13.5t-33 -37t-21 -54t-7.5 -63.5v-286h-66v371q0 16 -0.5 34.5t-1 36t-1 32t-1.5 22.5h64q2 -19 3 -46t1 -51h2q14 50 46 81.5t80 31.5q40 0 64.5 -17t37.5 -44.5t17.5 -62t4.5 -68.5v-320h-66zM262 587
l-106 144h72l90 -144h-56z" />
    <glyph glyph-name="Aringacute" unicode="&#x1fa;" horiz-adv-x="464" 
d="M384 0l-43 177h-218l-45 -177h-71l180 708h95l175 -708h-73zM235 645h-4l-98 -412h198zM325 884q0 -43 -26.5 -72t-67.5 -29q-40 0 -66 29t-26 72q0 44 26 73t66 29q41 0 67.5 -29t26.5 -73zM287 884q0 27 -14.5 47t-41.5 20q-26 0 -40.5 -20t-14.5 -47q0 -26 14.5 -46
t40.5 -20q27 0 41.5 20t14.5 46zM207 1061h-56l90 144h72z" />
    <glyph glyph-name="aringacute" unicode="&#x1fb;" horiz-adv-x="404" 
d="M285 0q-1 8 -1.5 20t-1 25.5t-0.5 26v21.5h-2q-25 -106 -120 -106q-21 0 -42 8t-38 26t-28 45.5t-11 66.5q0 54 19 87t48 52t63.5 25.5t65.5 6.5h39v26q0 65 -24 95t-65 30q-28 0 -52 -15t-41 -38l-35 41q23 33 60 51t74 18q78 0 111 -51t33 -149v-206q0 -10 0.5 -25
t1 -30.5t1.5 -29t2 -21.5h-57zM277 252h-40q-24 0 -48 -4.5t-42.5 -17t-30.5 -34.5t-12 -57q0 -52 23 -75t50 -23q28 0 47.5 17t31 43t16.5 57t5 60v34zM284 688q0 -43 -26.5 -72t-67.5 -29q-40 0 -66 29t-26 72q0 44 26 73t66 29q41 0 67.5 -29t26.5 -73zM246 688
q0 27 -14.5 47t-41.5 20q-26 0 -40.5 -20t-14.5 -47q0 -26 14.5 -46t40.5 -20q27 0 41.5 20t14.5 46zM166 865h-56l90 144h72z" />
    <glyph glyph-name="AEacute" unicode="&#x1fc;" horiz-adv-x="628" 
d="M306 0v174h-177l-62 -174h-74l260 708h324v-62h-206v-249h191v-59h-191v-275h214v-63h-279zM306 647h-9l-149 -416h158v416zM264 783h-56l90 144h72z" />
    <glyph glyph-name="aeacute" unicode="&#x1fd;" horiz-adv-x="649" 
d="M340 234q0 -41 7 -75.5t20.5 -60t34 -40t48.5 -14.5q36 0 58 22t34 53l50 -29q-18 -45 -53.5 -75.5t-90.5 -30.5q-57 0 -93 33t-48 95q-10 -60 -46.5 -94t-97.5 -34q-22 0 -43.5 8t-39 25.5t-28.5 45t-11 66.5q0 50 19 81.5t48 49t63.5 23.5t65.5 6h39v28q0 66 -23.5 102
t-65.5 36q-28 0 -52 -15t-41 -38l-35 41q23 33 60 51t74 18q54 0 84 -29.5t38 -83.5q15 53 48 83t84 30q44 0 74.5 -19t49.5 -51.5t27.5 -76.5t8.5 -94v-37h-267zM277 236h-40q-24 0 -48 -4.5t-42.5 -15.5t-30.5 -31t-12 -50q0 -26 6.5 -44t16.5 -29t23 -16t27 -5
q28 0 47.5 15t31 39t16.5 53.5t5 58.5v29zM540 289q0 75 -23 120.5t-72 45.5q-29 0 -48.5 -17.5t-32 -43t-18 -54.5t-5.5 -51h199zM299 587h-56l90 144h72z" />
    <glyph glyph-name="Oslashacute" unicode="&#x1fe;" horiz-adv-x="569" 
d="M452 630q32 -50 49.5 -119.5t17.5 -155.5q0 -83 -16 -151.5t-46 -117.5t-73 -76t-98 -27q-82 0 -139 59l-37 -75l-44 21l50 94q-32 49 -48.5 118.5t-16.5 154.5q0 82 15.5 150.5t45.5 117t73.5 75.5t100.5 27q80 0 135 -57l34 72l42 -21zM446 355q0 59 -8.5 110.5
t-25.5 92.5l-230 -452q20 -28 45.5 -43.5t58.5 -15.5q40 0 70 24t50 66t30 98t10 120zM124 355q0 -60 8.5 -112t25.5 -94l228 455q-19 27 -44 42t-56 15q-41 0 -71.5 -24t-50.5 -65t-30 -97t-10 -120zM260 815h-56l90 144h72z" />
    <glyph glyph-name="oslashacute" unicode="&#x1ff;" horiz-adv-x="440" 
d="M345 443q23 -35 35.5 -85.5t12.5 -110.5q0 -59 -12 -107.5t-34 -83t-54.5 -54t-72.5 -19.5q-54 0 -95 36l-27 -56l-40 18l37 72q-23 35 -35.5 84.5t-12.5 109.5q0 59 11.5 108t33.5 84t54.5 54t73.5 19q29 0 52 -9t43 -27l24 54l39 -18zM113 248q0 -79 20 -134l151 309
q-25 34 -64 34q-27 0 -47.5 -16t-33.5 -44t-19.5 -66.5t-6.5 -82.5zM327 248q0 76 -19 131l-152 -307q26 -32 64 -32q27 0 47.5 16t33.5 44t19.5 66t6.5 82zM195 605h-56l90 144h72z" />
    <glyph glyph-name="Adblgrave" unicode="&#x200;" horiz-adv-x="464" 
d="M384 0l-43 177h-218l-45 -177h-71l180 708h95l175 -708h-73zM235 645h-4l-98 -412h198zM334 783l-106 144h72l90 -144h-56zM180 783l-106 144h72l90 -144h-56z" />
    <glyph glyph-name="adblgrave" unicode="&#x201;" horiz-adv-x="404" 
d="M285 0q-1 8 -1.5 20t-1 25.5t-0.5 26v21.5h-2q-25 -106 -120 -106q-21 0 -42 8t-38 26t-28 45.5t-11 66.5q0 54 19 87t48 52t63.5 25.5t65.5 6.5h39v26q0 65 -24 95t-65 30q-28 0 -52 -15t-41 -38l-35 41q23 33 60 51t74 18q78 0 111 -51t33 -149v-206q0 -10 0.5 -25
t1 -30.5t1.5 -29t2 -21.5h-57zM277 252h-40q-24 0 -48 -4.5t-42.5 -17t-30.5 -34.5t-12 -57q0 -52 23 -75t50 -23q28 0 47.5 17t31 43t16.5 57t5 60v34zM293 587l-106 144h72l90 -144h-56zM139 587l-106 144h72l90 -144h-56z" />
    <glyph glyph-name="Ainvertedbreve" unicode="&#x202;" horiz-adv-x="464" 
d="M384 0l-43 177h-218l-45 -177h-71l180 708h95l175 -708h-73zM235 645h-4l-98 -412h198zM363 915q-8 -69 -44.5 -100.5t-87.5 -31.5q-49 0 -85.5 31.5t-43.5 100.5h50q6 -41 28.5 -60t50.5 -19q31 0 52.5 18t29.5 61h50v0z" />
    <glyph glyph-name="ainvertedbreve" unicode="&#x203;" horiz-adv-x="404" 
d="M285 0q-1 8 -1.5 20t-1 25.5t-0.5 26v21.5h-2q-25 -106 -120 -106q-21 0 -42 8t-38 26t-28 45.5t-11 66.5q0 54 19 87t48 52t63.5 25.5t65.5 6.5h39v26q0 65 -24 95t-65 30q-28 0 -52 -15t-41 -38l-35 41q23 33 60 51t74 18q78 0 111 -51t33 -149v-206q0 -10 0.5 -25
t1 -30.5t1.5 -29t2 -21.5h-57zM277 252h-40q-24 0 -48 -4.5t-42.5 -17t-30.5 -34.5t-12 -57q0 -52 23 -75t50 -23q28 0 47.5 17t31 43t16.5 57t5 60v34zM322 719q-8 -69 -44.5 -100.5t-87.5 -31.5q-49 0 -85.5 31.5t-43.5 100.5h50q6 -41 28.5 -60t50.5 -19q31 0 52.5 18
t29.5 61h50v0z" />
    <glyph glyph-name="Edblgrave" unicode="&#x204;" horiz-adv-x="418" 
d="M81 0v708h285v-62h-217v-249h203v-59h-203v-275h227v-63h-295zM330 783l-106 144h72l90 -144h-56zM176 783l-106 144h72l90 -144h-56z" />
    <glyph glyph-name="edblgrave" unicode="&#x205;" horiz-adv-x="423" 
d="M114 234q0 -41 7 -75.5t20.5 -60t34 -40t48.5 -14.5q36 0 58 22t34 53l50 -29q-18 -45 -53.5 -75.5t-90.5 -30.5q-83 0 -129 70t-46 193q0 58 12 107t34.5 84t55 54.5t72.5 19.5q44 0 74.5 -19t49.5 -52t27.5 -77t8.5 -94v-36h-267zM314 289q0 75 -23 120.5t-72 45.5
q-29 0 -48.5 -17.5t-32 -43t-18 -54.5t-5.5 -51h199zM316 587l-106 144h72l90 -144h-56zM162 587l-106 144h72l90 -144h-56z" />
    <glyph glyph-name="Einvertedbreve" unicode="&#x206;" horiz-adv-x="418" 
d="M81 0v708h285v-62h-217v-249h203v-59h-203v-275h227v-63h-295zM359 915q-8 -69 -44.5 -100.5t-87.5 -31.5q-49 0 -85.5 31.5t-43.5 100.5h50q6 -41 28.5 -60t50.5 -19q31 0 52.5 18t29.5 61h50v0z" />
    <glyph glyph-name="einvertedbreve" unicode="&#x207;" horiz-adv-x="423" 
d="M114 234q0 -41 7 -75.5t20.5 -60t34 -40t48.5 -14.5q36 0 58 22t34 53l50 -29q-18 -45 -53.5 -75.5t-90.5 -30.5q-83 0 -129 70t-46 193q0 58 12 107t34.5 84t55 54.5t72.5 19.5q44 0 74.5 -19t49.5 -52t27.5 -77t8.5 -94v-36h-267zM314 289q0 75 -23 120.5t-72 45.5
q-29 0 -48.5 -17.5t-32 -43t-18 -54.5t-5.5 -51h199zM345 719q-8 -69 -44.5 -100.5t-87.5 -31.5q-49 0 -85.5 31.5t-43.5 100.5h50q6 -41 28.5 -60t50.5 -19q31 0 52.5 18t29.5 61h50v0z" />
    <glyph glyph-name="Idblgrave" unicode="&#x208;" horiz-adv-x="232" 
d="M81 0v708h70v-708h-70zM218 783l-106 144h72l90 -144h-56zM64 783l-106 144h72l90 -144h-56z" />
    <glyph glyph-name="idblgrave" unicode="&#x209;" horiz-adv-x="220" 
d="M77 0v496h66v-496h-66zM212 571l-106 144h72l90 -144h-56zM58 571l-106 144h72l90 -144h-56z" />
    <glyph glyph-name="Iinvertedbreve" unicode="&#x20a;" horiz-adv-x="232" 
d="M81 0v708h70v-708h-70zM247 915q-8 -69 -44.5 -100.5t-87.5 -31.5q-49 0 -85.5 31.5t-43.5 100.5h50q6 -41 28.5 -60t50.5 -19q31 0 52.5 18t29.5 61h50v0z" />
    <glyph glyph-name="iinvertedbreve" unicode="&#x20b;" horiz-adv-x="220" 
d="M77 0v496h66v-496h-66zM241 703q-8 -69 -44.5 -100.5t-87.5 -31.5q-49 0 -85.5 31.5t-43.5 100.5h50q6 -41 28.5 -60t50.5 -19q31 0 52.5 18t29.5 61h50v0z" />
    <glyph glyph-name="Odblgrave" unicode="&#x20c;" horiz-adv-x="570" 
d="M519 355q0 -83 -16 -151.5t-46 -117.5t-73 -76t-98 -27t-98.5 27t-74 76t-46.5 117.5t-16 151.5q0 82 15.5 150.5t45.5 117t73.5 75.5t100.5 27q55 0 98 -27t73 -75.5t46 -117t16 -150.5zM446 355q0 64 -10 120t-30.5 97t-50.5 65t-69 24q-41 0 -71.5 -24t-50.5 -65
t-30 -97t-10 -120t10 -120t30 -98t50.5 -66t71.5 -24q40 0 70 24t50 66t30 98t10 120zM387 800l-106 144h72l90 -144h-56zM233 800l-106 144h72l90 -144h-56z" />
    <glyph glyph-name="odblgrave" unicode="&#x20d;" horiz-adv-x="440" 
d="M393 247q0 -59 -12 -107t-34 -83t-54.5 -54t-72.5 -19t-72 19t-54.5 54t-34.5 83t-12 107t11.5 108t33.5 84t54.5 54t73.5 19q40 0 72.5 -19t54.5 -54t34 -84t12 -108zM325 248q0 44 -6.5 82t-19.5 65.5t-32.5 43.5t-46.5 16t-47 -16t-32.5 -43.5t-19 -65.5t-6.5 -82
t6.5 -81t19 -65t32.5 -43.5t47 -15.5t47 15.5t32.5 43.5t19 65t6.5 81zM322 587l-106 144h72l90 -144h-56zM168 587l-106 144h72l90 -144h-56z" />
    <glyph glyph-name="Oinvertedbreve" unicode="&#x20e;" horiz-adv-x="570" 
d="M519 355q0 -83 -16 -151.5t-46 -117.5t-73 -76t-98 -27t-98.5 27t-74 76t-46.5 117.5t-16 151.5q0 82 15.5 150.5t45.5 117t73.5 75.5t100.5 27q55 0 98 -27t73 -75.5t46 -117t16 -150.5zM446 355q0 64 -10 120t-30.5 97t-50.5 65t-69 24q-41 0 -71.5 -24t-50.5 -65
t-30 -97t-10 -120t10 -120t30 -98t50.5 -66t71.5 -24q40 0 70 24t50 66t30 98t10 120zM416 932q-8 -69 -44.5 -100.5t-87.5 -31.5q-49 0 -85.5 31.5t-43.5 100.5h50q6 -41 28.5 -60t50.5 -19q31 0 52.5 18t29.5 61h50v0z" />
    <glyph glyph-name="oinvertedbreve" unicode="&#x20f;" horiz-adv-x="440" 
d="M393 247q0 -59 -12 -107t-34 -83t-54.5 -54t-72.5 -19t-72 19t-54.5 54t-34.5 83t-12 107t11.5 108t33.5 84t54.5 54t73.5 19q40 0 72.5 -19t54.5 -54t34 -84t12 -108zM325 248q0 44 -6.5 82t-19.5 65.5t-32.5 43.5t-46.5 16t-47 -16t-32.5 -43.5t-19 -65.5t-6.5 -82
t6.5 -81t19 -65t32.5 -43.5t47 -15.5t47 15.5t32.5 43.5t19 65t6.5 81zM351 719q-8 -69 -44.5 -100.5t-87.5 -31.5q-49 0 -85.5 31.5t-43.5 100.5h50q6 -41 28.5 -60t50.5 -19q31 0 52.5 18t29.5 61h50v0z" />
    <glyph glyph-name="Rdblgrave" unicode="&#x210;" horiz-adv-x="476" 
d="M369 0l-128 328h-91v-328h-69v708h170q35 0 67.5 -9.5t58 -31.5t41 -58t15.5 -88q0 -45 -11.5 -77.5t-30 -54.5t-41 -34t-44.5 -15l138 -340h-75zM365 518q0 38 -10.5 63.5t-28 40.5t-40 21t-46.5 6h-90v-266h93q57 0 89.5 35.5t32.5 99.5zM364 783l-106 144h72l90 -144
h-56zM210 783l-106 144h72l90 -144h-56z" />
    <glyph glyph-name="rdblgrave" unicode="&#x211;" horiz-adv-x="274" 
d="M147 388q14 65 43 94t66 29q8 0 12 -1l-2 -68q-4 1 -7.5 1.5t-8.5 0.5q-25 0 -44.5 -17t-32.5 -44t-19.5 -61.5t-6.5 -68.5v-253h-66v371q0 16 -0.5 34.5t-1 36t-1 32t-1.5 22.5h64q2 -19 3 -47.5t1 -60.5h2v0zM274 586l-106 144h72l90 -144h-56zM120 586l-106 144h72
l90 -144h-56z" />
    <glyph glyph-name="Rinvertedbreve" unicode="&#x212;" horiz-adv-x="476" 
d="M369 0l-128 328h-91v-328h-69v708h170q35 0 67.5 -9.5t58 -31.5t41 -58t15.5 -88q0 -45 -11.5 -77.5t-30 -54.5t-41 -34t-44.5 -15l138 -340h-75zM365 518q0 38 -10.5 63.5t-28 40.5t-40 21t-46.5 6h-90v-266h93q57 0 89.5 35.5t32.5 99.5zM393 915q-8 -69 -44.5 -100.5
t-87.5 -31.5q-49 0 -85.5 31.5t-43.5 100.5h50q6 -41 28.5 -60t50.5 -19q31 0 52.5 18t29.5 61h50v0z" />
    <glyph glyph-name="rinvertedbreve" unicode="&#x213;" horiz-adv-x="274" 
d="M147 388q14 65 43 94t66 29q8 0 12 -1l-2 -68q-4 1 -7.5 1.5t-8.5 0.5q-25 0 -44.5 -17t-32.5 -44t-19.5 -61.5t-6.5 -68.5v-253h-66v371q0 16 -0.5 34.5t-1 36t-1 32t-1.5 22.5h64q2 -19 3 -47.5t1 -60.5h2v0zM303 718q-8 -69 -44.5 -100.5t-87.5 -31.5
q-49 0 -85.5 31.5t-43.5 100.5h50q6 -41 28.5 -60t50.5 -19q31 0 52.5 18t29.5 61h50v0z" />
    <glyph glyph-name="Udblgrave" unicode="&#x214;" horiz-adv-x="550" 
d="M477 248q0 -55 -10.5 -103.5t-34 -84.5t-62.5 -56.5t-96 -20.5t-95.5 20.5t-62 56.5t-33.5 84.5t-10 103.5v460h70v-451q0 -39 5.5 -77t20 -67.5t40 -47.5t66.5 -18q40 0 66 18t40.5 47.5t20 67t5.5 77.5v451h70v-460v0zM377 783l-106 144h72l90 -144h-56zM223 783
l-106 144h72l90 -144h-56z" />
    <glyph glyph-name="udblgrave" unicode="&#x215;" 
d="M139 496v-320q0 -23 2.5 -46.5t11 -43t23.5 -32t41 -12.5q25 0 44.5 13.5t33 37t21 54t7.5 63.5v286h66v-371q0 -16 0.5 -34.5t1 -36t1 -32.5t1.5 -22h-64q-2 19 -3 46t-1 51h-2q-14 -50 -46 -81.5t-80 -31.5q-40 0 -64.5 17t-37.5 44.5t-17.5 61.5t-4.5 69v320h66z
M335 571l-106 144h72l90 -144h-56zM181 571l-106 144h72l90 -144h-56z" />
    <glyph glyph-name="Uinvertedbreve" unicode="&#x216;" horiz-adv-x="550" 
d="M477 248q0 -55 -10.5 -103.5t-34 -84.5t-62.5 -56.5t-96 -20.5t-95.5 20.5t-62 56.5t-33.5 84.5t-10 103.5v460h70v-451q0 -39 5.5 -77t20 -67.5t40 -47.5t66.5 -18q40 0 66 18t40.5 47.5t20 67t5.5 77.5v451h70v-460v0zM406 915q-8 -69 -44.5 -100.5t-87.5 -31.5
q-49 0 -85.5 31.5t-43.5 100.5h50q6 -41 28.5 -60t50.5 -19q31 0 52.5 18t29.5 61h50v0z" />
    <glyph glyph-name="uinvertedbreve" unicode="&#x217;" 
d="M139 496v-320q0 -23 2.5 -46.5t11 -43t23.5 -32t41 -12.5q25 0 44.5 13.5t33 37t21 54t7.5 63.5v286h66v-371q0 -16 0.5 -34.5t1 -36t1 -32.5t1.5 -22h-64q-2 19 -3 46t-1 51h-2q-14 -50 -46 -81.5t-80 -31.5q-40 0 -64.5 17t-37.5 44.5t-17.5 61.5t-4.5 69v320h66z
M364 703q-8 -69 -44.5 -100.5t-87.5 -31.5q-49 0 -85.5 31.5t-43.5 100.5h50q6 -41 28.5 -60t50.5 -19q31 0 52.5 18t29.5 61h50v0z" />
    <glyph glyph-name="Scommaaccent" unicode="&#x218;" horiz-adv-x="434" 
d="M388 181q0 -47 -14 -83.5t-38.5 -62t-57.5 -39t-70 -13.5q-54 0 -99.5 23t-73.5 61l43 49q23 -33 58 -51t71 -18q48 0 80.5 34t32.5 97q0 30 -10 53t-27 41t-38.5 32t-45.5 26q-29 14 -55 31.5t-45.5 40.5t-31.5 54.5t-12 73.5q0 49 15 85.5t40.5 61t57.5 36.5t67 12
q48 0 86.5 -16.5t64.5 -51.5l-43 -49q-20 29 -47 41.5t-59 12.5q-21 0 -41.5 -7.5t-36.5 -23.5t-26 -41t-10 -59q0 -30 9 -52t24.5 -39t36 -30t42.5 -24q28 -14 55.5 -32t49.5 -42t35 -56t13 -75zM193 -219h-50l41 174h58z" />
    <glyph glyph-name="scommaaccent" unicode="&#x219;" horiz-adv-x="340" 
d="M266 410q-13 22 -33.5 35.5t-49.5 13.5q-32 0 -52.5 -23.5t-20.5 -61.5q0 -40 20 -58t60 -33q20 -8 40 -19.5t35.5 -28.5t25.5 -40.5t10 -56.5q0 -73 -39.5 -113.5t-102.5 -40.5q-42 0 -77 19.5t-58 52.5l40 43q17 -26 40.5 -42.5t55.5 -16.5q35 0 56.5 25.5t21.5 67.5
q0 24 -8 40.5t-21 27.5t-29.5 19t-34.5 15q-19 7 -36.5 17t-31.5 26t-22.5 38.5t-8.5 54.5q0 31 10.5 57t29.5 44.5t43.5 29t53.5 10.5q42 0 72.5 -16.5t49.5 -42.5zM140 -219h-50l41 174h58z" />
    <glyph glyph-name="uni021A" unicode="&#x21a;" horiz-adv-x="342" 
d="M205 648v-648h-69v648h-136v60h342v-60h-137zM156 -219h-50l41 174h58z" />
    <glyph glyph-name="uni021B" unicode="&#x21b;" horiz-adv-x="250" 
d="M238 0q-11 -5 -27 -9t-33 -4q-52 0 -73.5 36t-21.5 96v323h-65v54h64v137h65v-137h88v-54h-88v-311q0 -45 13 -65.5t39 -20.5q9 0 19 2.5t17 5.5zM145 -219h-50l41 174h58z" />
    <glyph glyph-name="Hcaron" unicode="&#x21e;" horiz-adv-x="573" 
d="M422 0v336h-271v-336h-70v708h70v-310h271v310h70v-708h-70zM322 783h-70l-103 144h65l72 -105l72 105h66z" />
    <glyph glyph-name="hcaron" unicode="&#x21f;" horiz-adv-x="467" 
d="M327 0v320q0 23 -2.5 46.5t-10.5 43t-23.5 32t-40.5 12.5t-44.5 -13.5t-33.5 -37t-21.5 -54t-7.5 -63.5v-286h-66v756h66v-354h2q13 48 45 79t80 31q40 0 64.5 -17t37.5 -44.5t17.5 -62t4.5 -68.5v-320h-67zM271 831h-70l-103 144h65l72 -105l72 105h66z" />
    <glyph glyph-name="Adotaccent" unicode="&#x226;" horiz-adv-x="464" 
d="M384 0l-43 177h-218l-45 -177h-71l180 708h95l175 -708h-73zM235 645h-4l-98 -412h198zM276 831q0 -21 -13 -34.5t-31 -13.5q-19 0 -31.5 13.5t-12.5 34.5q0 20 12.5 34t31.5 14t31.5 -14t12.5 -34z" />
    <glyph glyph-name="adotaccent" unicode="&#x227;" horiz-adv-x="404" 
d="M285 0q-1 8 -1.5 20t-1 25.5t-0.5 26v21.5h-2q-25 -106 -120 -106q-21 0 -42 8t-38 26t-28 45.5t-11 66.5q0 54 19 87t48 52t63.5 25.5t65.5 6.5h39v26q0 65 -24 95t-65 30q-28 0 -52 -15t-41 -38l-35 41q23 33 60 51t74 18q78 0 111 -51t33 -149v-206q0 -10 0.5 -25
t1 -30.5t1.5 -29t2 -21.5h-57zM277 252h-40q-24 0 -48 -4.5t-42.5 -17t-30.5 -34.5t-12 -57q0 -52 23 -75t50 -23q28 0 47.5 17t31 43t16.5 57t5 60v34zM235 635q0 -21 -13 -34.5t-31 -13.5q-19 0 -31.5 13.5t-12.5 34.5q0 20 12.5 34t31.5 14t31.5 -14t12.5 -34z" />
    <glyph glyph-name="Ecedilla" unicode="&#x228;" horiz-adv-x="418" 
d="M81 0v708h285v-62h-217v-249h203v-59h-203v-275h227v-63h-295zM218 -75q12 4 32 4q27 0 51 -17t24 -53q0 -25 -10 -42t-25.5 -27t-35 -14t-37.5 -4q-19 0 -42.5 4t-43.5 14l15 36q15 -8 32 -11t34 -3q7 0 17 2t19 7.5t15.5 14t6.5 20.5q0 20 -13 29.5t-36 9.5
q-21 0 -40 -8l-16 15l57 98h39z" />
    <glyph glyph-name="ecedilla" unicode="&#x229;" horiz-adv-x="423" 
d="M114 234q0 -41 7 -75.5t20.5 -60t34 -40t48.5 -14.5q36 0 58 22t34 53l50 -29q-18 -45 -53.5 -75.5t-90.5 -30.5q-83 0 -129 70t-46 193q0 58 12 107t34.5 84t55 54.5t72.5 19.5q44 0 74.5 -19t49.5 -52t27.5 -77t8.5 -94v-36h-267zM314 289q0 75 -23 120.5t-72 45.5
q-29 0 -48.5 -17.5t-32 -43t-18 -54.5t-5.5 -51h199zM204 -91q12 4 32 4q27 0 51 -17t24 -53q0 -25 -10 -42t-25.5 -27t-35 -14t-37.5 -4q-19 0 -42.5 4t-43.5 14l15 36q15 -8 32 -11t34 -3q7 0 17 2t19 7.5t15.5 14t6.5 20.5q0 20 -13 29.5t-36 9.5q-21 0 -40 -8l-16 15
l57 98h39z" />
    <glyph glyph-name="Odieresismacron" unicode="&#x22a;" horiz-adv-x="570" 
d="M519 355q0 -83 -16 -151.5t-46 -117.5t-73 -76t-98 -27t-98.5 27t-74 76t-46.5 117.5t-16 151.5q0 82 15.5 150.5t45.5 117t73.5 75.5t100.5 27q55 0 98 -27t73 -75.5t46 -117t16 -150.5zM446 355q0 64 -10 120t-30.5 97t-50.5 65t-69 24q-41 0 -71.5 -24t-50.5 -65
t-30 -97t-10 -120t10 -120t30 -98t50.5 -66t71.5 -24q40 0 70 24t50 66t30 98t10 120zM399 845q0 -20 -12 -32.5t-30 -12.5q-17 0 -29.5 12.5t-12.5 32.5q0 19 12.5 32t29.5 13q18 0 30 -13t12 -32zM256 845q0 -20 -12.5 -32.5t-29.5 -12.5q-19 0 -30.5 12.5t-11.5 32.5
q0 19 11.5 32t30.5 13q17 0 29.5 -13t12.5 -32zM161 965v52h249v-52h-249z" />
    <glyph glyph-name="odieresismacron" unicode="&#x22b;" horiz-adv-x="440" 
d="M393 247q0 -59 -12 -107t-34 -83t-54.5 -54t-72.5 -19t-72 19t-54.5 54t-34.5 83t-12 107t11.5 108t33.5 84t54.5 54t73.5 19q40 0 72.5 -19t54.5 -54t34 -84t12 -108zM325 248q0 44 -6.5 82t-19.5 65.5t-32.5 43.5t-46.5 16t-47 -16t-32.5 -43.5t-19 -65.5t-6.5 -82
t6.5 -81t19 -65t32.5 -43.5t47 -15.5t47 15.5t32.5 43.5t19 65t6.5 81zM334 632q0 -20 -12 -32.5t-30 -12.5q-17 0 -29.5 12.5t-12.5 32.5q0 19 12.5 32t29.5 13q18 0 30 -13t12 -32zM191 632q0 -20 -12.5 -32.5t-29.5 -12.5q-19 0 -30.5 12.5t-11.5 32.5q0 19 11.5 32
t30.5 13q17 0 29.5 -13t12.5 -32zM96 752v52h249v-52h-249z" />
    <glyph glyph-name="Otildemacron" unicode="&#x22c;" horiz-adv-x="570" 
d="M519 355q0 -83 -16 -151.5t-46 -117.5t-73 -76t-98 -27t-98.5 27t-74 76t-46.5 117.5t-16 151.5q0 82 15.5 150.5t45.5 117t73.5 75.5t100.5 27q55 0 98 -27t73 -75.5t46 -117t16 -150.5zM446 355q0 64 -10 120t-30.5 97t-50.5 65t-69 24q-41 0 -71.5 -24t-50.5 -65
t-30 -97t-10 -120t10 -120t30 -98t50.5 -66t71.5 -24q40 0 70 24t50 66t30 98t10 120zM413 899q-3 -49 -21.5 -73.5t-47.5 -24.5q-16 0 -29.5 5t-33.5 19q-23 15 -32.5 19.5t-20.5 4.5q-16 0 -23 -13t-11 -36h-37q3 45 21 73t48 28q18 0 30.5 -5.5t32.5 -18.5
q23 -15 33 -19.5t21 -4.5q16 0 22.5 10.5t10.5 35.5h37v0zM161 976v52h249v-52h-249z" />
    <glyph glyph-name="otildemacron" unicode="&#x22d;" horiz-adv-x="440" 
d="M393 247q0 -59 -12 -107t-34 -83t-54.5 -54t-72.5 -19t-72 19t-54.5 54t-34.5 83t-12 107t11.5 108t33.5 84t54.5 54t73.5 19q40 0 72.5 -19t54.5 -54t34 -84t12 -108zM325 248q0 44 -6.5 82t-19.5 65.5t-32.5 43.5t-46.5 16t-47 -16t-32.5 -43.5t-19 -65.5t-6.5 -82
t6.5 -81t19 -65t32.5 -43.5t47 -15.5t47 15.5t32.5 43.5t19 65t6.5 81zM348 686q-3 -49 -21.5 -73.5t-47.5 -24.5q-16 0 -29.5 5t-33.5 19q-23 15 -32.5 19.5t-20.5 4.5q-16 0 -23 -13t-11 -36h-37q3 45 21 73t48 28q18 0 30.5 -5.5t32.5 -18.5q23 -15 33 -19.5t21 -4.5
q16 0 22.5 10.5t10.5 35.5h37v0zM96 763v52h249v-52h-249z" />
    <glyph glyph-name="Odotaccent" unicode="&#x22e;" horiz-adv-x="570" 
d="M519 355q0 -83 -16 -151.5t-46 -117.5t-73 -76t-98 -27t-98.5 27t-74 76t-46.5 117.5t-16 151.5q0 82 15.5 150.5t45.5 117t73.5 75.5t100.5 27q55 0 98 -27t73 -75.5t46 -117t16 -150.5zM446 355q0 64 -10 120t-30.5 97t-50.5 65t-69 24q-41 0 -71.5 -24t-50.5 -65
t-30 -97t-10 -120t10 -120t30 -98t50.5 -66t71.5 -24q40 0 70 24t50 66t30 98t10 120zM329 848q0 -21 -13 -34.5t-31 -13.5q-19 0 -31.5 13.5t-12.5 34.5q0 20 12.5 34t31.5 14t31.5 -14t12.5 -34z" />
    <glyph glyph-name="odotaccent" unicode="&#x22f;" horiz-adv-x="440" 
d="M393 247q0 -59 -12 -107t-34 -83t-54.5 -54t-72.5 -19t-72 19t-54.5 54t-34.5 83t-12 107t11.5 108t33.5 84t54.5 54t73.5 19q40 0 72.5 -19t54.5 -54t34 -84t12 -108zM325 248q0 44 -6.5 82t-19.5 65.5t-32.5 43.5t-46.5 16t-47 -16t-32.5 -43.5t-19 -65.5t-6.5 -82
t6.5 -81t19 -65t32.5 -43.5t47 -15.5t47 15.5t32.5 43.5t19 65t6.5 81zM264 635q0 -21 -13 -34.5t-31 -13.5q-19 0 -31.5 13.5t-12.5 34.5q0 20 12.5 34t31.5 14t31.5 -14t12.5 -34z" />
    <glyph glyph-name="Odotaccentmacron" unicode="&#x230;" horiz-adv-x="570" 
d="M519 355q0 -83 -16 -151.5t-46 -117.5t-73 -76t-98 -27t-98.5 27t-74 76t-46.5 117.5t-16 151.5q0 82 15.5 150.5t45.5 117t73.5 75.5t100.5 27q55 0 98 -27t73 -75.5t46 -117t16 -150.5zM446 355q0 64 -10 120t-30.5 97t-50.5 65t-69 24q-41 0 -71.5 -24t-50.5 -65
t-30 -97t-10 -120t10 -120t30 -98t50.5 -66t71.5 -24q40 0 70 24t50 66t30 98t10 120zM329 848q0 -21 -13 -34.5t-31 -13.5q-19 0 -31.5 13.5t-12.5 34.5q0 20 12.5 34t31.5 14t31.5 -14t12.5 -34zM161 971v52h249v-52h-249z" />
    <glyph glyph-name="odotaccentmacron" unicode="&#x231;" horiz-adv-x="440" 
d="M393 247q0 -59 -12 -107t-34 -83t-54.5 -54t-72.5 -19t-72 19t-54.5 54t-34.5 83t-12 107t11.5 108t33.5 84t54.5 54t73.5 19q40 0 72.5 -19t54.5 -54t34 -84t12 -108zM325 248q0 44 -6.5 82t-19.5 65.5t-32.5 43.5t-46.5 16t-47 -16t-32.5 -43.5t-19 -65.5t-6.5 -82
t6.5 -81t19 -65t32.5 -43.5t47 -15.5t47 15.5t32.5 43.5t19 65t6.5 81zM264 635q0 -21 -13 -34.5t-31 -13.5q-19 0 -31.5 13.5t-12.5 34.5q0 20 12.5 34t31.5 14t31.5 -14t12.5 -34zM96 758v52h249v-52h-249z" />
    <glyph glyph-name="Ymacron" unicode="&#x232;" horiz-adv-x="422" 
d="M244 291v-291h-68v291l-176 417h76l134 -345l137 345h75zM87 783v52h249v-52h-249z" />
    <glyph glyph-name="ymacron" unicode="&#x233;" horiz-adv-x="375" 
d="M202 -105q-8 -32 -18.5 -57t-25.5 -42t-34.5 -26.5t-46.5 -9.5q-14 0 -28 2.5t-23 5.5l9 59q7 -2 17 -4t20 -2q29 0 43.5 20t23.5 55l22 86l-144 514h70l107 -419h2l95 419h67zM63 571v52h249v-52h-249z" />
    <glyph glyph-name="commaturnedmod" unicode="&#x2bb;" horiz-adv-x="189" 
d="M103 470h-59l51 238h50z" />
    <glyph glyph-name="afii57929" unicode="&#x2bc;" horiz-adv-x="189" 
d="M94 470h-50l42 238h59z" />
    <glyph glyph-name="circumflex" unicode="&#x2c6;" horiz-adv-x="225" 
d="M184 569l-72 105l-72 -105h-65l103 144h70l102 -144h-66z" />
    <glyph glyph-name="caron" unicode="&#x2c7;" horiz-adv-x="225" 
d="M148 568h-70l-103 144h65l72 -105l72 105h66z" />
    <glyph glyph-name="uni02C9" unicode="&#x2c9;" horiz-adv-x="225" 
d="M-12 809v52h249v-52h-249z" />
    <glyph glyph-name="breve" unicode="&#x2d8;" horiz-adv-x="225" 
d="M243 705q-8 -69 -44.5 -100.5t-87.5 -31.5q-49 0 -85.5 31.5t-43.5 100.5h50q6 -41 28.5 -60t50.5 -19q31 0 52.5 18t29.5 61h50v0z" />
    <glyph glyph-name="dotaccent" unicode="&#x2d9;" horiz-adv-x="225" 
d="M156 648q0 -21 -13 -34.5t-31 -13.5q-19 0 -31.5 13.5t-12.5 34.5q0 20 12.5 34t31.5 14t31.5 -14t12.5 -34z" />
    <glyph glyph-name="ring" unicode="&#x2da;" horiz-adv-x="225" 
d="M206 656q0 -43 -26.5 -72t-67.5 -29q-40 0 -66 29t-26 72q0 44 26 73t66 29q41 0 67.5 -29t26.5 -73zM168 656q0 27 -14.5 47t-41.5 20q-26 0 -40.5 -20t-14.5 -47q0 -26 14.5 -46t40.5 -20q27 0 41.5 20t14.5 46z" />
    <glyph glyph-name="ogonek" unicode="&#x2db;" horiz-adv-x="225" 
d="M200 -183q-16 -17 -36 -26.5t-43 -9.5q-37 0 -61.5 21.5t-24.5 59.5q0 21 7.5 40.5t19.5 37t26.5 33t28.5 27.5h44q-34 -37 -52.5 -64.5t-18.5 -56.5q0 -21 13.5 -34.5t32.5 -13.5q28 0 47 22z" />
    <glyph glyph-name="tilde" unicode="&#x2dc;" horiz-adv-x="225" 
d="M240 685q-3 -49 -21.5 -73.5t-47.5 -24.5q-16 0 -29.5 5t-33.5 19q-23 15 -32.5 19.5t-20.5 4.5q-16 0 -23 -13t-11 -36h-37q3 45 21 73t48 28q18 0 30.5 -5.5t32.5 -18.5q23 -15 33 -19.5t21 -4.5q16 0 22.5 10.5t10.5 35.5h37v0z" />
    <glyph glyph-name="hungarumlaut" unicode="&#x2dd;" horiz-adv-x="225" 
d="M45 569h-56l90 144h72zM179 569h-56l90 144h72z" />
    <glyph glyph-name="uni02EE" unicode="&#x2ee;" horiz-adv-x="315" 
d="M221 470h-51l42 238h59zM95 470h-51l42 238h59z" />
    <glyph glyph-name="gravecmb" unicode="&#x300;" horiz-adv-x="0" 
d="M-119 569l-106 144h72l90 -144h-56z" />
    <glyph glyph-name="acutecmb" unicode="&#x301;" horiz-adv-x="0" 
d="M-169 569h-56l90 144h72z" />
    <glyph glyph-name="circumflexcmb" unicode="&#x302;" horiz-adv-x="0" 
d="M-16 569l-72 105l-72 -105h-65l103 144h70l102 -144h-66z" />
    <glyph glyph-name="tildecmb" unicode="&#x303;" horiz-adv-x="0" 
d="M31 685q-3 -49 -21.5 -73.5t-47.5 -24.5q-16 0 -29.5 5t-33.5 19q-23 15 -32.5 19.5t-20.5 4.5q-16 0 -23 -13t-11 -36h-37q3 45 21 73t48 28q18 0 30.5 -5.5t32.5 -18.5q23 -15 33 -19.5t21 -4.5q16 0 22.5 10.5t10.5 35.5h37v0z" />
    <glyph glyph-name="macroncmb" unicode="&#x304;" horiz-adv-x="0" 
d="M-225 614v52h249v-52h-249z" />
    <glyph glyph-name="brevecmb" unicode="&#x306;" horiz-adv-x="0" 
d="M36 705q-8 -69 -44.5 -100.5t-87.5 -31.5q-49 0 -85.5 31.5t-43.5 100.5h50q6 -41 28.5 -60t50.5 -19q31 0 52.5 18t29.5 61h50v0z" />
    <glyph glyph-name="dotaccentcmb" unicode="&#x307;" horiz-adv-x="0" 
d="M-137 648q0 -21 -13 -34.5t-31 -13.5q-19 0 -31.5 13.5t-12.5 34.5q0 20 12.5 34t31.5 14t31.5 -14t12.5 -34z" />
    <glyph glyph-name="dieresiscmb" unicode="&#x308;" horiz-adv-x="0" 
d="M2 648q0 -20 -12 -32.5t-30 -12.5q-17 0 -29.5 12.5t-12.5 32.5q0 19 12.5 32t29.5 13q18 0 30 -13t12 -32zM-141 648q0 -20 -12.5 -32.5t-29.5 -12.5q-19 0 -30.5 12.5t-11.5 32.5q0 19 11.5 32t30.5 13q17 0 29.5 -13t12.5 -32z" />
    <glyph glyph-name="hookabovecomb" unicode="&#x309;" horiz-adv-x="225" 
d="M86 577q0 22 7.5 37t28.5 28q16 10 21.5 20.5t5.5 23.5q0 18 -8 29t-25 11q-16 0 -25.5 -11.5t-12.5 -40.5l-51 7q7 44 30.5 65t60.5 21q39 0 60 -22.5t21 -56.5q0 -51 -43 -74q-14 -8 -18.5 -17t-4.5 -20h-47z" />
    <glyph glyph-name="ringcmb" unicode="&#x30a;" horiz-adv-x="0" 
d="M-39 656q0 -43 -26.5 -72t-67.5 -29q-40 0 -66 29t-26 72q0 44 26 73t66 29q41 0 67.5 -29t26.5 -73zM-77 656q0 27 -14.5 47t-41.5 20q-26 0 -40.5 -20t-14.5 -47q0 -26 14.5 -46t40.5 -20q27 0 41.5 20t14.5 46z" />
    <glyph glyph-name="hungarumlautcmb" unicode="&#x30b;" horiz-adv-x="0" 
d="M-169 569h-56l90 144h72zM-35 569h-56l90 144h72z" />
    <glyph glyph-name="caroncmb" unicode="&#x30c;" horiz-adv-x="0" 
d="M-52 568h-70l-103 144h65l72 -105l72 105h66z" />
    <glyph glyph-name="doublegravecmb" unicode="&#x30f;" horiz-adv-x="0" 
d="M-119 569l-106 144h72l90 -144h-56zM-273 569l-106 144h72l90 -144h-56z" />
    <glyph glyph-name="invertedbrevecmb" unicode="&#x311;" horiz-adv-x="0" 
d="M0 705q-8 -69 -44.5 -100.5t-87.5 -31.5q-49 0 -85.5 31.5t-43.5 100.5h50q6 -41 28.5 -60t50.5 -19q31 0 52.5 18t29.5 61h50v0z" />
    <glyph glyph-name="horncmb" unicode="&#x31b;" horiz-adv-x="0" 
d="M-175 496q60 0 60 70q0 14 -4 30t-9 27l57 16q5 -13 8.5 -32.5t3.5 -40.5q0 -55 -26 -84t-71 -29q-23 0 -41 6.5t-32 14.5q-16 10 -28 22h82z" />
    <glyph glyph-name="dotbelowcomb" unicode="&#x323;" horiz-adv-x="225" 
d="M156 -150q0 -21 -13 -34.5t-31 -13.5q-19 0 -31.5 13.5t-12.5 34.5q0 20 12.5 34t31.5 14t31.5 -14t12.5 -34z" />
    <glyph glyph-name="dieresisbelowcmb" unicode="&#x324;" horiz-adv-x="0" 
d="M2 -115q0 -20 -12 -32.5t-30 -12.5q-17 0 -29.5 12.5t-12.5 32.5q0 19 12.5 32t29.5 13q18 0 30 -13t12 -32zM-141 -115q0 -20 -12.5 -32.5t-29.5 -12.5q-19 0 -30.5 12.5t-11.5 32.5q0 19 11.5 32t30.5 13q17 0 29.5 -13t12.5 -32z" />
    <glyph glyph-name="ringbelowcmb" unicode="&#x325;" horiz-adv-x="0" 
d="M-39 -172q0 -43 -26.5 -72t-67.5 -29q-40 0 -66 29t-26 72q0 44 26 73t66 29q41 0 67.5 -29t26.5 -73zM-77 -172q0 27 -14.5 47t-41.5 20q-26 0 -40.5 -20t-14.5 -47q0 -26 14.5 -46t40.5 -20q27 0 41.5 20t14.5 46z" />
    <glyph glyph-name="commabelowcmb" unicode="&#x326;" horiz-adv-x="0" 
d="M-163 -318h-54l58 248h66z" />
    <glyph glyph-name="cedillacmb" unicode="&#x327;" horiz-adv-x="0" 
d="M-138 -75q12 4 32 4q27 0 51 -17t24 -53q0 -25 -10 -42t-25.5 -27t-35 -14t-37.5 -4q-19 0 -42.5 4t-43.5 14l15 36q15 -8 32 -11t34 -3q7 0 17 2t19 7.5t15.5 14t6.5 20.5q0 20 -13 29.5t-36 9.5q-21 0 -40 -8l-16 15l57 98h39z" />
    <glyph glyph-name="ogonekcmb" unicode="&#x328;" horiz-adv-x="0" 
d="M-60 -183q-16 -17 -36 -26.5t-43 -9.5q-37 0 -61.5 21.5t-24.5 59.5q0 21 7.5 40.5t19.5 37t26.5 33t28.5 27.5h44q-34 -37 -52.5 -64.5t-18.5 -56.5q0 -21 13.5 -34.5t32.5 -13.5q28 0 47 22z" />
    <glyph glyph-name="circumflexbelowcmb" unicode="&#x32d;" horiz-adv-x="0" 
d="M-16 -214l-72 105l-72 -105h-65l103 144h70l102 -144h-66z" />
    <glyph glyph-name="brevebelowcmb" unicode="&#x32e;" horiz-adv-x="0" 
d="M36 -70q-8 -69 -44.5 -100.5t-87.5 -31.5q-49 0 -85.5 31.5t-43.5 100.5h50q6 -41 28.5 -60t50.5 -19q31 0 52.5 18t29.5 61h50v0z" />
    <glyph glyph-name="tildebelowcmb" unicode="&#x330;" horiz-adv-x="0" 
d="M31 -72q-3 -49 -21.5 -73.5t-47.5 -24.5q-16 0 -29.5 5t-33.5 19q-23 15 -32.5 19.5t-20.5 4.5q-16 0 -23 -13t-11 -36h-37q3 45 21 73t48 28q18 0 30.5 -5.5t32.5 -18.5q23 -15 33 -19.5t21 -4.5q16 0 22.5 10.5t10.5 35.5h37v0z" />
    <glyph glyph-name="macronbelowcmb" unicode="&#x331;" horiz-adv-x="0" 
d="M-225 -122v52h249v-52h-249z" />
    <glyph glyph-name="gravetonecmb" unicode="&#x340;" horiz-adv-x="0" 
d="M-119 569l-106 144h72l90 -144h-56z" />
    <glyph glyph-name="acutetonecmb" unicode="&#x341;" horiz-adv-x="0" 
d="M-169 569h-56l90 144h72z" />
    <glyph glyph-name="dialytikatonoscmb" unicode="&#x344;" horiz-adv-x="0" 
d="M2 648q0 -20 -12 -32.5t-30 -12.5q-17 0 -29.5 12.5t-12.5 32.5q0 19 12.5 32t29.5 13q18 0 30 -13t12 -32zM-141 648q0 -20 -12.5 -32.5t-29.5 -12.5q-19 0 -30.5 12.5t-11.5 32.5q0 19 11.5 32t30.5 13q17 0 29.5 -13t12.5 -32zM-137 768h-56l90 144h72z" />
    <glyph glyph-name="combininggraphemejoiner" unicode="&#x34f;" horiz-adv-x="0" 
 />
    <glyph glyph-name="uni037E" unicode="&#x37e;" horiz-adv-x="260" 
d="M177 446q0 -22 -13.5 -36t-33.5 -14t-33 14t-13 36q0 20 13 35t33 15t33.5 -15t13.5 -35zM101 -131h-54l58 248h66z" />
    <glyph glyph-name="anoteleia" unicode="&#x387;" horiz-adv-x="217" 
d="M155 260q0 -22 -13.5 -36t-33.5 -14t-33 14t-13 36q0 20 13 35t33 15t33.5 -15t13.5 -35z" />
    <glyph glyph-name="palochkacyrillic" unicode="&#x4c0;" horiz-adv-x="232" 
d="M81 0v708h70v-708h-70z" />
    <glyph glyph-name="Aiecyrillic" unicode="&#x4d4;" horiz-adv-x="628" 
d="M306 0v174h-177l-62 -174h-74l260 708h324v-62h-206v-249h191v-59h-191v-275h214v-63h-279zM306 647h-9l-149 -416h158v416z" />
    <glyph glyph-name="aiecyrillic" unicode="&#x4d5;" horiz-adv-x="649" 
d="M340 234q0 -41 7 -75.5t20.5 -60t34 -40t48.5 -14.5q36 0 58 22t34 53l50 -29q-18 -45 -53.5 -75.5t-90.5 -30.5q-57 0 -93 33t-48 95q-10 -60 -46.5 -94t-97.5 -34q-22 0 -43.5 8t-39 25.5t-28.5 45t-11 66.5q0 50 19 81.5t48 49t63.5 23.5t65.5 6h39v28q0 66 -23.5 102
t-65.5 36q-28 0 -52 -15t-41 -38l-35 41q23 33 60 51t74 18q54 0 84 -29.5t38 -83.5q15 53 48 83t84 30q44 0 74.5 -19t49.5 -51.5t27.5 -76.5t8.5 -94v-37h-267zM277 236h-40q-24 0 -48 -4.5t-42.5 -15.5t-30.5 -31t-12 -50q0 -26 6.5 -44t16.5 -29t23 -16t27 -5
q28 0 47.5 15t31 39t16.5 53.5t5 58.5v29zM540 289q0 75 -23 120.5t-72 45.5q-29 0 -48.5 -17.5t-32 -43t-18 -54.5t-5.5 -51h199z" />
    <glyph glyph-name="Aringbelow" unicode="&#x1e00;" horiz-adv-x="464" 
d="M384 0l-43 177h-218l-45 -177h-71l180 708h95l175 -708h-73zM235 645h-4l-98 -412h198zM325 -177q0 -43 -26.5 -72t-67.5 -29q-40 0 -66 29t-26 72q0 44 26 73t66 29q41 0 67.5 -29t26.5 -73zM287 -177q0 27 -14.5 47t-41.5 20q-26 0 -40.5 -20t-14.5 -47q0 -26 14.5 -46
t40.5 -20q27 0 41.5 20t14.5 46z" />
    <glyph glyph-name="aringbelow" unicode="&#x1e01;" horiz-adv-x="404" 
d="M285 0q-1 8 -1.5 20t-1 25.5t-0.5 26v21.5h-2q-25 -106 -120 -106q-21 0 -42 8t-38 26t-28 45.5t-11 66.5q0 54 19 87t48 52t63.5 25.5t65.5 6.5h39v26q0 65 -24 95t-65 30q-28 0 -52 -15t-41 -38l-35 41q23 33 60 51t74 18q78 0 111 -51t33 -149v-206q0 -10 0.5 -25
t1 -30.5t1.5 -29t2 -21.5h-57zM277 252h-40q-24 0 -48 -4.5t-42.5 -17t-30.5 -34.5t-12 -57q0 -52 23 -75t50 -23q28 0 47.5 17t31 43t16.5 57t5 60v34zM284 -190q0 -43 -26.5 -72t-67.5 -29q-40 0 -66 29t-26 72q0 44 26 73t66 29q41 0 67.5 -29t26.5 -73zM246 -190
q0 27 -14.5 47t-41.5 20q-26 0 -40.5 -20t-14.5 -47q0 -26 14.5 -46t40.5 -20q27 0 41.5 20t14.5 46z" />
    <glyph glyph-name="uni1E02" unicode="&#x1e02;" horiz-adv-x="486" 
d="M446 193q0 -55 -17.5 -92t-44.5 -59.5t-59.5 -32t-62.5 -9.5h-181v708h160q30 0 62 -8t58.5 -27.5t43.5 -53t17 -84.5q0 -36 -8.5 -62.5t-22.5 -46t-32 -32t-37 -19.5v-2q19 -4 41 -16t40.5 -33.5t30.5 -54t12 -76.5zM357 525q0 35 -10.5 59t-28 38.5t-39.5 20.5t-45 6
h-87v-251h89q22 0 43.5 7t38.5 22.5t28 39.5t11 58zM377 197q0 40 -12 67.5t-31 44.5t-42.5 25t-45.5 8h-99v-283h99q27 0 51 8t42 25t28 43t10 62zM281 843q0 -21 -13 -34.5t-31 -13.5q-19 0 -31.5 13.5t-12.5 34.5q0 20 12.5 34t31.5 14t31.5 -14t12.5 -34z" />
    <glyph glyph-name="uni1E03" unicode="&#x1e03;" horiz-adv-x="466" 
d="M419 250q0 -58 -10.5 -106.5t-30.5 -84t-49 -55.5t-67 -20q-51 0 -79 29.5t-40 75.5h-2v-89h-64v756h66v-345h1q12 45 42.5 73t75.5 28q38 0 67.5 -19.5t49.5 -54t30 -82.5t10 -106zM351 248q0 43 -6 81t-19 66t-32.5 44t-46.5 16q-26 0 -46 -16t-33.5 -44t-20 -66
t-6.5 -81q0 -44 6.5 -81.5t20 -65t33 -43.5t46.5 -16t46.5 16t32.5 43.5t19 65t6 81.5zM292 820q0 -21 -13 -34.5t-31 -13.5q-19 0 -31.5 13.5t-12.5 34.5q0 20 12.5 34t31.5 14t31.5 -14t12.5 -34z" />
    <glyph glyph-name="Bdotbelow" unicode="&#x1e04;" horiz-adv-x="486" 
d="M446 193q0 -55 -17.5 -92t-44.5 -59.5t-59.5 -32t-62.5 -9.5h-181v708h160q30 0 62 -8t58.5 -27.5t43.5 -53t17 -84.5q0 -36 -8.5 -62.5t-22.5 -46t-32 -32t-37 -19.5v-2q19 -4 41 -16t40.5 -33.5t30.5 -54t12 -76.5zM357 525q0 35 -10.5 59t-28 38.5t-39.5 20.5t-45 6
h-87v-251h89q22 0 43.5 7t38.5 22.5t28 39.5t11 58zM377 197q0 40 -12 67.5t-31 44.5t-42.5 25t-45.5 8h-99v-283h99q27 0 51 8t42 25t28 43t10 62zM307 -123q0 -21 -13 -34.5t-31 -13.5q-19 0 -31.5 13.5t-12.5 34.5q0 20 12.5 34t31.5 14t31.5 -14t12.5 -34z" />
    <glyph glyph-name="bdotbelow" unicode="&#x1e05;" horiz-adv-x="466" 
d="M419 250q0 -58 -10.5 -106.5t-30.5 -84t-49 -55.5t-67 -20q-51 0 -79 29.5t-40 75.5h-2v-89h-64v756h66v-345h1q12 45 42.5 73t75.5 28q38 0 67.5 -19.5t49.5 -54t30 -82.5t10 -106zM351 248q0 43 -6 81t-19 66t-32.5 44t-46.5 16q-26 0 -46 -16t-33.5 -44t-20 -66
t-6.5 -81q0 -44 6.5 -81.5t20 -65t33 -43.5t46.5 -16t46.5 16t32.5 43.5t19 65t6 81.5zM292 -139q0 -21 -13 -34.5t-31 -13.5q-19 0 -31.5 13.5t-12.5 34.5q0 20 12.5 34t31.5 14t31.5 -14t12.5 -34z" />
    <glyph glyph-name="Blinebelow" unicode="&#x1e06;" horiz-adv-x="486" 
d="M446 193q0 -55 -17.5 -92t-44.5 -59.5t-59.5 -32t-62.5 -9.5h-181v708h160q30 0 62 -8t58.5 -27.5t43.5 -53t17 -84.5q0 -36 -8.5 -62.5t-22.5 -46t-32 -32t-37 -19.5v-2q19 -4 41 -16t40.5 -33.5t30.5 -54t12 -76.5zM357 525q0 35 -10.5 59t-28 38.5t-39.5 20.5t-45 6
h-87v-251h89q22 0 43.5 7t38.5 22.5t28 39.5t11 58zM377 197q0 40 -12 67.5t-31 44.5t-42.5 25t-45.5 8h-99v-283h99q27 0 51 8t42 25t28 43t10 62zM139 -127v52h249v-52h-249z" />
    <glyph glyph-name="blinebelow" unicode="&#x1e07;" horiz-adv-x="466" 
d="M419 250q0 -58 -10.5 -106.5t-30.5 -84t-49 -55.5t-67 -20q-51 0 -79 29.5t-40 75.5h-2v-89h-64v756h66v-345h1q12 45 42.5 73t75.5 28q38 0 67.5 -19.5t49.5 -54t30 -82.5t10 -106zM351 248q0 43 -6 81t-19 66t-32.5 44t-46.5 16q-26 0 -46 -16t-33.5 -44t-20 -66
t-6.5 -81q0 -44 6.5 -81.5t20 -65t33 -43.5t46.5 -16t46.5 16t32.5 43.5t19 65t6 81.5zM124 -143v52h249v-52h-249z" />
    <glyph glyph-name="Ccedillaacute" unicode="&#x1e08;" horiz-adv-x="479" 
d="M461 80q-28 -47 -71 -72t-97 -25l-33 -58q12 4 32 4q27 0 51 -17t24 -53q0 -25 -10 -42t-25.5 -27t-35 -14t-37.5 -4q-19 0 -42.5 4t-43.5 14l15 36q15 -8 32 -11t34 -3q7 0 17 2t19 7.5t15.5 14t6.5 20.5q0 20 -13 29.5t-36 9.5q-21 0 -40 -8l-16 15l49 84
q-49 9 -87.5 40t-64.5 80t-40 112t-14 136q0 80 16.5 148t48 117.5t76.5 77.5t102 28q50 0 93.5 -21t72.5 -66l-45 -46q-23 35 -53.5 52t-64.5 17q-44 0 -76.5 -24t-54 -66t-32 -98t-10.5 -119t11 -118.5t32.5 -97.5t54 -66.5t76.5 -24.5q38 0 69 21.5t51 56.5l44 -45v0z
M230 800h-56l90 144h72z" />
    <glyph glyph-name="ccedillaacute" unicode="&#x1e09;" horiz-adv-x="336" 
d="M328 35q-37 -48 -103 -51l-34 -59q12 4 32 4q27 0 51 -17t24 -53q0 -25 -10 -42t-25.5 -27t-35 -14t-37.5 -4q-19 0 -42.5 4t-43.5 14l15 36q15 -8 32 -11t34 -3q7 0 17 2t19 7.5t15.5 14t6.5 20.5q0 20 -13 29.5t-36 9.5q-21 0 -40 -8l-16 15l49 85q-70 14 -105 84.5
t-35 176.5q0 59 11 107.5t33 83.5t54 54t74 19q38 0 65 -14t43 -33l-35 -48q-12 17 -30 27t-42 10q-27 0 -46.5 -15.5t-32.5 -43t-19.5 -65t-6.5 -82.5q0 -44 6.5 -81t19.5 -64t33.5 -42t48.5 -15q25 0 43.5 10.5t31.5 29.5l30 -51v0zM162 587h-56l90 144h72z" />
    <glyph glyph-name="uni1E0A" unicode="&#x1e0a;" horiz-adv-x="541" 
d="M490 353q0 -87 -18 -153t-52 -110.5t-81.5 -67t-105.5 -22.5h-152v708h153q58 0 105.5 -22.5t81 -67.5t51.5 -111.5t18 -153.5zM421 353q0 75 -14.5 130.5t-40 91.5t-60 54t-74.5 18h-82v-586h82q40 0 74.5 18t60 54t40 91t14.5 129zM290 843q0 -21 -13 -34.5t-31 -13.5
q-19 0 -31.5 13.5t-12.5 34.5q0 20 12.5 34t31.5 14t31.5 -14t12.5 -34z" />
    <glyph glyph-name="uni1E0B" unicode="&#x1e0b;" horiz-adv-x="466" 
d="M325 0v89h-2q-12 -45 -40 -75t-79 -30q-38 0 -67 20t-49 55.5t-30.5 84t-10.5 106.5t10 106t29.5 82.5t49 54t67.5 19.5q45 0 76 -27.5t42 -72.5h2v344h66v-756h-64zM325 248q0 44 -6.5 82t-20 65.5t-33.5 43.5t-46 16q-27 0 -46.5 -16t-32.5 -43.5t-19 -65.5t-6 -82
q0 -43 6 -80.5t19 -65.5t32.5 -44t46.5 -16t46.5 16t33 44t20 65.5t6.5 80.5zM262 820q0 -21 -13 -34.5t-31 -13.5q-19 0 -31.5 13.5t-12.5 34.5q0 20 12.5 34t31.5 14t31.5 -14t12.5 -34z" />
    <glyph glyph-name="Ddotbelow" unicode="&#x1e0c;" horiz-adv-x="541" 
d="M490 353q0 -87 -18 -153t-52 -110.5t-81.5 -67t-105.5 -22.5h-152v708h153q58 0 105.5 -22.5t81 -67.5t51.5 -111.5t18 -153.5zM421 353q0 75 -14.5 130.5t-40 91.5t-60 54t-74.5 18h-82v-586h82q40 0 74.5 18t60 54t40 91t14.5 129zM329 -123q0 -21 -13 -34.5t-31 -13.5
q-19 0 -31.5 13.5t-12.5 34.5q0 20 12.5 34t31.5 14t31.5 -14t12.5 -34z" />
    <glyph glyph-name="ddotbelow" unicode="&#x1e0d;" horiz-adv-x="466" 
d="M325 0v89h-2q-12 -45 -40 -75t-79 -30q-38 0 -67 20t-49 55.5t-30.5 84t-10.5 106.5t10 106t29.5 82.5t49 54t67.5 19.5q45 0 76 -27.5t42 -72.5h2v344h66v-756h-64zM325 248q0 44 -6.5 82t-20 65.5t-33.5 43.5t-46 16q-27 0 -46.5 -16t-32.5 -43.5t-19 -65.5t-6 -82
q0 -43 6 -80.5t19 -65.5t32.5 -44t46.5 -16t46.5 16t33 44t20 65.5t6.5 80.5zM262 -139q0 -21 -13 -34.5t-31 -13.5q-19 0 -31.5 13.5t-12.5 34.5q0 20 12.5 34t31.5 14t31.5 -14t12.5 -34z" />
    <glyph glyph-name="Dlinebelow" unicode="&#x1e0e;" horiz-adv-x="541" 
d="M490 353q0 -87 -18 -153t-52 -110.5t-81.5 -67t-105.5 -22.5h-152v708h153q58 0 105.5 -22.5t81 -67.5t51.5 -111.5t18 -153.5zM421 353q0 75 -14.5 130.5t-40 91.5t-60 54t-74.5 18h-82v-586h82q40 0 74.5 18t60 54t40 91t14.5 129zM161 -127v52h249v-52h-249z" />
    <glyph glyph-name="dlinebelow" unicode="&#x1e0f;" horiz-adv-x="466" 
d="M325 0v89h-2q-12 -45 -40 -75t-79 -30q-38 0 -67 20t-49 55.5t-30.5 84t-10.5 106.5t10 106t29.5 82.5t49 54t67.5 19.5q45 0 76 -27.5t42 -72.5h2v344h66v-756h-64zM325 248q0 44 -6.5 82t-20 65.5t-33.5 43.5t-46 16q-27 0 -46.5 -16t-32.5 -43.5t-19 -65.5t-6 -82
q0 -43 6 -80.5t19 -65.5t32.5 -44t46.5 -16t46.5 16t33 44t20 65.5t6.5 80.5zM94 -143v52h249v-52h-249z" />
    <glyph glyph-name="Dcommaaccent" unicode="&#x1e10;" horiz-adv-x="541" 
d="M490 353q0 -87 -18 -153t-52 -110.5t-81.5 -67t-105.5 -22.5h-152v708h153q58 0 105.5 -22.5t81 -67.5t51.5 -111.5t18 -153.5zM421 353q0 75 -14.5 130.5t-40 91.5t-60 54t-74.5 18h-82v-586h82q40 0 74.5 18t60 54t40 91t14.5 129zM277 -323h-54l58 248h66z" />
    <glyph glyph-name="dcommaaccent" unicode="&#x1e11;" horiz-adv-x="466" 
d="M325 0v89h-2q-12 -45 -40 -75t-79 -30q-38 0 -67 20t-49 55.5t-30.5 84t-10.5 106.5t10 106t29.5 82.5t49 54t67.5 19.5q45 0 76 -27.5t42 -72.5h2v344h66v-756h-64zM325 248q0 44 -6.5 82t-20 65.5t-33.5 43.5t-46 16q-27 0 -46.5 -16t-32.5 -43.5t-19 -65.5t-6 -82
q0 -43 6 -80.5t19 -65.5t32.5 -44t46.5 -16t46.5 16t33 44t20 65.5t6.5 80.5zM210 -339h-54l58 248h66z" />
    <glyph glyph-name="Dcircumflexbelow" unicode="&#x1e12;" horiz-adv-x="541" 
d="M490 353q0 -87 -18 -153t-52 -110.5t-81.5 -67t-105.5 -22.5h-152v708h153q58 0 105.5 -22.5t81 -67.5t51.5 -111.5t18 -153.5zM421 353q0 75 -14.5 130.5t-40 91.5t-60 54t-74.5 18h-82v-586h82q40 0 74.5 18t60 54t40 91t14.5 129zM357 -219l-72 105l-72 -105h-65
l103 144h70l102 -144h-66z" />
    <glyph glyph-name="dcircumflexbelow" unicode="&#x1e13;" horiz-adv-x="466" 
d="M325 0v89h-2q-12 -45 -40 -75t-79 -30q-38 0 -67 20t-49 55.5t-30.5 84t-10.5 106.5t10 106t29.5 82.5t49 54t67.5 19.5q45 0 76 -27.5t42 -72.5h2v344h66v-756h-64zM325 248q0 44 -6.5 82t-20 65.5t-33.5 43.5t-46 16q-27 0 -46.5 -16t-32.5 -43.5t-19 -65.5t-6 -82
q0 -43 6 -80.5t19 -65.5t32.5 -44t46.5 -16t46.5 16t33 44t20 65.5t6.5 80.5zM290 -235l-72 105l-72 -105h-65l103 144h70l102 -144h-66z" />
    <glyph glyph-name="Emacrongrave" unicode="&#x1e14;" horiz-adv-x="418" 
d="M81 0v708h285v-62h-217v-249h203v-59h-203v-275h227v-63h-295zM104 783v52h249v-52h-249zM253 910l-106 144h72l90 -144h-56z" />
    <glyph glyph-name="emacrongrave" unicode="&#x1e15;" horiz-adv-x="423" 
d="M114 234q0 -41 7 -75.5t20.5 -60t34 -40t48.5 -14.5q36 0 58 22t34 53l50 -29q-18 -45 -53.5 -75.5t-90.5 -30.5q-83 0 -129 70t-46 193q0 58 12 107t34.5 84t55 54.5t72.5 19.5q44 0 74.5 -19t49.5 -52t27.5 -77t8.5 -94v-36h-267zM314 289q0 75 -23 120.5t-72 45.5
q-29 0 -48.5 -17.5t-32 -43t-18 -54.5t-5.5 -51h199zM90 587v52h249v-52h-249zM239 714l-106 144h72l90 -144h-56z" />
    <glyph glyph-name="Emacronacute" unicode="&#x1e16;" horiz-adv-x="418" 
d="M81 0v708h285v-62h-217v-249h203v-59h-203v-275h227v-63h-295zM104 783v52h249v-52h-249zM203 910h-56l90 144h72z" />
    <glyph glyph-name="emacronacute" unicode="&#x1e17;" horiz-adv-x="423" 
d="M114 234q0 -41 7 -75.5t20.5 -60t34 -40t48.5 -14.5q36 0 58 22t34 53l50 -29q-18 -45 -53.5 -75.5t-90.5 -30.5q-83 0 -129 70t-46 193q0 58 12 107t34.5 84t55 54.5t72.5 19.5q44 0 74.5 -19t49.5 -52t27.5 -77t8.5 -94v-36h-267zM314 289q0 75 -23 120.5t-72 45.5
q-29 0 -48.5 -17.5t-32 -43t-18 -54.5t-5.5 -51h199zM90 587v52h249v-52h-249zM189 714h-56l90 144h72z" />
    <glyph glyph-name="Ecircumflexbelow" unicode="&#x1e18;" horiz-adv-x="418" 
d="M81 0v708h285v-62h-217v-249h203v-59h-203v-275h227v-63h-295zM300 -219l-72 105l-72 -105h-65l103 144h70l102 -144h-66z" />
    <glyph glyph-name="ecircumflexbelow" unicode="&#x1e19;" horiz-adv-x="423" 
d="M114 234q0 -41 7 -75.5t20.5 -60t34 -40t48.5 -14.5q36 0 58 22t34 53l50 -29q-18 -45 -53.5 -75.5t-90.5 -30.5q-83 0 -129 70t-46 193q0 58 12 107t34.5 84t55 54.5t72.5 19.5q44 0 74.5 -19t49.5 -52t27.5 -77t8.5 -94v-36h-267zM314 289q0 75 -23 120.5t-72 45.5
q-29 0 -48.5 -17.5t-32 -43t-18 -54.5t-5.5 -51h199zM286 -235l-72 105l-72 -105h-65l103 144h70l102 -144h-66z" />
    <glyph glyph-name="Etildebelow" unicode="&#x1e1a;" horiz-adv-x="418" 
d="M81 0v708h285v-62h-217v-249h203v-59h-203v-275h227v-63h-295zM356 -77q-3 -49 -21.5 -73.5t-47.5 -24.5q-16 0 -29.5 5t-33.5 19q-23 15 -32.5 19.5t-20.5 4.5q-16 0 -23 -13t-11 -36h-37q3 45 21 73t48 28q18 0 30.5 -5.5t32.5 -18.5q23 -15 33 -19.5t21 -4.5
q16 0 22.5 10.5t10.5 35.5h37v0z" />
    <glyph glyph-name="etildebelow" unicode="&#x1e1b;" horiz-adv-x="423" 
d="M114 234q0 -41 7 -75.5t20.5 -60t34 -40t48.5 -14.5q36 0 58 22t34 53l50 -29q-18 -45 -53.5 -75.5t-90.5 -30.5q-83 0 -129 70t-46 193q0 58 12 107t34.5 84t55 54.5t72.5 19.5q44 0 74.5 -19t49.5 -52t27.5 -77t8.5 -94v-36h-267zM314 289q0 75 -23 120.5t-72 45.5
q-29 0 -48.5 -17.5t-32 -43t-18 -54.5t-5.5 -51h199zM342 -93q-3 -49 -21.5 -73.5t-47.5 -24.5q-16 0 -29.5 5t-33.5 19q-23 15 -32.5 19.5t-20.5 4.5q-16 0 -23 -13t-11 -36h-37q3 45 21 73t48 28q18 0 30.5 -5.5t32.5 -18.5q23 -15 33 -19.5t21 -4.5q16 0 22.5 10.5
t10.5 35.5h37v0z" />
    <glyph glyph-name="Ecedillabreve" unicode="&#x1e1c;" horiz-adv-x="418" 
d="M81 0v708h285v-62h-217v-249h203v-59h-203v-275h227v-63h-295zM359 915q-8 -69 -44.5 -100.5t-87.5 -31.5q-49 0 -85.5 31.5t-43.5 100.5h50q6 -41 28.5 -60t50.5 -19q31 0 52.5 18t29.5 61h50v0zM218 -75q12 4 32 4q27 0 51 -17t24 -53q0 -25 -10 -42t-25.5 -27t-35 -14
t-37.5 -4q-19 0 -42.5 4t-43.5 14l15 36q15 -8 32 -11t34 -3q7 0 17 2t19 7.5t15.5 14t6.5 20.5q0 20 -13 29.5t-36 9.5q-21 0 -40 -8l-16 15l57 98h39z" />
    <glyph glyph-name="ecedillabreve" unicode="&#x1e1d;" horiz-adv-x="423" 
d="M114 234q0 -41 7 -75.5t20.5 -60t34 -40t48.5 -14.5q36 0 58 22t34 53l50 -29q-18 -45 -53.5 -75.5t-90.5 -30.5q-83 0 -129 70t-46 193q0 58 12 107t34.5 84t55 54.5t72.5 19.5q44 0 74.5 -19t49.5 -52t27.5 -77t8.5 -94v-36h-267zM314 289q0 75 -23 120.5t-72 45.5
q-29 0 -48.5 -17.5t-32 -43t-18 -54.5t-5.5 -51h199zM345 719q-8 -69 -44.5 -100.5t-87.5 -31.5q-49 0 -85.5 31.5t-43.5 100.5h50q6 -41 28.5 -60t50.5 -19q31 0 52.5 18t29.5 61h50v0zM204 -91q12 4 32 4q27 0 51 -17t24 -53q0 -25 -10 -42t-25.5 -27t-35 -14t-37.5 -4
q-19 0 -42.5 4t-43.5 14l15 36q15 -8 32 -11t34 -3q7 0 17 2t19 7.5t15.5 14t6.5 20.5q0 20 -13 29.5t-36 9.5q-21 0 -40 -8l-16 15l57 98h39z" />
    <glyph glyph-name="uni1E1E" unicode="&#x1e1e;" horiz-adv-x="396" 
d="M150 645v-253h199v-61h-199v-331h-69v708h283v-63h-214zM266 843q0 -21 -13 -34.5t-31 -13.5q-19 0 -31.5 13.5t-12.5 34.5q0 20 12.5 34t31.5 14t31.5 -14t12.5 -34z" />
    <glyph glyph-name="uni1E1F" unicode="&#x1e1f;" horiz-adv-x="237" 
d="M245 711q-15 5 -29 5q-20 0 -33.5 -10t-21.5 -26t-11 -36.5t-3 -42.5v-105h84v-54h-84v-442h-65v442h-67v54h67v105q0 76 30.5 123.5t96.5 47.5q23 0 41 -6zM199 852q0 -21 -13 -34.5t-31 -13.5q-19 0 -31.5 13.5t-12.5 34.5q0 20 12.5 34t31.5 14t31.5 -14t12.5 -34z
" />
    <glyph glyph-name="Gmacron" unicode="&#x1e20;" horiz-adv-x="535" 
d="M469 44q-29 -26 -70.5 -41.5t-97.5 -15.5q-59 0 -106 26t-79 74t-49 116t-17 152q0 79 16.5 147t47.5 117.5t76 77.5t102 28q52 0 95 -21t72 -66l-45 -46q-23 35 -53.5 52.5t-65.5 17.5q-44 0 -76 -24.5t-53.5 -66.5t-32 -97.5t-10.5 -118.5q0 -66 11 -122t33.5 -96.5
t56 -63.5t77.5 -23q32 0 57.5 8t42.5 23v240h-101v61h169v-338v0zM135 800v52h249v-52h-249z" />
    <glyph glyph-name="gmacron" unicode="&#x1e21;" horiz-adv-x="466" 
d="M389 7q0 -53 -8.5 -98t-28.5 -78t-54 -52t-85 -19q-49 0 -91.5 22.5t-68.5 60.5l43 46q20 -31 50.5 -50t68.5 -19q33 0 54.5 14t33.5 39t17 59t5 75v82h-2q-12 -45 -40 -75t-79 -30q-38 0 -67 20t-49 55.5t-30.5 84t-10.5 106.5t10 106t29.5 82.5t49 54t67.5 19.5
q45 0 76.5 -27.5t42.5 -72.5h3v84h64v-489zM325 248q0 43 -6.5 81t-20 66t-33.5 44t-46 16q-27 0 -46.5 -16t-32.5 -43.5t-19 -65.5t-6 -82q0 -43 6 -80.5t19 -65.5t32.5 -44t46.5 -16t46.5 16t33 43.5t20 65t6.5 81.5zM94 587v52h249v-52h-249z" />
    <glyph glyph-name="uni1E22" unicode="&#x1e22;" horiz-adv-x="573" 
d="M422 0v336h-271v-336h-70v708h70v-310h271v310h70v-708h-70zM330 843q0 -21 -13 -34.5t-31 -13.5q-19 0 -31.5 13.5t-12.5 34.5q0 20 12.5 34t31.5 14t31.5 -14t12.5 -34z" />
    <glyph glyph-name="uni1E23" unicode="&#x1e23;" horiz-adv-x="467" 
d="M327 0v320q0 23 -2.5 46.5t-10.5 43t-23.5 32t-40.5 12.5t-44.5 -13.5t-33.5 -37t-21.5 -54t-7.5 -63.5v-286h-66v756h66v-354h2q13 48 45 79t80 31q40 0 64.5 -17t37.5 -44.5t17.5 -62t4.5 -68.5v-320h-67zM279 820q0 -21 -13 -34.5t-31 -13.5q-19 0 -31.5 13.5
t-12.5 34.5q0 20 12.5 34t31.5 14t31.5 -14t12.5 -34z" />
    <glyph glyph-name="Hdotbelow" unicode="&#x1e24;" horiz-adv-x="573" 
d="M422 0v336h-271v-336h-70v708h70v-310h271v310h70v-708h-70zM330 -123q0 -21 -13 -34.5t-31 -13.5q-19 0 -31.5 13.5t-12.5 34.5q0 20 12.5 34t31.5 14t31.5 -14t12.5 -34z" />
    <glyph glyph-name="hdotbelow" unicode="&#x1e25;" horiz-adv-x="467" 
d="M327 0v320q0 23 -2.5 46.5t-10.5 43t-23.5 32t-40.5 12.5t-44.5 -13.5t-33.5 -37t-21.5 -54t-7.5 -63.5v-286h-66v756h66v-354h2q13 48 45 79t80 31q40 0 64.5 -17t37.5 -44.5t17.5 -62t4.5 -68.5v-320h-67zM279 -123q0 -21 -13 -34.5t-31 -13.5q-19 0 -31.5 13.5
t-12.5 34.5q0 20 12.5 34t31.5 14t31.5 -14t12.5 -34z" />
    <glyph glyph-name="Hdieresis" unicode="&#x1e26;" horiz-adv-x="573" 
d="M422 0v336h-271v-336h-70v708h70v-310h271v310h70v-708h-70zM400 828q0 -20 -12 -32.5t-30 -12.5q-17 0 -29.5 12.5t-12.5 32.5q0 19 12.5 32t29.5 13q18 0 30 -13t12 -32zM257 828q0 -20 -12.5 -32.5t-29.5 -12.5q-19 0 -30.5 12.5t-11.5 32.5q0 19 11.5 32t30.5 13
q17 0 29.5 -13t12.5 -32z" />
    <glyph glyph-name="hdieresis" unicode="&#x1e27;" horiz-adv-x="467" 
d="M327 0v320q0 23 -2.5 46.5t-10.5 43t-23.5 32t-40.5 12.5t-44.5 -13.5t-33.5 -37t-21.5 -54t-7.5 -63.5v-286h-66v756h66v-354h2q13 48 45 79t80 31q40 0 64.5 -17t37.5 -44.5t17.5 -62t4.5 -68.5v-320h-67zM349 876q0 -20 -12 -32.5t-30 -12.5q-17 0 -29.5 12.5
t-12.5 32.5q0 19 12.5 32t29.5 13q18 0 30 -13t12 -32zM206 876q0 -20 -12.5 -32.5t-29.5 -12.5q-19 0 -30.5 12.5t-11.5 32.5q0 19 11.5 32t30.5 13q17 0 29.5 -13t12.5 -32z" />
    <glyph glyph-name="Hcedilla" unicode="&#x1e28;" horiz-adv-x="573" 
d="M422 0v336h-271v-336h-70v708h70v-310h271v310h70v-708h-70zM102 -75q12 4 32 4q27 0 51 -17t24 -53q0 -25 -10 -42t-25.5 -27t-35 -14t-37.5 -4q-19 0 -42.5 4t-43.5 14l15 36q15 -8 32 -11t34 -3q7 0 17 2t19 7.5t15.5 14t6.5 20.5q0 20 -13 29.5t-36 9.5q-21 0 -40 -8
l-16 15l57 98h39z" />
    <glyph glyph-name="hcedilla" unicode="&#x1e29;" horiz-adv-x="467" 
d="M327 0v320q0 23 -2.5 46.5t-10.5 43t-23.5 32t-40.5 12.5t-44.5 -13.5t-33.5 -37t-21.5 -54t-7.5 -63.5v-286h-66v756h66v-354h2q13 48 45 79t80 31q40 0 64.5 -17t37.5 -44.5t17.5 -62t4.5 -68.5v-320h-67zM102 -75q12 4 32 4q27 0 51 -17t24 -53q0 -25 -10 -42
t-25.5 -27t-35 -14t-37.5 -4q-19 0 -42.5 4t-43.5 14l15 36q15 -8 32 -11t34 -3q7 0 17 2t19 7.5t15.5 14t6.5 20.5q0 20 -13 29.5t-36 9.5q-21 0 -40 -8l-16 15l57 98h39z" />
    <glyph glyph-name="Hbrevebelow" unicode="&#x1e2a;" horiz-adv-x="573" 
d="M422 0v336h-271v-336h-70v708h70v-310h271v310h70v-708h-70zM417 -75q-8 -69 -44.5 -100.5t-87.5 -31.5q-49 0 -85.5 31.5t-43.5 100.5h50q6 -41 28.5 -60t50.5 -19q31 0 52.5 18t29.5 61h50v0z" />
    <glyph glyph-name="hbrevebelow" unicode="&#x1e2b;" horiz-adv-x="467" 
d="M327 0v320q0 23 -2.5 46.5t-10.5 43t-23.5 32t-40.5 12.5t-44.5 -13.5t-33.5 -37t-21.5 -54t-7.5 -63.5v-286h-66v756h66v-354h2q13 48 45 79t80 31q40 0 64.5 -17t37.5 -44.5t17.5 -62t4.5 -68.5v-320h-67zM366 -75q-8 -69 -44.5 -100.5t-87.5 -31.5q-49 0 -85.5 31.5
t-43.5 100.5h50q6 -41 28.5 -60t50.5 -19q31 0 52.5 18t29.5 61h50v0z" />
    <glyph glyph-name="Itildebelow" unicode="&#x1e2c;" horiz-adv-x="232" 
d="M81 0v708h70v-708h-70zM244 -77q-3 -49 -21.5 -73.5t-47.5 -24.5q-16 0 -29.5 5t-33.5 19q-23 15 -32.5 19.5t-20.5 4.5q-16 0 -23 -13t-11 -36h-37q3 45 21 73t48 28q18 0 30.5 -5.5t32.5 -18.5q23 -15 33 -19.5t21 -4.5q16 0 22.5 10.5t10.5 35.5h37v0z" />
    <glyph glyph-name="itildebelow" unicode="&#x1e2d;" horiz-adv-x="220" 
d="M154 648q0 -21 -13 -34.5t-31 -13.5q-19 0 -31.5 13.5t-12.5 34.5q0 20 12.5 34t31.5 14t31.5 -14t12.5 -34zM77 0v496h66v-496h-66zM238 -77q-3 -49 -21.5 -73.5t-47.5 -24.5q-16 0 -29.5 5t-33.5 19q-23 15 -32.5 19.5t-20.5 4.5q-16 0 -23 -13t-11 -36h-37q3 45 21 73
t48 28q18 0 30.5 -5.5t32.5 -18.5q23 -15 33 -19.5t21 -4.5q16 0 22.5 10.5t10.5 35.5h37v0z" />
    <glyph glyph-name="Idieresisacute" unicode="&#x1e2e;" horiz-adv-x="232" 
d="M81 0v708h70v-708h-70zM230 828q0 -20 -12 -32.5t-30 -12.5q-17 0 -29.5 12.5t-12.5 32.5q0 19 12.5 32t29.5 13q18 0 30 -13t12 -32zM87 828q0 -20 -12.5 -32.5t-29.5 -12.5q-19 0 -30.5 12.5t-11.5 32.5q0 19 11.5 32t30.5 13q17 0 29.5 -13t12.5 -32zM91 948h-56
l90 144h72z" />
    <glyph glyph-name="idieresisacute" unicode="&#x1e2f;" horiz-adv-x="220" 
d="M77 0v496h66v-496h-66zM224 616q0 -20 -12 -32.5t-30 -12.5q-17 0 -29.5 12.5t-12.5 32.5q0 19 12.5 32t29.5 13q18 0 30 -13t12 -32zM81 616q0 -20 -12.5 -32.5t-29.5 -12.5q-19 0 -30.5 12.5t-11.5 32.5q0 19 11.5 32t30.5 13q17 0 29.5 -13t12.5 -32zM85 736h-56
l90 144h72z" />
    <glyph glyph-name="Kacute" unicode="&#x1e30;" horiz-adv-x="482" 
d="M387 0l-236 363h-1v-363h-69v708h69v-318h1l222 318h81l-238 -327l255 -381h-84zM251 783h-56l90 144h72z" />
    <glyph glyph-name="kacute" unicode="&#x1e31;" horiz-adv-x="400" 
d="M315 0l-170 250h-2v-250h-66v756h66v-479h2l160 219h79l-178 -230l189 -266h-80zM211 831h-56l90 144h72z" />
    <glyph glyph-name="Kdotbelow" unicode="&#x1e32;" horiz-adv-x="482" 
d="M387 0l-236 363h-1v-363h-69v708h69v-318h1l222 318h81l-238 -327l255 -381h-84zM320 -123q0 -21 -13 -34.5t-31 -13.5q-19 0 -31.5 13.5t-12.5 34.5q0 20 12.5 34t31.5 14t31.5 -14t12.5 -34z" />
    <glyph glyph-name="kdotbelow" unicode="&#x1e33;" horiz-adv-x="400" 
d="M315 0l-170 250h-2v-250h-66v756h66v-479h2l160 219h79l-178 -230l189 -266h-80zM280 -123q0 -21 -13 -34.5t-31 -13.5q-19 0 -31.5 13.5t-12.5 34.5q0 20 12.5 34t31.5 14t31.5 -14t12.5 -34z" />
    <glyph glyph-name="Klinebelow" unicode="&#x1e34;" horiz-adv-x="482" 
d="M387 0l-236 363h-1v-363h-69v708h69v-318h1l222 318h81l-238 -327l255 -381h-84zM152 -127v52h249v-52h-249z" />
    <glyph glyph-name="klinebelow" unicode="&#x1e35;" horiz-adv-x="400" 
d="M315 0l-170 250h-2v-250h-66v756h66v-479h2l160 219h79l-178 -230l189 -266h-80zM112 -127v52h249v-52h-249z" />
    <glyph glyph-name="Ldotbelow" unicode="&#x1e36;" horiz-adv-x="357" 
d="M81 0v708h70v-643h202v-65h-272zM261 -123q0 -21 -13 -34.5t-31 -13.5q-19 0 -31.5 13.5t-12.5 34.5q0 20 12.5 34t31.5 14t31.5 -14t12.5 -34z" />
    <glyph glyph-name="ldotbelow" unicode="&#x1e37;" horiz-adv-x="220" 
d="M77 0v756h66v-756h-66zM154 -123q0 -21 -13 -34.5t-31 -13.5q-19 0 -31.5 13.5t-12.5 34.5q0 20 12.5 34t31.5 14t31.5 -14t12.5 -34z" />
    <glyph glyph-name="Ldotbelowmacron" unicode="&#x1e38;" horiz-adv-x="357" 
d="M81 0v708h70v-643h202v-65h-272zM261 -123q0 -21 -13 -34.5t-31 -13.5q-19 0 -31.5 13.5t-12.5 34.5q0 20 12.5 34t31.5 14t31.5 -14t12.5 -34zM93 783v52h249v-52h-249z" />
    <glyph glyph-name="ldotbelowmacron" unicode="&#x1e39;" horiz-adv-x="220" 
d="M77 0v756h66v-756h-66zM154 -123q0 -21 -13 -34.5t-31 -13.5q-19 0 -31.5 13.5t-12.5 34.5q0 20 12.5 34t31.5 14t31.5 -14t12.5 -34zM-14 831v52h249v-52h-249z" />
    <glyph glyph-name="Llinebelow" unicode="&#x1e3a;" horiz-adv-x="357" 
d="M81 0v708h70v-643h202v-65h-272zM93 -127v52h249v-52h-249z" />
    <glyph glyph-name="llinebelow" unicode="&#x1e3b;" horiz-adv-x="220" 
d="M77 0v756h66v-756h-66zM-14 -127v52h249v-52h-249z" />
    <glyph glyph-name="Lcircumflexbelow" unicode="&#x1e3c;" horiz-adv-x="357" 
d="M81 0v708h70v-643h202v-65h-272zM289 -219l-72 105l-72 -105h-65l103 144h70l102 -144h-66z" />
    <glyph glyph-name="lcircumflexbelow" unicode="&#x1e3d;" horiz-adv-x="220" 
d="M77 0v756h66v-756h-66zM182 -219l-72 105l-72 -105h-65l103 144h70l102 -144h-66z" />
    <glyph glyph-name="Macute" unicode="&#x1e3e;" horiz-adv-x="714" 
d="M564 0v615h-3l-174 -615h-65l-173 615h-3v-615h-65v708h104l169 -598h4l167 598h108v-708h-69zM332 783h-56l90 144h72z" />
    <glyph glyph-name="macute" unicode="&#x1e3f;" horiz-adv-x="713" 
d="M147 399q11 50 42.5 81.5t81.5 31.5q27 0 46.5 -9.5t33 -25t21 -36.5t11.5 -43h2q6 22 17 42.5t27.5 36.5t38 25.5t48.5 9.5q40 0 64 -17t37.5 -44.5t18 -62t4.5 -68.5v-320h-67v320q0 23 -2.5 46.5t-10.5 43t-23.5 32t-41.5 12.5q-24 0 -43.5 -13.5t-32.5 -37t-20 -54
t-7 -63.5v-286h-66v320q0 23 -2.5 47t-10 43.5t-23 31.5t-40.5 12t-44 -13.5t-32.5 -37t-20.5 -54t-7 -63.5v-286h-65v371q0 16 -0.5 34.5t-1 36t-1 32t-1.5 22.5h64q2 -19 3 -46t1 -51h2v0zM333 587h-56l90 144h72z" />
    <glyph glyph-name="Mdotaccent" unicode="&#x1e40;" horiz-adv-x="714" 
d="M564 0v615h-3l-174 -615h-65l-173 615h-3v-615h-65v708h104l169 -598h4l167 598h108v-708h-69zM401 831q0 -21 -13 -34.5t-31 -13.5q-19 0 -31.5 13.5t-12.5 34.5q0 20 12.5 34t31.5 14t31.5 -14t12.5 -34z" />
    <glyph glyph-name="mdotaccent" unicode="&#x1e41;" horiz-adv-x="713" 
d="M147 399q11 50 42.5 81.5t81.5 31.5q27 0 46.5 -9.5t33 -25t21 -36.5t11.5 -43h2q6 22 17 42.5t27.5 36.5t38 25.5t48.5 9.5q40 0 64 -17t37.5 -44.5t18 -62t4.5 -68.5v-320h-67v320q0 23 -2.5 46.5t-10.5 43t-23.5 32t-41.5 12.5q-24 0 -43.5 -13.5t-32.5 -37t-20 -54
t-7 -63.5v-286h-66v320q0 23 -2.5 47t-10 43.5t-23 31.5t-40.5 12t-44 -13.5t-32.5 -37t-20.5 -54t-7 -63.5v-286h-65v371q0 16 -0.5 34.5t-1 36t-1 32t-1.5 22.5h64q2 -19 3 -46t1 -51h2v0zM402 635q0 -21 -13 -34.5t-31 -13.5q-19 0 -31.5 13.5t-12.5 34.5q0 20 12.5 34
t31.5 14t31.5 -14t12.5 -34z" />
    <glyph glyph-name="Mdotbelow" unicode="&#x1e42;" horiz-adv-x="714" 
d="M564 0v615h-3l-174 -615h-65l-173 615h-3v-615h-65v708h104l169 -598h4l167 598h108v-708h-69zM401 -123q0 -21 -13 -34.5t-31 -13.5q-19 0 -31.5 13.5t-12.5 34.5q0 20 12.5 34t31.5 14t31.5 -14t12.5 -34z" />
    <glyph glyph-name="mdotbelow" unicode="&#x1e43;" horiz-adv-x="713" 
d="M147 399q11 50 42.5 81.5t81.5 31.5q27 0 46.5 -9.5t33 -25t21 -36.5t11.5 -43h2q6 22 17 42.5t27.5 36.5t38 25.5t48.5 9.5q40 0 64 -17t37.5 -44.5t18 -62t4.5 -68.5v-320h-67v320q0 23 -2.5 46.5t-10.5 43t-23.5 32t-41.5 12.5q-24 0 -43.5 -13.5t-32.5 -37t-20 -54
t-7 -63.5v-286h-66v320q0 23 -2.5 47t-10 43.5t-23 31.5t-40.5 12t-44 -13.5t-32.5 -37t-20.5 -54t-7 -63.5v-286h-65v371q0 16 -0.5 34.5t-1 36t-1 32t-1.5 22.5h64q2 -19 3 -46t1 -51h2v0zM402 -123q0 -21 -13 -34.5t-31 -13.5q-19 0 -31.5 13.5t-12.5 34.5q0 20 12.5 34
t31.5 14t31.5 -14t12.5 -34z" />
    <glyph glyph-name="Ndotaccent" unicode="&#x1e44;" horiz-adv-x="561" 
d="M396 0l-247 589h-3v-589h-65v708h87l245 -589h3v589h64v-708h-84zM324 831q0 -21 -13 -34.5t-31 -13.5q-19 0 -31.5 13.5t-12.5 34.5q0 20 12.5 34t31.5 14t31.5 -14t12.5 -34z" />
    <glyph glyph-name="ndotaccent" unicode="&#x1e45;" 
d="M331 0v320q0 23 -2.5 46.5t-11 43t-24 32t-40.5 12.5t-44.5 -13.5t-33 -37t-21 -54t-7.5 -63.5v-286h-66v371q0 16 -0.5 34.5t-1 36t-1 32t-1.5 22.5h64q2 -19 3 -46t1 -51h2q14 50 46 81.5t80 31.5q40 0 64.5 -17t37.5 -44.5t17.5 -62t4.5 -68.5v-320h-66zM281 635
q0 -21 -13 -34.5t-31 -13.5q-19 0 -31.5 13.5t-12.5 34.5q0 20 12.5 34t31.5 14t31.5 -14t12.5 -34z" />
    <glyph glyph-name="Ndotbelow" unicode="&#x1e46;" horiz-adv-x="561" 
d="M396 0l-247 589h-3v-589h-65v708h87l245 -589h3v589h64v-708h-84zM324 -123q0 -21 -13 -34.5t-31 -13.5q-19 0 -31.5 13.5t-12.5 34.5q0 20 12.5 34t31.5 14t31.5 -14t12.5 -34z" />
    <glyph glyph-name="ndotbelow" unicode="&#x1e47;" 
d="M331 0v320q0 23 -2.5 46.5t-11 43t-24 32t-40.5 12.5t-44.5 -13.5t-33 -37t-21 -54t-7.5 -63.5v-286h-66v371q0 16 -0.5 34.5t-1 36t-1 32t-1.5 22.5h64q2 -19 3 -46t1 -51h2q14 50 46 81.5t80 31.5q40 0 64.5 -17t37.5 -44.5t17.5 -62t4.5 -68.5v-320h-66zM281 -123
q0 -21 -13 -34.5t-31 -13.5q-19 0 -31.5 13.5t-12.5 34.5q0 20 12.5 34t31.5 14t31.5 -14t12.5 -34z" />
    <glyph glyph-name="Nlinebelow" unicode="&#x1e48;" horiz-adv-x="561" 
d="M396 0l-247 589h-3v-589h-65v708h87l245 -589h3v589h64v-708h-84zM156 -127v52h249v-52h-249z" />
    <glyph glyph-name="nlinebelow" unicode="&#x1e49;" 
d="M331 0v320q0 23 -2.5 46.5t-11 43t-24 32t-40.5 12.5t-44.5 -13.5t-33 -37t-21 -54t-7.5 -63.5v-286h-66v371q0 16 -0.5 34.5t-1 36t-1 32t-1.5 22.5h64q2 -19 3 -46t1 -51h2q14 50 46 81.5t80 31.5q40 0 64.5 -17t37.5 -44.5t17.5 -62t4.5 -68.5v-320h-66zM113 -127v52
h249v-52h-249z" />
    <glyph glyph-name="Ncircumflexbelow" unicode="&#x1e4a;" horiz-adv-x="561" 
d="M396 0l-247 589h-3v-589h-65v708h87l245 -589h3v589h64v-708h-84zM352 -219l-72 105l-72 -105h-65l103 144h70l102 -144h-66z" />
    <glyph glyph-name="ncircumflexbelow" unicode="&#x1e4b;" 
d="M331 0v320q0 23 -2.5 46.5t-11 43t-24 32t-40.5 12.5t-44.5 -13.5t-33 -37t-21 -54t-7.5 -63.5v-286h-66v371q0 16 -0.5 34.5t-1 36t-1 32t-1.5 22.5h64q2 -19 3 -46t1 -51h2q14 50 46 81.5t80 31.5q40 0 64.5 -17t37.5 -44.5t17.5 -62t4.5 -68.5v-320h-66zM309 -219
l-72 105l-72 -105h-65l103 144h70l102 -144h-66z" />
    <glyph glyph-name="Otildeacute" unicode="&#x1e4c;" horiz-adv-x="570" 
d="M519 355q0 -83 -16 -151.5t-46 -117.5t-73 -76t-98 -27t-98.5 27t-74 76t-46.5 117.5t-16 151.5q0 82 15.5 150.5t45.5 117t73.5 75.5t100.5 27q55 0 98 -27t73 -75.5t46 -117t16 -150.5zM446 355q0 64 -10 120t-30.5 97t-50.5 65t-69 24q-41 0 -71.5 -24t-50.5 -65
t-30 -97t-10 -120t10 -120t30 -98t50.5 -66t71.5 -24q40 0 70 24t50 66t30 98t10 120zM413 899q-3 -49 -21.5 -73.5t-47.5 -24.5q-16 0 -29.5 5t-33.5 19q-23 15 -32.5 19.5t-20.5 4.5q-16 0 -23 -13t-11 -36h-37q3 45 21 73t48 28q18 0 30.5 -5.5t32.5 -18.5
q23 -15 33 -19.5t21 -4.5q16 0 22.5 10.5t10.5 35.5h37v0zM260 976h-56l90 144h72z" />
    <glyph glyph-name="otildeacute" unicode="&#x1e4d;" horiz-adv-x="440" 
d="M393 247q0 -59 -12 -107t-34 -83t-54.5 -54t-72.5 -19t-72 19t-54.5 54t-34.5 83t-12 107t11.5 108t33.5 84t54.5 54t73.5 19q40 0 72.5 -19t54.5 -54t34 -84t12 -108zM325 248q0 44 -6.5 82t-19.5 65.5t-32.5 43.5t-46.5 16t-47 -16t-32.5 -43.5t-19 -65.5t-6.5 -82
t6.5 -81t19 -65t32.5 -43.5t47 -15.5t47 15.5t32.5 43.5t19 65t6.5 81zM348 686q-3 -49 -21.5 -73.5t-47.5 -24.5q-16 0 -29.5 5t-33.5 19q-23 15 -32.5 19.5t-20.5 4.5q-16 0 -23 -13t-11 -36h-37q3 45 21 73t48 28q18 0 30.5 -5.5t32.5 -18.5q23 -15 33 -19.5t21 -4.5
q16 0 22.5 10.5t10.5 35.5h37v0zM195 763h-56l90 144h72z" />
    <glyph glyph-name="Otildedieresis" unicode="&#x1e4e;" horiz-adv-x="570" 
d="M519 355q0 -83 -16 -151.5t-46 -117.5t-73 -76t-98 -27t-98.5 27t-74 76t-46.5 117.5t-16 151.5q0 82 15.5 150.5t45.5 117t73.5 75.5t100.5 27q55 0 98 -27t73 -75.5t46 -117t16 -150.5zM446 355q0 64 -10 120t-30.5 97t-50.5 65t-69 24q-41 0 -71.5 -24t-50.5 -65
t-30 -97t-10 -120t10 -120t30 -98t50.5 -66t71.5 -24q40 0 70 24t50 66t30 98t10 120zM413 899q-3 -49 -21.5 -73.5t-47.5 -24.5q-16 0 -29.5 5t-33.5 19q-23 15 -32.5 19.5t-20.5 4.5q-16 0 -23 -13t-11 -36h-37q3 45 21 73t48 28q18 0 30.5 -5.5t32.5 -18.5
q23 -15 33 -19.5t21 -4.5q16 0 22.5 10.5t10.5 35.5h37v0zM399 1021q0 -20 -12 -32.5t-30 -12.5q-17 0 -29.5 12.5t-12.5 32.5q0 19 12.5 32t29.5 13q18 0 30 -13t12 -32zM256 1021q0 -20 -12.5 -32.5t-29.5 -12.5q-19 0 -30.5 12.5t-11.5 32.5q0 19 11.5 32t30.5 13
q17 0 29.5 -13t12.5 -32z" />
    <glyph glyph-name="otildedieresis" unicode="&#x1e4f;" horiz-adv-x="440" 
d="M393 247q0 -59 -12 -107t-34 -83t-54.5 -54t-72.5 -19t-72 19t-54.5 54t-34.5 83t-12 107t11.5 108t33.5 84t54.5 54t73.5 19q40 0 72.5 -19t54.5 -54t34 -84t12 -108zM325 248q0 44 -6.5 82t-19.5 65.5t-32.5 43.5t-46.5 16t-47 -16t-32.5 -43.5t-19 -65.5t-6.5 -82
t6.5 -81t19 -65t32.5 -43.5t47 -15.5t47 15.5t32.5 43.5t19 65t6.5 81zM348 686q-3 -49 -21.5 -73.5t-47.5 -24.5q-16 0 -29.5 5t-33.5 19q-23 15 -32.5 19.5t-20.5 4.5q-16 0 -23 -13t-11 -36h-37q3 45 21 73t48 28q18 0 30.5 -5.5t32.5 -18.5q23 -15 33 -19.5t21 -4.5
q16 0 22.5 10.5t10.5 35.5h37v0zM334 808q0 -20 -12 -32.5t-30 -12.5q-17 0 -29.5 12.5t-12.5 32.5q0 19 12.5 32t29.5 13q18 0 30 -13t12 -32zM191 808q0 -20 -12.5 -32.5t-29.5 -12.5q-19 0 -30.5 12.5t-11.5 32.5q0 19 11.5 32t30.5 13q17 0 29.5 -13t12.5 -32z" />
    <glyph glyph-name="Omacrongrave" unicode="&#x1e50;" horiz-adv-x="570" 
d="M519 355q0 -83 -16 -151.5t-46 -117.5t-73 -76t-98 -27t-98.5 27t-74 76t-46.5 117.5t-16 151.5q0 82 15.5 150.5t45.5 117t73.5 75.5t100.5 27q55 0 98 -27t73 -75.5t46 -117t16 -150.5zM446 355q0 64 -10 120t-30.5 97t-50.5 65t-69 24q-41 0 -71.5 -24t-50.5 -65
t-30 -97t-10 -120t10 -120t30 -98t50.5 -66t71.5 -24q40 0 70 24t50 66t30 98t10 120zM161 800v52h249v-52h-249zM310 927l-106 144h72l90 -144h-56z" />
    <glyph glyph-name="omacrongrave" unicode="&#x1e51;" horiz-adv-x="440" 
d="M393 247q0 -59 -12 -107t-34 -83t-54.5 -54t-72.5 -19t-72 19t-54.5 54t-34.5 83t-12 107t11.5 108t33.5 84t54.5 54t73.5 19q40 0 72.5 -19t54.5 -54t34 -84t12 -108zM325 248q0 44 -6.5 82t-19.5 65.5t-32.5 43.5t-46.5 16t-47 -16t-32.5 -43.5t-19 -65.5t-6.5 -82
t6.5 -81t19 -65t32.5 -43.5t47 -15.5t47 15.5t32.5 43.5t19 65t6.5 81zM96 587v52h249v-52h-249zM245 714l-106 144h72l90 -144h-56z" />
    <glyph glyph-name="Omacronacute" unicode="&#x1e52;" horiz-adv-x="570" 
d="M519 355q0 -83 -16 -151.5t-46 -117.5t-73 -76t-98 -27t-98.5 27t-74 76t-46.5 117.5t-16 151.5q0 82 15.5 150.5t45.5 117t73.5 75.5t100.5 27q55 0 98 -27t73 -75.5t46 -117t16 -150.5zM446 355q0 64 -10 120t-30.5 97t-50.5 65t-69 24q-41 0 -71.5 -24t-50.5 -65
t-30 -97t-10 -120t10 -120t30 -98t50.5 -66t71.5 -24q40 0 70 24t50 66t30 98t10 120zM161 800v52h249v-52h-249zM260 927h-56l90 144h72z" />
    <glyph glyph-name="omacronacute" unicode="&#x1e53;" horiz-adv-x="440" 
d="M393 247q0 -59 -12 -107t-34 -83t-54.5 -54t-72.5 -19t-72 19t-54.5 54t-34.5 83t-12 107t11.5 108t33.5 84t54.5 54t73.5 19q40 0 72.5 -19t54.5 -54t34 -84t12 -108zM325 248q0 44 -6.5 82t-19.5 65.5t-32.5 43.5t-46.5 16t-47 -16t-32.5 -43.5t-19 -65.5t-6.5 -82
t6.5 -81t19 -65t32.5 -43.5t47 -15.5t47 15.5t32.5 43.5t19 65t6.5 81zM96 587v52h249v-52h-249zM195 714h-56l90 144h72z" />
    <glyph glyph-name="Pacute" unicode="&#x1e54;" horiz-adv-x="460" 
d="M428 516q0 -49 -14.5 -86.5t-38.5 -62.5t-55.5 -38t-65.5 -13h-104v-316h-69v708h167q31 0 63 -9t58 -31.5t42.5 -59.5t16.5 -92zM359 515q0 35 -9 60.5t-25 41.5t-36.5 23.5t-44.5 7.5h-94v-273h95q47 0 80.5 34.5t33.5 105.5zM229 783h-56l90 144h72z" />
    <glyph glyph-name="pacute" unicode="&#x1e55;" horiz-adv-x="466" 
d="M419 247q0 -58 -10 -106t-30 -83t-49 -54.5t-68 -19.5q-45 0 -75.5 28t-42.5 73h-1v-325h-66v736h64v-89h2q12 46 40 75.5t79 29.5q37 0 66.5 -20t49.5 -55t30.5 -83.5t10.5 -106.5zM351 249q0 43 -6 80.5t-19 65.5t-32.5 44t-46.5 16t-46.5 -16t-33 -44t-20 -65.5
t-6.5 -80.5q0 -44 6.5 -82t20 -65.5t33.5 -43.5t46 -16q27 0 46.5 16t32.5 43.5t19 65.5t6 82zM223 587h-56l90 144h72z" />
    <glyph glyph-name="uni1E56" unicode="&#x1e56;" horiz-adv-x="460" 
d="M428 516q0 -49 -14.5 -86.5t-38.5 -62.5t-55.5 -38t-65.5 -13h-104v-316h-69v708h167q31 0 63 -9t58 -31.5t42.5 -59.5t16.5 -92zM359 515q0 35 -9 60.5t-25 41.5t-36.5 23.5t-44.5 7.5h-94v-273h95q47 0 80.5 34.5t33.5 105.5zM298 843q0 -21 -13 -34.5t-31 -13.5
q-19 0 -31.5 13.5t-12.5 34.5q0 20 12.5 34t31.5 14t31.5 -14t12.5 -34z" />
    <glyph glyph-name="uni1E57" unicode="&#x1e57;" horiz-adv-x="466" 
d="M419 247q0 -58 -10 -106t-30 -83t-49 -54.5t-68 -19.5q-45 0 -75.5 28t-42.5 73h-1v-325h-66v736h64v-89h2q12 46 40 75.5t79 29.5q37 0 66.5 -20t49.5 -55t30.5 -83.5t10.5 -106.5zM351 249q0 43 -6 80.5t-19 65.5t-32.5 44t-46.5 16t-46.5 -16t-33 -44t-20 -65.5
t-6.5 -80.5q0 -44 6.5 -82t20 -65.5t33.5 -43.5t46 -16q27 0 46.5 16t32.5 43.5t19 65.5t6 82zM292 648q0 -21 -13 -34.5t-31 -13.5q-19 0 -31.5 13.5t-12.5 34.5q0 20 12.5 34t31.5 14t31.5 -14t12.5 -34z" />
    <glyph glyph-name="Rdotaccent" unicode="&#x1e58;" horiz-adv-x="476" 
d="M369 0l-128 328h-91v-328h-69v708h170q35 0 67.5 -9.5t58 -31.5t41 -58t15.5 -88q0 -45 -11.5 -77.5t-30 -54.5t-41 -34t-44.5 -15l138 -340h-75zM365 518q0 38 -10.5 63.5t-28 40.5t-40 21t-46.5 6h-90v-266h93q57 0 89.5 35.5t32.5 99.5zM306 831q0 -21 -13 -34.5
t-31 -13.5q-19 0 -31.5 13.5t-12.5 34.5q0 20 12.5 34t31.5 14t31.5 -14t12.5 -34z" />
    <glyph glyph-name="rdotaccent" unicode="&#x1e59;" horiz-adv-x="274" 
d="M147 388q14 65 43 94t66 29q8 0 12 -1l-2 -68q-4 1 -7.5 1.5t-8.5 0.5q-25 0 -44.5 -17t-32.5 -44t-19.5 -61.5t-6.5 -68.5v-253h-66v371q0 16 -0.5 34.5t-1 36t-1 32t-1.5 22.5h64q2 -19 3 -47.5t1 -60.5h2v0zM216 634q0 -21 -13 -34.5t-31 -13.5q-19 0 -31.5 13.5
t-12.5 34.5q0 20 12.5 34t31.5 14t31.5 -14t12.5 -34z" />
    <glyph glyph-name="Rdotbelow" unicode="&#x1e5a;" horiz-adv-x="476" 
d="M369 0l-128 328h-91v-328h-69v708h170q35 0 67.5 -9.5t58 -31.5t41 -58t15.5 -88q0 -45 -11.5 -77.5t-30 -54.5t-41 -34t-44.5 -15l138 -340h-75zM365 518q0 38 -10.5 63.5t-28 40.5t-40 21t-46.5 6h-90v-266h93q57 0 89.5 35.5t32.5 99.5zM306 -123q0 -21 -13 -34.5
t-31 -13.5q-19 0 -31.5 13.5t-12.5 34.5q0 20 12.5 34t31.5 14t31.5 -14t12.5 -34z" />
    <glyph glyph-name="rdotbelow" unicode="&#x1e5b;" horiz-adv-x="274" 
d="M147 388q14 65 43 94t66 29q8 0 12 -1l-2 -68q-4 1 -7.5 1.5t-8.5 0.5q-25 0 -44.5 -17t-32.5 -44t-19.5 -61.5t-6.5 -68.5v-253h-66v371q0 16 -0.5 34.5t-1 36t-1 32t-1.5 22.5h64q2 -19 3 -47.5t1 -60.5h2v0zM216 -123q0 -21 -13 -34.5t-31 -13.5q-19 0 -31.5 13.5
t-12.5 34.5q0 20 12.5 34t31.5 14t31.5 -14t12.5 -34z" />
    <glyph glyph-name="Rdotbelowmacron" unicode="&#x1e5c;" horiz-adv-x="476" 
d="M369 0l-128 328h-91v-328h-69v708h170q35 0 67.5 -9.5t58 -31.5t41 -58t15.5 -88q0 -45 -11.5 -77.5t-30 -54.5t-41 -34t-44.5 -15l138 -340h-75zM365 518q0 38 -10.5 63.5t-28 40.5t-40 21t-46.5 6h-90v-266h93q57 0 89.5 35.5t32.5 99.5zM138 783v52h249v-52h-249z
M306 -123q0 -21 -13 -34.5t-31 -13.5q-19 0 -31.5 13.5t-12.5 34.5q0 20 12.5 34t31.5 14t31.5 -14t12.5 -34z" />
    <glyph glyph-name="rdotbelowmacron" unicode="&#x1e5d;" horiz-adv-x="274" 
d="M147 388q14 65 43 94t66 29q8 0 12 -1l-2 -68q-4 1 -7.5 1.5t-8.5 0.5q-25 0 -44.5 -17t-32.5 -44t-19.5 -61.5t-6.5 -68.5v-253h-66v371q0 16 -0.5 34.5t-1 36t-1 32t-1.5 22.5h64q2 -19 3 -47.5t1 -60.5h2v0zM48 586v52h249v-52h-249zM216 -123q0 -21 -13 -34.5
t-31 -13.5q-19 0 -31.5 13.5t-12.5 34.5q0 20 12.5 34t31.5 14t31.5 -14t12.5 -34z" />
    <glyph glyph-name="Rlinebelow" unicode="&#x1e5e;" horiz-adv-x="476" 
d="M369 0l-128 328h-91v-328h-69v708h170q35 0 67.5 -9.5t58 -31.5t41 -58t15.5 -88q0 -45 -11.5 -77.5t-30 -54.5t-41 -34t-44.5 -15l138 -340h-75zM365 518q0 38 -10.5 63.5t-28 40.5t-40 21t-46.5 6h-90v-266h93q57 0 89.5 35.5t32.5 99.5zM138 -127v52h249v-52h-249z
" />
    <glyph glyph-name="rlinebelow" unicode="&#x1e5f;" horiz-adv-x="274" 
d="M147 388q14 65 43 94t66 29q8 0 12 -1l-2 -68q-4 1 -7.5 1.5t-8.5 0.5q-25 0 -44.5 -17t-32.5 -44t-19.5 -61.5t-6.5 -68.5v-253h-66v371q0 16 -0.5 34.5t-1 36t-1 32t-1.5 22.5h64q2 -19 3 -47.5t1 -60.5h2v0zM48 -127v52h249v-52h-249z" />
    <glyph glyph-name="uni1E60" unicode="&#x1e60;" horiz-adv-x="434" 
d="M388 181q0 -47 -14 -83.5t-38.5 -62t-57.5 -39t-70 -13.5q-54 0 -99.5 23t-73.5 61l43 49q23 -33 58 -51t71 -18q48 0 80.5 34t32.5 97q0 30 -10 53t-27 41t-38.5 32t-45.5 26q-29 14 -55 31.5t-45.5 40.5t-31.5 54.5t-12 73.5q0 49 15 85.5t40.5 61t57.5 36.5t67 12
q48 0 86.5 -16.5t64.5 -51.5l-43 -49q-20 29 -47 41.5t-59 12.5q-21 0 -41.5 -7.5t-36.5 -23.5t-26 -41t-10 -59q0 -30 9 -52t24.5 -39t36 -30t42.5 -24q28 -14 55.5 -32t49.5 -42t35 -56t13 -75zM281 843q0 -21 -13 -34.5t-31 -13.5q-19 0 -31.5 13.5t-12.5 34.5
q0 20 12.5 34t31.5 14t31.5 -14t12.5 -34z" />
    <glyph glyph-name="uni1E61" unicode="&#x1e61;" horiz-adv-x="340" 
d="M266 410q-13 22 -33.5 35.5t-49.5 13.5q-32 0 -52.5 -23.5t-20.5 -61.5q0 -40 20 -58t60 -33q20 -8 40 -19.5t35.5 -28.5t25.5 -40.5t10 -56.5q0 -73 -39.5 -113.5t-102.5 -40.5q-42 0 -77 19.5t-58 52.5l40 43q17 -26 40.5 -42.5t55.5 -16.5q35 0 56.5 25.5t21.5 67.5
q0 24 -8 40.5t-21 27.5t-29.5 19t-34.5 15q-19 7 -36.5 17t-31.5 26t-22.5 38.5t-8.5 54.5q0 31 10.5 57t29.5 44.5t43.5 29t53.5 10.5q42 0 72.5 -16.5t49.5 -42.5zM208 648q0 -21 -13 -34.5t-31 -13.5q-19 0 -31.5 13.5t-12.5 34.5q0 20 12.5 34t31.5 14t31.5 -14
t12.5 -34z" />
    <glyph glyph-name="Sdotbelow" unicode="&#x1e62;" horiz-adv-x="434" 
d="M388 181q0 -47 -14 -83.5t-38.5 -62t-57.5 -39t-70 -13.5q-54 0 -99.5 23t-73.5 61l43 49q23 -33 58 -51t71 -18q48 0 80.5 34t32.5 97q0 30 -10 53t-27 41t-38.5 32t-45.5 26q-29 14 -55 31.5t-45.5 40.5t-31.5 54.5t-12 73.5q0 49 15 85.5t40.5 61t57.5 36.5t67 12
q48 0 86.5 -16.5t64.5 -51.5l-43 -49q-20 29 -47 41.5t-59 12.5q-21 0 -41.5 -7.5t-36.5 -23.5t-26 -41t-10 -59q0 -30 9 -52t24.5 -39t36 -30t42.5 -24q28 -14 55.5 -32t49.5 -42t35 -56t13 -75zM255 -140q0 -21 -13 -34.5t-31 -13.5q-19 0 -31.5 13.5t-12.5 34.5
q0 20 12.5 34t31.5 14t31.5 -14t12.5 -34z" />
    <glyph glyph-name="sdotbelow" unicode="&#x1e63;" horiz-adv-x="340" 
d="M266 410q-13 22 -33.5 35.5t-49.5 13.5q-32 0 -52.5 -23.5t-20.5 -61.5q0 -40 20 -58t60 -33q20 -8 40 -19.5t35.5 -28.5t25.5 -40.5t10 -56.5q0 -73 -39.5 -113.5t-102.5 -40.5q-42 0 -77 19.5t-58 52.5l40 43q17 -26 40.5 -42.5t55.5 -16.5q35 0 56.5 25.5t21.5 67.5
q0 24 -8 40.5t-21 27.5t-29.5 19t-34.5 15q-19 7 -36.5 17t-31.5 26t-22.5 38.5t-8.5 54.5q0 31 10.5 57t29.5 44.5t43.5 29t53.5 10.5q42 0 72.5 -16.5t49.5 -42.5zM208 -139q0 -21 -13 -34.5t-31 -13.5q-19 0 -31.5 13.5t-12.5 34.5q0 20 12.5 34t31.5 14t31.5 -14
t12.5 -34z" />
    <glyph glyph-name="Sacutedotaccent" unicode="&#x1e64;" horiz-adv-x="434" 
d="M388 181q0 -47 -14 -83.5t-38.5 -62t-57.5 -39t-70 -13.5q-54 0 -99.5 23t-73.5 61l43 49q23 -33 58 -51t71 -18q48 0 80.5 34t32.5 97q0 30 -10 53t-27 41t-38.5 32t-45.5 26q-29 14 -55 31.5t-45.5 40.5t-31.5 54.5t-12 73.5q0 49 15 85.5t40.5 61t57.5 36.5t67 12
q48 0 86.5 -16.5t64.5 -51.5l-43 -49q-20 29 -47 41.5t-59 12.5q-21 0 -41.5 -7.5t-36.5 -23.5t-26 -41t-10 -59q0 -30 9 -52t24.5 -39t36 -30t42.5 -24q28 -14 55.5 -32t49.5 -42t35 -56t13 -75zM186 800h-56l90 144h72zM255 1067q0 -21 -13 -34.5t-31 -13.5
q-19 0 -31.5 13.5t-12.5 34.5q0 20 12.5 34t31.5 14t31.5 -14t12.5 -34z" />
    <glyph glyph-name="sacutedotaccent" unicode="&#x1e65;" horiz-adv-x="340" 
d="M266 410q-13 22 -33.5 35.5t-49.5 13.5q-32 0 -52.5 -23.5t-20.5 -61.5q0 -40 20 -58t60 -33q20 -8 40 -19.5t35.5 -28.5t25.5 -40.5t10 -56.5q0 -73 -39.5 -113.5t-102.5 -40.5q-42 0 -77 19.5t-58 52.5l40 43q17 -26 40.5 -42.5t55.5 -16.5q35 0 56.5 25.5t21.5 67.5
q0 24 -8 40.5t-21 27.5t-29.5 19t-34.5 15q-19 7 -36.5 17t-31.5 26t-22.5 38.5t-8.5 54.5q0 31 10.5 57t29.5 44.5t43.5 29t53.5 10.5q42 0 72.5 -16.5t49.5 -42.5zM139 587h-56l90 144h72zM208 854q0 -21 -13 -34.5t-31 -13.5q-19 0 -31.5 13.5t-12.5 34.5q0 20 12.5 34
t31.5 14t31.5 -14t12.5 -34z" />
    <glyph glyph-name="Scarondotaccent" unicode="&#x1e66;" horiz-adv-x="434" 
d="M388 181q0 -47 -14 -83.5t-38.5 -62t-57.5 -39t-70 -13.5q-54 0 -99.5 23t-73.5 61l43 49q23 -33 58 -51t71 -18q48 0 80.5 34t32.5 97q0 30 -10 53t-27 41t-38.5 32t-45.5 26q-29 14 -55 31.5t-45.5 40.5t-31.5 54.5t-12 73.5q0 49 15 85.5t40.5 61t57.5 36.5t67 12
q48 0 86.5 -16.5t64.5 -51.5l-43 -49q-20 29 -47 41.5t-59 12.5q-21 0 -41.5 -7.5t-36.5 -23.5t-26 -41t-10 -59q0 -30 9 -52t24.5 -39t36 -30t42.5 -24q28 -14 55.5 -32t49.5 -42t35 -56t13 -75zM247 800h-70l-103 144h65l72 -105l72 105h66zM255 1067q0 -21 -13 -34.5
t-31 -13.5q-19 0 -31.5 13.5t-12.5 34.5q0 20 12.5 34t31.5 14t31.5 -14t12.5 -34z" />
    <glyph glyph-name="scarondotaccent" unicode="&#x1e67;" horiz-adv-x="340" 
d="M266 410q-13 22 -33.5 35.5t-49.5 13.5q-32 0 -52.5 -23.5t-20.5 -61.5q0 -40 20 -58t60 -33q20 -8 40 -19.5t35.5 -28.5t25.5 -40.5t10 -56.5q0 -73 -39.5 -113.5t-102.5 -40.5q-42 0 -77 19.5t-58 52.5l40 43q17 -26 40.5 -42.5t55.5 -16.5q35 0 56.5 25.5t21.5 67.5
q0 24 -8 40.5t-21 27.5t-29.5 19t-34.5 15q-19 7 -36.5 17t-31.5 26t-22.5 38.5t-8.5 54.5q0 31 10.5 57t29.5 44.5t43.5 29t53.5 10.5q42 0 72.5 -16.5t49.5 -42.5zM200 587h-70l-103 144h65l72 -105l72 105h66zM208 854q0 -21 -13 -34.5t-31 -13.5q-19 0 -31.5 13.5
t-12.5 34.5q0 20 12.5 34t31.5 14t31.5 -14t12.5 -34z" />
    <glyph glyph-name="Sdotbelowdotaccent" unicode="&#x1e68;" horiz-adv-x="434" 
d="M388 181q0 -47 -14 -83.5t-38.5 -62t-57.5 -39t-70 -13.5q-54 0 -99.5 23t-73.5 61l43 49q23 -33 58 -51t71 -18q48 0 80.5 34t32.5 97q0 30 -10 53t-27 41t-38.5 32t-45.5 26q-29 14 -55 31.5t-45.5 40.5t-31.5 54.5t-12 73.5q0 49 15 85.5t40.5 61t57.5 36.5t67 12
q48 0 86.5 -16.5t64.5 -51.5l-43 -49q-20 29 -47 41.5t-59 12.5q-21 0 -41.5 -7.5t-36.5 -23.5t-26 -41t-10 -59q0 -30 9 -52t24.5 -39t36 -30t42.5 -24q28 -14 55.5 -32t49.5 -42t35 -56t13 -75zM255 -140q0 -21 -13 -34.5t-31 -13.5q-19 0 -31.5 13.5t-12.5 34.5
q0 20 12.5 34t31.5 14t31.5 -14t12.5 -34zM255 848q0 -21 -13 -34.5t-31 -13.5q-19 0 -31.5 13.5t-12.5 34.5q0 20 12.5 34t31.5 14t31.5 -14t12.5 -34z" />
    <glyph glyph-name="sdotbelowdotaccent" unicode="&#x1e69;" horiz-adv-x="340" 
d="M266 410q-13 22 -33.5 35.5t-49.5 13.5q-32 0 -52.5 -23.5t-20.5 -61.5q0 -40 20 -58t60 -33q20 -8 40 -19.5t35.5 -28.5t25.5 -40.5t10 -56.5q0 -73 -39.5 -113.5t-102.5 -40.5q-42 0 -77 19.5t-58 52.5l40 43q17 -26 40.5 -42.5t55.5 -16.5q35 0 56.5 25.5t21.5 67.5
q0 24 -8 40.5t-21 27.5t-29.5 19t-34.5 15q-19 7 -36.5 17t-31.5 26t-22.5 38.5t-8.5 54.5q0 31 10.5 57t29.5 44.5t43.5 29t53.5 10.5q42 0 72.5 -16.5t49.5 -42.5zM208 -139q0 -21 -13 -34.5t-31 -13.5q-19 0 -31.5 13.5t-12.5 34.5q0 20 12.5 34t31.5 14t31.5 -14
t12.5 -34zM208 635q0 -21 -13 -34.5t-31 -13.5q-19 0 -31.5 13.5t-12.5 34.5q0 20 12.5 34t31.5 14t31.5 -14t12.5 -34z" />
    <glyph glyph-name="uni1E6A" unicode="&#x1e6a;" horiz-adv-x="342" 
d="M205 648v-648h-69v648h-136v60h342v-60h-137zM215 843q0 -21 -13 -34.5t-31 -13.5q-19 0 -31.5 13.5t-12.5 34.5q0 20 12.5 34t31.5 14t31.5 -14t12.5 -34z" />
    <glyph glyph-name="uni1E6B" unicode="&#x1e6b;" horiz-adv-x="250" 
d="M238 0q-11 -5 -27 -9t-33 -4q-52 0 -73.5 36t-21.5 96v323h-65v54h64v137h65v-137h88v-54h-88v-311q0 -45 13 -65.5t39 -20.5q9 0 19 2.5t17 5.5zM159 753q0 -21 -13 -34.5t-31 -13.5q-19 0 -31.5 13.5t-12.5 34.5q0 20 12.5 34t31.5 14t31.5 -14t12.5 -34z" />
    <glyph glyph-name="Tdotbelow" unicode="&#x1e6c;" horiz-adv-x="342" 
d="M205 648v-648h-69v648h-136v60h342v-60h-137zM215 -123q0 -21 -13 -34.5t-31 -13.5q-19 0 -31.5 13.5t-12.5 34.5q0 20 12.5 34t31.5 14t31.5 -14t12.5 -34z" />
    <glyph glyph-name="tdotbelow" unicode="&#x1e6d;" horiz-adv-x="250" 
d="M238 0q-11 -5 -27 -9t-33 -4q-52 0 -73.5 36t-21.5 96v323h-65v54h64v137h65v-137h88v-54h-88v-311q0 -45 13 -65.5t39 -20.5q9 0 19 2.5t17 5.5l3 -53v0zM172 -136q0 -21 -13 -34.5t-31 -13.5q-19 0 -31.5 13.5t-12.5 34.5q0 20 12.5 34t31.5 14t31.5 -14t12.5 -34z" />
    <glyph glyph-name="Tlinebelow" unicode="&#x1e6e;" horiz-adv-x="342" 
d="M205 648v-648h-69v648h-136v60h342v-60h-137zM47 -127v52h249v-52h-249z" />
    <glyph glyph-name="tlinebelow" unicode="&#x1e6f;" horiz-adv-x="250" 
d="M238 0q-11 -5 -27 -9t-33 -4q-52 0 -73.5 36t-21.5 96v323h-65v54h64v137h65v-137h88v-54h-88v-311q0 -45 13 -65.5t39 -20.5q9 0 19 2.5t17 5.5l3 -53v0zM4 -140v52h249v-52h-249z" />
    <glyph glyph-name="Tcircumflexbelow" unicode="&#x1e70;" horiz-adv-x="342" 
d="M205 648v-648h-69v648h-136v60h342v-60h-137zM243 -219l-72 105l-72 -105h-65l103 144h70l102 -144h-66z" />
    <glyph glyph-name="tcircumflexbelow" unicode="&#x1e71;" horiz-adv-x="250" 
d="M238 0q-11 -5 -27 -9t-33 -4q-52 0 -73.5 36t-21.5 96v323h-65v54h64v137h65v-137h88v-54h-88v-311q0 -45 13 -65.5t39 -20.5q9 0 19 2.5t17 5.5l3 -53v0zM200 -232l-72 105l-72 -105h-65l103 144h70l102 -144h-66z" />
    </font>
</defs>
</svg>
