<svg id="logoSVG" xmlns="http://www.w3.org/2000/svg" viewBox="0 0 241.63 124.65"><defs><style>.cls-1{fill:#3d3d3b;}</style></defs><title>logo_1</title><g id="Calque_2" data-name="Calque 2"><g id="Calque_1-2" data-name="Calque 1"><path class="cls-1" d="M79.94,23.13A11.22,11.22,0,0,0,68.73,34.34V59.28H3.16a3.16,3.16,0,1,0,0,6.32H71.89a3.16,3.16,0,0,0,3.16-3.16V34.34a4.89,4.89,0,1,1,9.77,0v72.48a3.16,3.16,0,1,0,6.32,0V34.34A11.22,11.22,0,0,0,79.94,23.13ZM129.08,0a11.22,11.22,0,0,0-11.21,11.21V121.49a3.16,3.16,0,0,0,6.32,0V11.21a4.89,4.89,0,1,1,9.77,0V84.09a3.16,3.16,0,1,0,6.32,0V11.21A11.22,11.22,0,0,0,129.08,0ZM238.47,59.28h-65.6V34.34a11.21,11.21,0,1,0-22.41,0V97.22a3.16,3.16,0,1,0,6.32,0V52.36h9.77V62.44a3.16,3.16,0,0,0,3.16,3.16h68.76a3.16,3.16,0,1,0,0-6.32ZM166.55,46h-9.77V34.34a4.89,4.89,0,1,1,9.77,0Zm-62.13-6.19A3.17,3.17,0,0,0,101.26,43V94.19a3.16,3.16,0,0,0,6.32,0V43A3.16,3.16,0,0,0,104.42,39.85ZM101.51,27.5a2.42,2.42,0,0,0,.29.55,2.93,2.93,0,0,0,.39.48,3,3,0,0,0,.48.39,2.81,2.81,0,0,0,.54.29,3,3,0,0,0,.6.18,3.15,3.15,0,0,0,.61.06,3.19,3.19,0,0,0,2.24-.92,4.54,4.54,0,0,0,.39-.48,3.6,3.6,0,0,0,.29-.55,3.09,3.09,0,0,0,.18-.59,3.18,3.18,0,0,0,0-1.23,3.09,3.09,0,0,0-.18-.59,3.6,3.6,0,0,0-.29-.55,4.54,4.54,0,0,0-.39-.48,3.26,3.26,0,0,0-4.47,0,2.93,2.93,0,0,0-.39.48,2.42,2.42,0,0,0-.29.55,3.09,3.09,0,0,0-.18.59,2.74,2.74,0,0,0,0,1.23A3.09,3.09,0,0,0,101.51,27.5Zm70.53,70a3.41,3.41,0,0,0-.17-.33,2.17,2.17,0,0,0-.24-.29,2,2,0,0,0-2.67,0,1.54,1.54,0,0,0-.23.29,2.11,2.11,0,0,0-.18.33,2,2,0,0,0-.11.35,2.31,2.31,0,0,0,0,.37A1.88,1.88,0,0,0,169,99.6a2.09,2.09,0,0,0,.29.23,2,2,0,0,0,.32.18,2.3,2.3,0,0,0,.35.1,1.64,1.64,0,0,0,.38,0,1.9,1.9,0,0,0,1.33-.55A1.81,1.81,0,0,0,172,99a1.75,1.75,0,0,0,.15-.72,2.33,2.33,0,0,0,0-.37A2,2,0,0,0,172,97.54Zm28.35-18.67a3.89,3.89,0,0,0-2.47.89,3.9,3.9,0,0,0-6.38,3V98.48a1.42,1.42,0,0,0,2.84,0V82.76a1.06,1.06,0,0,1,2.12,0V98.48a1.42,1.42,0,0,0,2.83,0V82.76a1.06,1.06,0,0,1,2.12,0V98.48a1.42,1.42,0,0,0,2.84,0V82.76A3.9,3.9,0,0,0,200.39,78.87Zm-14.69,0a3.89,3.89,0,0,0-3.89,3.89V98.48a1.42,1.42,0,0,0,2.83,0v-5h2.05a1.42,1.42,0,0,0,0-2.83h-2.05V82.76a1.06,1.06,0,0,1,2.12,0v4.79a1.42,1.42,0,0,0,2.83,0V82.76A3.89,3.89,0,0,0,185.7,78.87Z"/></g></g></svg>
