<svg xmlns="http://www.w3.org/2000/svg" viewBox="0 0 241.63 124.65"><defs><style>.cls-1{fill:#fff;}</style></defs><title>logo-white</title><g id="Calque_2" data-name="Calque 2"><g id="Calque_1-2" data-name="Calque 1"><path class="cls-1" d="M79.93,23.13a11.22,11.22,0,0,0-11.2,11.21V59.28H3.16a3.16,3.16,0,1,0,0,6.32H71.89a3.16,3.16,0,0,0,3.16-3.16V34.34a4.89,4.89,0,1,1,9.77,0v70.49a3.16,3.16,0,1,0,6.32,0V34.34A11.22,11.22,0,0,0,79.93,23.13ZM129.08,0a11.22,11.22,0,0,0-11.21,11.21V121.49a3.16,3.16,0,0,0,6.32,0V11.21a4.89,4.89,0,1,1,9.77,0V84.09a3.16,3.16,0,1,0,6.32,0V11.21A11.22,11.22,0,0,0,129.08,0ZM238.47,59.28h-65.6V34.34a11.21,11.21,0,1,0-22.41,0V97.22a3.16,3.16,0,1,0,6.32,0V52.36h9.77V62.44a3.16,3.16,0,0,0,3.16,3.16h68.76a3.16,3.16,0,1,0,0-6.32ZM166.55,46h-9.77V34.34a4.89,4.89,0,1,1,9.77,0Zm-62.13-9.31a3.17,3.17,0,0,0-3.16,3.17V91.07a3.16,3.16,0,0,0,6.32,0V39.9A3.16,3.16,0,0,0,104.42,36.73Zm66.93,60a1.73,1.73,0,0,0-.33-.17,1.42,1.42,0,0,0-.35-.11,1.84,1.84,0,0,0-.74,0,1.65,1.65,0,0,0-.36.11,1.41,1.41,0,0,0-.32.17,2.17,2.17,0,0,0-.29.24,1.9,1.9,0,0,0-.55,1.33,2.22,2.22,0,0,0,0,.37,2,2,0,0,0,.11.35,2.55,2.55,0,0,0,.17.33,2.17,2.17,0,0,0,.24.29,1.91,1.91,0,0,0,1.34.55,1.88,1.88,0,0,0,1.33-.55,2.17,2.17,0,0,0,.24-.29A1.29,1.29,0,0,0,172,99a1.42,1.42,0,0,0,.11-.35,1.5,1.5,0,0,0,0-.37,1.91,1.91,0,0,0-.56-1.33A1.61,1.61,0,0,0,171.35,96.69Zm29-17.82a3.89,3.89,0,0,0-2.47.89,3.9,3.9,0,0,0-6.38,3V98.48a1.42,1.42,0,0,0,2.84,0V82.76a1.06,1.06,0,0,1,2.12,0V98.48a1.42,1.42,0,0,0,2.83,0V82.76a1.06,1.06,0,0,1,2.12,0V98.48a1.42,1.42,0,0,0,2.84,0V82.76A3.9,3.9,0,0,0,200.39,78.87Zm-14.69,0a3.89,3.89,0,0,0-3.89,3.89V98.48a1.42,1.42,0,0,0,2.83,0v-5h2.05a1.42,1.42,0,0,0,0-2.83h-2.05V82.76a1.06,1.06,0,0,1,2.12,0v4.79a1.42,1.42,0,0,0,2.83,0V82.76A3.89,3.89,0,0,0,185.7,78.87Zm-77.58-54.1a4.24,4.24,0,0,0-.37-.7,4.08,4.08,0,0,0-.5-.6,3.25,3.25,0,0,0-.61-.5,4.14,4.14,0,0,0-.69-.37,4,4,0,0,0-.74-.23,4.15,4.15,0,0,0-1.57,0,4.3,4.3,0,0,0-.75.23,3.83,3.83,0,0,0-.69.37,3.19,3.19,0,0,0-.6.5,3.54,3.54,0,0,0-.5.6,3.6,3.6,0,0,0-.37.7,4,4,0,0,0-.23.74,3.89,3.89,0,0,0,0,1.57,4,4,0,0,0,.23.74,4,4,0,0,0,.87,1.3,3.19,3.19,0,0,0,.6.5,3.83,3.83,0,0,0,.69.37,4.3,4.3,0,0,0,.75.23,4.13,4.13,0,0,0,.78.08,4.23,4.23,0,0,0,.79-.08A4,4,0,0,0,106,30a3.52,3.52,0,0,0,.69-.37,3.25,3.25,0,0,0,.61-.5,3.69,3.69,0,0,0,.5-.61,3.78,3.78,0,0,0,.37-.69,3.92,3.92,0,0,0,.22-.74,3.89,3.89,0,0,0,0-1.57A3.92,3.92,0,0,0,108.12,24.77Z"/></g></g></svg>